<svg width="31" height="30" viewBox="0 0 31 30" fill="none" xmlns="http://www.w3.org/2000/svg">
<g clip-path="url(#clip0_1212_2031)">
<path fill-rule="evenodd" clip-rule="evenodd" d="M15.5405 0C23.7905 0 30.5405 6.75 30.5405 15C30.5405 22.5 25.103 28.875 17.603 30V19.3125H21.1655L21.9155 15H17.7905V12.1875C17.7905 11.0625 18.353 9.9375 20.228 9.9375H22.103V6.1875C22.103 6.1875 20.4155 5.8125 18.728 5.8125C15.353 5.8125 13.103 7.875 13.103 11.625V15H9.35303V19.3125H13.103V29.8125C5.97803 28.6875 0.540527 22.5 0.540527 15C0.540527 6.75 7.29053 0 15.5405 0Z" fill="#EDDFD0"/>
</g>
<defs>
<clipPath id="clip0_1212_2031">
<rect width="30" height="30" fill="white" transform="translate(0.540527)"/>
</clipPath>
</defs>
</svg>
