<svg width="31" height="30" viewBox="0 0 31 30" fill="none" xmlns="http://www.w3.org/2000/svg">
<path d="M15.0813 21.1764C11.7724 21.1764 8.90479 18.5294 8.90479 15C8.90479 11.6911 11.5518 8.82349 15.0813 8.82349C18.3901 8.82349 21.2577 11.4705 21.2577 15C21.2577 18.3088 18.3901 21.1764 15.0813 21.1764Z" fill="#EDDFD0"/>
<path fill-rule="evenodd" clip-rule="evenodd" d="M22.5811 0H7.58106C5.81635 0.220588 4.934 0.441177 4.27223 0.661765C3.38988 0.882353 2.72812 1.32353 2.06635 1.9853C1.5427 2.50897 1.29528 3.03265 0.996254 3.66552C0.917438 3.83228 0.834805 4.00721 0.74282 4.19118C0.708695 4.29353 0.669298 4.40118 0.627056 4.51655C0.396298 5.14699 0.0810547 6.00838 0.0810547 7.5V22.5C0.301643 24.2647 0.522232 25.1471 0.74282 25.8088C0.963408 26.6912 1.40459 27.3529 2.06635 28.0147C2.59003 28.5384 3.1137 28.7857 3.74657 29.0848C3.91356 29.1638 4.08804 29.2463 4.27223 29.3382C4.37459 29.3724 4.48223 29.4117 4.5976 29.454C5.22804 29.6848 6.08944 30 7.58106 30H22.5811C24.3458 29.7794 25.2281 29.5588 25.8899 29.3382C26.7722 29.1177 27.434 28.6765 28.0958 28.0147C28.6194 27.491 28.8667 26.9674 29.1658 26.3345C29.2448 26.1675 29.3273 25.993 29.4193 25.8088C29.4535 25.7065 29.4927 25.5988 29.5351 25.4835C29.7658 24.853 30.0811 23.9916 30.0811 22.5V7.5C29.8605 5.7353 29.6399 4.85294 29.4193 4.19118C29.1987 3.30883 28.7575 2.64706 28.0958 1.9853C27.5721 1.46164 27.0484 1.21423 26.4155 0.915176C26.2488 0.836426 26.0736 0.753684 25.8899 0.661765C25.7875 0.62764 25.6799 0.588222 25.5645 0.546001C24.9341 0.315222 24.0727 0 22.5811 0ZM15.0811 5.51471C9.78694 5.51471 5.59576 9.70588 5.59576 15C5.59576 20.2941 9.78694 24.4853 15.0811 24.4853C20.3752 24.4853 24.5663 20.2941 24.5663 15C24.5663 9.70588 20.3752 5.51471 15.0811 5.51471ZM26.9928 5.29412C26.9928 6.51243 26.0052 7.5 24.7869 7.5C23.5686 7.5 22.5811 6.51243 22.5811 5.29412C22.5811 4.07581 23.5686 3.08824 24.7869 3.08824C26.0052 3.08824 26.9928 4.07581 26.9928 5.29412Z" fill="#EDDFD0"/>
</svg>
