<svg width="30" height="30" viewBox="0 0 30 30" fill="none" xmlns="http://www.w3.org/2000/svg">
<path fill-rule="evenodd" clip-rule="evenodd" d="M7.27275 27.9389C9.54547 29.313 12.2727 30 15 30C23.4091 30 30 23.1298 30 15.1145C30 10.9924 28.6364 7.32824 25.6818 4.35114C22.7273 1.60305 19.0909 0 15 0C6.8182 0 0 6.87023 0 15.1145C0 17.8626 0.681839 20.6107 2.27275 23.1298L2.72729 23.8168L1.13636 29.313L6.8182 27.7099L7.27275 27.9389ZM20 17.1756C20.4546 17.1756 22.7273 18.3206 23.1818 18.5496C23.2525 18.5853 23.3234 18.6153 23.3934 18.6451C23.7725 18.8063 24.1264 18.957 24.3182 19.9237C24.5455 19.9237 24.5455 20.8397 24.0909 21.9847C23.8636 22.9008 22.0455 24.0458 21.1364 24.0458C20.9823 24.0458 20.8348 24.0589 20.6773 24.0731C19.905 24.1418 18.8909 24.2322 15.6818 22.9008C11.6989 21.2954 8.93752 17.4044 8.16206 16.3118C8.05252 16.1574 7.98274 16.0589 7.95456 16.0305C7.91593 15.9527 7.83752 15.8281 7.73433 15.6639C7.23161 14.864 6.13638 13.1214 6.13638 11.2214C6.13638 8.9313 7.27274 7.78626 7.72729 7.32824C8.18184 6.87023 8.63638 6.87023 8.86365 6.87023H9.77274C10 6.87023 10.4546 6.87023 10.6818 7.55725C11.1364 8.47328 12.0455 10.7634 12.0455 10.9924C12.0455 11.0686 12.0707 11.1451 12.0959 11.2214C12.1466 11.3741 12.1971 11.5266 12.0455 11.6794C11.9318 11.7939 11.875 11.9084 11.8182 12.0229C11.7614 12.1374 11.7046 12.2519 11.5909 12.3664L10.9091 13.0534C10.6818 13.2824 10.4546 13.5115 10.6818 13.9695C10.9091 14.4275 11.8182 16.0305 13.1818 17.1756C14.7161 18.5283 15.9268 19.0658 16.5405 19.3381C16.6541 19.3885 16.7473 19.4299 16.8182 19.4656C17.2727 19.4656 17.5 19.4656 17.7273 19.2366C17.8409 19.0076 18.125 18.6641 18.4091 18.3206C18.6932 17.9771 18.9773 17.6336 19.0909 17.4046C19.3182 16.9466 19.5455 16.9466 20 17.1756Z" fill="#EDDFD0"/>
</svg>
