<?xml version="1.0" encoding="UTF-8" standalone="no"?>
<svg
   width="100"
   height="100"
   viewBox="0 0 100 100"
   fill="none"
   version="1.1"
   id="svg73"
   sodipodi:docname="default.svg"
   inkscape:version="1.1 (c68e22c387, 2021-05-23)"
   xmlns:inkscape="http://www.inkscape.org/namespaces/inkscape"
   xmlns:sodipodi="http://sodipodi.sourceforge.net/DTD/sodipodi-0.dtd"
   xmlns="http://www.w3.org/2000/svg"
   xmlns:svg="http://www.w3.org/2000/svg">
  <sodipodi:namedview
     id="namedview75"
     pagecolor="#ffffff"
     bordercolor="#666666"
     borderopacity="1.0"
     inkscape:pageshadow="2"
     inkscape:pageopacity="0.0"
     inkscape:pagecheckerboard="0"
     showgrid="false"
     inkscape:zoom="4.0163665"
     inkscape:cx="36.724736"
     inkscape:cy="65.606562"
     inkscape:window-width="1366"
     inkscape:window-height="705"
     inkscape:window-x="-8"
     inkscape:window-y="-8"
     inkscape:window-maximized="1"
     inkscape:current-layer="svg73" />
  <path
     id="path2"
     d="M 50 0 C 36.7424 0.010795982 24.03075 5.28175 14.65625 14.65625 C 5.28182 24.03075 0.010796 36.7425 0 50 C 0.0161821 63.2558 5.2888194 75.964591 14.662109 85.337891 C 24.035409 94.711191 36.7441 99.9838 50 100 C 63.2558 99.9838 75.964591 94.711191 85.337891 85.337891 C 94.711191 75.964591 99.9839 63.2558 100 50 C 99.9893 36.7425 94.71825 24.03075 85.34375 14.65625 C 75.96925 5.28175 63.2575 0.010795982 50 0 z M 49.449219 9.703125 L 54.21875 10.089844 C 54.81935 10.130844 55.397825 10.335941 55.890625 10.681641 C 56.371725 11.008941 56.746903 11.468759 56.970703 12.005859 C 57.225003 12.596159 57.322959 13.241659 57.255859 13.880859 C 57.211359 14.522159 57.016147 15.144013 56.685547 15.695312 C 56.372347 16.193213 55.929044 16.595522 55.402344 16.857422 C 54.860744 17.106722 54.264122 17.210909 53.669922 17.162109 L 50.896484 16.9375 L 50.632812 20.404297 L 48.615234 20.240234 L 49.449219 9.703125 z M 40.623047 10.701172 L 44.578125 20.505859 L 42.703125 21.259766 L 39.951172 14.472656 L 39.685547 14.472656 L 40.154297 22.177734 L 38.115234 22.972656 L 33.101562 17.101562 L 32.816406 17.224609 L 35.568359 24.011719 L 33.775391 24.765625 L 29.820312 14.960938 L 32.775391 13.779297 L 37.871094 19.730469 L 38.136719 19.730469 L 37.646484 11.904297 L 40.623047 10.701172 z M 51.304688 11.800781 L 51.060547 15.021484 L 53.730469 15.226562 C 53.977169 15.251163 54.225159 15.201584 54.443359 15.083984 C 54.673559 14.963284 54.864841 14.778234 54.994141 14.552734 C 55.142241 14.305534 55.225781 14.026081 55.238281 13.738281 C 55.296581 13.312881 55.187994 12.881056 54.933594 12.535156 C 54.822794 12.381656 54.679272 12.255662 54.513672 12.164062 C 54.348072 12.072464 54.163409 12.018159 53.974609 12.005859 L 51.304688 11.800781 z M 64.716797 12.453125 L 69.058594 14.65625 C 69.591294 14.92675 70.041881 15.334391 70.363281 15.837891 C 70.673481 16.324891 70.836131 16.89145 70.832031 17.46875 C 70.848831 18.10035 70.701697 18.725703 70.404297 19.283203 C 70.135997 19.827503 69.736388 20.296337 69.242188 20.648438 C 68.795387 20.980038 68.266591 21.182981 67.712891 21.238281 C 67.184891 21.279081 66.655294 21.174394 66.183594 20.933594 L 66.009766 20.84375 L 67.447266 25.683594 L 65.205078 24.5625 L 63.861328 19.792969 L 63.371094 19.546875 L 61.720703 22.789062 L 59.927734 21.871094 L 64.716797 12.453125 z M 65.654297 15.042969 L 64.207031 17.916016 L 66.652344 19.160156 C 66.870544 19.277756 67.120486 19.327334 67.367188 19.302734 C 67.626586 19.274634 67.872878 19.176078 68.080078 19.017578 C 68.312778 18.852378 68.495275 18.626834 68.609375 18.365234 C 68.821875 17.994634 68.881337 17.555878 68.773438 17.142578 C 68.733036 16.963778 68.653816 16.796844 68.541016 16.652344 C 68.428316 16.507944 68.284694 16.389241 68.121094 16.306641 L 65.654297 15.042969 z M 23.429688 22.126953 C 23.767448 22.129483 24.106416 22.166019 24.439453 22.238281 C 25.389653 22.455481 26.271914 22.903669 27.007812 23.542969 C 27.763613 24.162369 28.35105 24.959834 28.71875 25.865234 C 29.04515 26.715134 29.145259 27.637409 29.005859 28.537109 C 28.847059 29.426509 28.451881 30.256106 27.863281 30.941406 C 27.282781 31.637706 26.521009 32.159219 25.662109 32.449219 C 24.811209 32.748919 23.893019 32.806381 23.011719 32.613281 C 22.052219 32.404981 21.162128 31.955994 20.423828 31.308594 C 19.667528 30.694294 19.084822 29.892775 18.732422 28.984375 C 18.387422 28.146175 18.288666 27.226384 18.447266 26.333984 C 18.593466 25.434584 18.988091 24.596056 19.587891 23.910156 C 20.156991 23.210456 20.914031 22.685891 21.769531 22.400391 C 22.305781 22.213328 22.866753 22.122736 23.429688 22.126953 z M 80.126953 23.5625 L 81.960938 25.826172 L 76.111328 35.384766 L 74.724609 33.693359 L 76.0625 31.574219 L 73.234375 28.164062 L 70.953125 29.005859 L 69.568359 27.292969 L 80.126953 23.5625 z M 23.226562 24.087891 C 22.949013 24.087891 22.670891 24.123562 22.400391 24.195312 C 21.878791 24.366312 21.413087 24.675997 21.054688 25.091797 C 20.696987 25.515997 20.465013 26.031378 20.382812 26.580078 C 20.295313 27.140478 20.373622 27.713669 20.607422 28.230469 C 20.861222 28.806369 21.244916 29.31595 21.728516 29.71875 C 22.208716 30.12725 22.771406 30.426803 23.378906 30.595703 C 23.926806 30.739003 24.502781 30.739003 25.050781 30.595703 C 25.581381 30.432603 26.050784 30.112134 26.396484 29.677734 C 26.757284 29.263434 26.990059 28.754736 27.068359 28.210938 C 27.143659 27.650437 27.06585 27.078694 26.84375 26.558594 C 26.59595 25.979194 26.211256 25.468312 25.722656 25.070312 C 25.241756 24.651512 24.670734 24.352714 24.052734 24.195312 C 23.782234 24.123562 23.504113 24.087891 23.226562 24.087891 z M 79.291016 25.927734 L 75.029297 27.5 L 77.066406 29.984375 L 79.474609 26.171875 L 79.291016 25.927734 z M 49.939453 29.759766 C 50.069153 29.759766 50.193456 29.810644 50.285156 29.902344 C 50.376956 29.994144 50.427734 30.118347 50.427734 30.248047 L 50.427734 32.490234 C 50.427734 32.620034 50.376956 32.744236 50.285156 32.835938 C 50.193456 32.927737 50.069153 32.980469 49.939453 32.980469 C 49.876053 32.980469 49.812206 32.968159 49.753906 32.943359 C 49.695706 32.918459 49.643409 32.881636 49.599609 32.835938 C 49.555809 32.790236 49.5223 32.735081 49.5 32.675781 C 49.4777 32.616581 49.46595 32.553534 49.46875 32.490234 L 49.46875 30.248047 C 49.46595 30.184747 49.4777 30.1217 49.5 30.0625 C 49.5223 30.0032 49.555809 29.950097 49.599609 29.904297 C 49.643409 29.858597 49.695706 29.821675 49.753906 29.796875 C 49.812206 29.772075 49.876053 29.759766 49.939453 29.759766 z M 45.615234 30.912109 C 45.661945 30.909545 45.708306 30.914381 45.753906 30.925781 C 45.814806 30.940981 45.871775 30.968159 45.921875 31.005859 C 45.971975 31.043459 46.013422 31.092284 46.044922 31.146484 L 47.146484 33.265625 C 47.181884 33.319325 47.204944 33.379859 47.214844 33.443359 C 47.224744 33.506859 47.220525 33.570912 47.203125 33.632812 C 47.185725 33.694613 47.154781 33.753734 47.113281 33.802734 C 47.071781 33.851834 47.020991 33.890569 46.962891 33.917969 C 46.890791 33.946369 46.810281 33.946369 46.738281 33.917969 C 46.652781 33.913269 46.570394 33.888203 46.496094 33.845703 C 46.421794 33.803303 46.358047 33.745128 46.310547 33.673828 L 45.208984 31.634766 C 45.173684 31.581066 45.150525 31.520531 45.140625 31.457031 C 45.130825 31.393531 45.134944 31.329378 45.152344 31.267578 C 45.169744 31.205678 45.200688 31.146756 45.242188 31.097656 C 45.283686 31.048656 45.334478 31.009822 45.392578 30.982422 C 45.445878 30.949422 45.506359 30.927669 45.568359 30.917969 C 45.583834 30.915544 45.599664 30.912964 45.615234 30.912109 z M 54.763672 31.210938 C 54.858767 31.209652 54.953856 31.236937 55.035156 31.289062 C 55.122156 31.356963 55.183084 31.451294 55.208984 31.558594 C 55.234884 31.665894 55.224234 31.778706 55.177734 31.878906 L 53.933594 33.753906 C 53.889594 33.822106 53.829012 33.878769 53.757812 33.917969 C 53.686613 33.957069 53.606691 33.977916 53.525391 33.978516 C 53.438291 33.999316 53.348819 33.999316 53.261719 33.978516 C 53.154319 33.907716 53.077481 33.797875 53.050781 33.671875 C 53.024081 33.545975 53.049641 33.414941 53.119141 33.306641 L 54.361328 31.431641 C 54.432128 31.324141 54.543922 31.247403 54.669922 31.220703 C 54.701397 31.214028 54.731973 31.211366 54.763672 31.210938 z M 42.304688 34.050781 C 42.33665 34.049506 42.368641 34.051641 42.400391 34.056641 C 42.463891 34.066541 42.525278 34.087594 42.580078 34.121094 L 44.619141 35.263672 C 44.712841 35.326172 44.780647 35.418844 44.810547 35.527344 C 44.840547 35.635944 44.82965 35.751816 44.78125 35.853516 C 44.74305 35.928416 44.685381 35.991856 44.613281 36.035156 C 44.541181 36.078356 44.457047 36.099156 44.373047 36.097656 C 44.292547 36.115956 44.209406 36.115956 44.128906 36.097656 L 42.089844 34.9375 C 42.033944 34.9078 41.985014 34.865706 41.945312 34.816406 C 41.905612 34.767106 41.876475 34.711391 41.859375 34.650391 C 41.842175 34.589391 41.837503 34.525691 41.845703 34.462891 C 41.853803 34.400191 41.876003 34.339756 41.908203 34.285156 C 41.941603 34.230256 41.985209 34.182431 42.037109 34.144531 C 42.089009 34.106531 42.146484 34.079553 42.208984 34.064453 C 42.240184 34.056853 42.272725 34.052056 42.304688 34.050781 z M 57.703125 34.572266 C 57.76515 34.571466 57.827819 34.582719 57.886719 34.605469 C 58.004519 34.651069 58.099044 34.740969 58.152344 34.855469 C 58.210244 34.969269 58.221694 35.100756 58.183594 35.222656 C 58.145494 35.344456 58.061519 35.447212 57.949219 35.507812 L 55.910156 36.527344 C 55.836956 36.548244 55.7608 36.548244 55.6875 36.527344 C 55.5983 36.528444 55.509394 36.503931 55.433594 36.457031 C 55.357694 36.410131 55.296613 36.342019 55.257812 36.261719 C 55.230313 36.205619 55.214537 36.144331 55.210938 36.082031 C 55.207337 36.019631 55.217481 35.957237 55.238281 35.898438 C 55.259181 35.839537 55.291884 35.786334 55.333984 35.740234 C 55.376084 35.694034 55.425722 35.655106 55.482422 35.628906 L 57.521484 34.611328 C 57.579784 34.586978 57.6411 34.573066 57.703125 34.572266 z M 49.876953 34.896484 C 50.958153 34.896484 51.995266 35.325344 52.759766 36.089844 C 53.524366 36.854444 53.953125 37.891456 53.953125 38.972656 C 53.953125 40.053856 53.524366 41.090869 52.759766 41.855469 C 51.995266 42.619969 50.958153 43.048828 49.876953 43.048828 C 48.795753 43.048828 47.758641 42.619969 46.994141 41.855469 C 46.229541 41.090869 45.800781 40.053856 45.800781 38.972656 C 45.800781 37.891456 46.229541 36.854444 46.994141 36.089844 C 47.758641 35.325344 48.795753 34.896484 49.876953 34.896484 z M 87.484375 35.324219 L 88.789062 39.992188 C 88.951162 40.565188 88.951163 41.171041 88.789062 41.744141 C 88.636363 42.304141 88.332809 42.812891 87.912109 43.212891 C 87.444709 43.644291 86.877919 43.952075 86.261719 44.109375 C 85.680319 44.261375 85.069681 44.261375 84.488281 44.109375 C 83.942681 43.999275 83.435031 43.7454 83.019531 43.375 C 82.621331 43.0249 82.338178 42.564081 82.205078 42.050781 L 82.148438 41.841797 L 79.554688 46.1875 L 78.882812 43.783203 L 81.451172 39.564453 L 81.308594 39.033203 L 77.822266 40.011719 L 77.292969 38.158203 L 87.484375 35.324219 z M 16.271484 35.662109 C 16.358066 35.662478 16.4446 35.665109 16.53125 35.669922 L 16 37.708984 C 15.6331 37.729184 15.274706 37.819709 14.941406 37.974609 C 14.574506 38.130909 14.252506 38.3757 14.003906 38.6875 C 13.720206 39.0164 13.517009 39.406625 13.412109 39.828125 C 13.248709 40.359425 13.248709 40.927684 13.412109 41.458984 C 13.568809 42.004684 13.879994 42.493034 14.308594 42.865234 C 14.788794 43.269234 15.352084 43.563056 15.958984 43.722656 C 16.574984 43.873856 17.219938 43.873856 17.835938 43.722656 C 18.394037 43.619356 18.908966 43.35785 19.322266 42.96875 C 19.715266 42.58965 19.998272 42.109731 20.138672 41.582031 C 20.364972 40.970431 20.364972 40.297147 20.138672 39.685547 C 19.893672 39.152747 19.486863 38.710675 18.976562 38.421875 L 19.505859 36.384766 C 20.140059 36.692466 20.703803 37.128969 21.158203 37.667969 C 21.652303 38.255769 21.99455 38.956331 22.15625 39.707031 C 22.30805 40.459331 22.267156 41.23715 22.035156 41.96875 C 21.810256 42.85275 21.344053 43.657669 20.689453 44.292969 C 20.043253 44.927269 19.230803 45.365441 18.345703 45.556641 C 17.403103 45.800041 16.413203 45.800041 15.470703 45.556641 C 14.520103 45.311841 13.643875 44.834922 12.921875 44.169922 C 12.261975 43.548222 11.784309 42.759019 11.537109 41.886719 C 11.292709 41.013419 11.292709 40.090097 11.537109 39.216797 C 11.739509 38.451897 12.131334 37.751888 12.677734 37.179688 C 13.187534 36.651288 13.807087 36.240364 14.492188 35.976562 C 15.062163 35.766388 15.66541 35.659527 16.271484 35.662109 z M 49.779297 35.792969 C 49.410359 35.8043 49.046912 35.880991 48.703125 36.017578 C 48.310225 36.173778 47.952191 36.407025 47.650391 36.703125 C 47.348591 36.999225 47.108913 37.352387 46.945312 37.742188 C 46.781714 38.132088 46.697166 38.549856 46.697266 38.972656 C 46.697266 39.815956 47.032606 40.624403 47.628906 41.220703 C 48.225206 41.817003 49.033653 42.152344 49.876953 42.152344 C 50.720353 42.152344 51.530653 41.817003 52.126953 41.220703 C 52.723253 40.624403 53.056641 39.815956 53.056641 38.972656 C 53.056641 38.129356 52.723253 37.321009 52.126953 36.724609 C 51.530653 36.128309 50.720353 35.792969 49.876953 35.792969 C 49.84476 35.792979 49.811434 35.791982 49.779297 35.792969 z M 86.201172 37.810547 L 83.101562 38.666016 L 83.855469 41.275391 C 83.911869 41.512191 84.040256 41.725519 84.222656 41.886719 C 84.421556 42.057619 84.659916 42.177775 84.916016 42.234375 C 85.191516 42.292075 85.476353 42.292075 85.751953 42.234375 C 86.168253 42.130875 86.531784 41.877284 86.771484 41.521484 C 86.872184 41.366484 86.938697 41.190613 86.966797 41.007812 C 86.994897 40.825114 86.983094 40.639136 86.933594 40.460938 L 86.201172 37.810547 z M 41.214844 38.421875 L 43.476562 38.421875 C 43.538163 38.421875 43.59945 38.433431 43.65625 38.457031 C 43.71315 38.480531 43.765094 38.516947 43.808594 38.560547 C 43.852094 38.604047 43.886656 38.654038 43.910156 38.710938 C 43.933756 38.767837 43.945312 38.829025 43.945312 38.890625 C 43.945312 39.020325 43.894534 39.144628 43.802734 39.236328 C 43.711034 39.328128 43.586831 39.380859 43.457031 39.380859 L 41.193359 39.380859 C 41.130059 39.380859 41.068066 39.366597 41.009766 39.341797 C 40.951566 39.316997 40.899269 39.282128 40.855469 39.236328 C 40.811669 39.190628 40.776206 39.135472 40.753906 39.076172 C 40.731506 39.016872 40.721809 38.953825 40.724609 38.890625 C 40.729809 38.764425 40.7839 38.645994 40.875 38.558594 C 40.9662 38.471194 41.088544 38.421775 41.214844 38.421875 z M 56.400391 38.830078 L 58.662109 38.830078 C 58.788209 38.840478 58.906634 38.899041 58.990234 38.994141 C 59.073934 39.089141 59.117028 39.213344 59.111328 39.339844 C 59.106028 39.460544 59.054197 39.574603 58.966797 39.658203 C 58.879497 39.741703 58.763478 39.789164 58.642578 39.789062 L 56.400391 39.789062 C 56.274191 39.778664 56.157919 39.718147 56.074219 39.623047 C 55.990619 39.528047 55.945472 39.405797 55.951172 39.279297 C 55.956172 39.161997 56.004791 39.049797 56.087891 38.966797 C 56.170891 38.883797 56.283091 38.835078 56.400391 38.830078 z M 44.263672 41.630859 C 44.312736 41.633025 44.362078 41.642831 44.408203 41.660156 C 44.469603 41.683156 44.525466 41.719525 44.572266 41.765625 C 44.619066 41.811625 44.655588 41.866634 44.679688 41.927734 C 44.739187 42.039134 44.75295 42.169416 44.71875 42.291016 C 44.68455 42.412516 44.604994 42.516078 44.496094 42.580078 L 42.457031 43.660156 L 42.234375 43.660156 C 42.146975 43.665656 42.058422 43.647016 41.982422 43.603516 C 41.906322 43.560016 41.846241 43.494116 41.806641 43.416016 C 41.747041 43.304616 41.731425 43.174334 41.765625 43.052734 C 41.799825 42.931234 41.879481 42.827672 41.988281 42.763672 L 44.027344 41.683594 C 44.085644 41.653394 44.149344 41.636713 44.214844 41.632812 C 44.231244 41.631839 44.247317 41.630137 44.263672 41.630859 z M 55.4375 41.949219 C 55.453441 41.949286 55.46845 41.949472 55.484375 41.951172 C 55.547975 41.957872 55.610216 41.978266 55.666016 42.009766 L 57.5625 43.212891 C 57.67 43.283691 57.744784 43.393631 57.771484 43.519531 C 57.798184 43.645531 57.774578 43.776466 57.705078 43.884766 C 57.663378 43.948966 57.604909 44.001409 57.537109 44.037109 C 57.469309 44.072809 57.393006 44.089791 57.316406 44.087891 C 57.229306 44.108691 57.139834 44.108691 57.052734 44.087891 L 55.15625 42.865234 C 55.10375 42.832134 55.059038 42.789181 55.023438 42.738281 C 54.987738 42.687481 54.962519 42.631012 54.949219 42.570312 C 54.935919 42.509612 54.934112 42.445866 54.945312 42.384766 C 54.956513 42.323666 54.979772 42.264991 55.013672 42.212891 C 55.041572 42.155291 55.080406 42.1042 55.128906 42.0625 C 55.177506 42.0207 55.235675 41.989803 55.296875 41.970703 C 55.3427 41.956378 55.389678 41.949017 55.4375 41.949219 z M 46.513672 43.964844 C 46.606039 43.9598 46.697547 43.981369 46.779297 44.027344 C 46.834197 44.060744 46.882022 44.10435 46.919922 44.15625 C 46.957922 44.20815 46.9849 44.267578 47 44.330078 C 47.0152 44.392478 47.017713 44.457984 47.007812 44.521484 C 46.997813 44.584984 46.976859 44.646272 46.943359 44.701172 L 45.759766 46.617188 C 45.715766 46.685487 45.657137 46.740197 45.585938 46.779297 C 45.514736 46.818497 45.434816 46.839244 45.353516 46.839844 C 45.273316 46.860544 45.187722 46.860544 45.107422 46.839844 C 45.043722 46.806944 44.989112 46.761878 44.945312 46.705078 C 44.901512 46.648278 44.870969 46.581719 44.855469 46.511719 C 44.839869 46.441719 44.839769 46.368828 44.855469 46.298828 C 44.871069 46.228828 44.901412 46.164222 44.945312 46.107422 L 46.126953 44.191406 C 46.194253 44.086006 46.300575 44.008916 46.421875 43.978516 C 46.4522 43.970941 46.482883 43.966525 46.513672 43.964844 z M 52.9375 44.244141 C 53.0027 44.241641 53.068806 44.253997 53.128906 44.279297 C 53.189106 44.304497 53.243209 44.342425 53.287109 44.390625 C 53.331109 44.438825 53.363214 44.496394 53.382812 44.558594 L 54.443359 46.595703 C 54.474459 46.649903 54.4935 46.711238 54.5 46.773438 C 54.5066 46.835537 54.499669 46.897531 54.480469 46.957031 C 54.461269 47.016531 54.430272 47.070487 54.388672 47.117188 C 54.346972 47.163788 54.295281 47.202716 54.238281 47.228516 C 54.165081 47.249516 54.088925 47.249516 54.015625 47.228516 C 53.929425 47.227316 53.844331 47.202856 53.769531 47.160156 C 53.694631 47.117356 53.632691 47.056122 53.587891 46.982422 L 52.546875 44.945312 C 52.515375 44.889514 52.497034 44.827372 52.490234 44.763672 C 52.483534 44.699972 52.488712 44.635419 52.507812 44.574219 C 52.526913 44.513119 52.557809 44.456703 52.599609 44.408203 C 52.641409 44.359703 52.694353 44.320969 52.751953 44.292969 C 52.810053 44.263369 52.8723 44.246541 52.9375 44.244141 z M 49.673828 44.986328 C 49.736228 44.986128 49.798169 44.998438 49.855469 45.023438 C 49.912669 45.048437 49.963659 45.084759 50.005859 45.130859 C 50.048059 45.176859 50.079609 45.231816 50.099609 45.291016 C 50.119609 45.350216 50.126794 45.412409 50.121094 45.474609 L 50.121094 47.736328 C 50.110894 47.858928 50.055444 47.973541 49.964844 48.056641 C 49.874144 48.139741 49.755812 48.186047 49.632812 48.185547 C 49.570414 48.185847 49.508472 48.173437 49.451172 48.148438 C 49.393972 48.123336 49.342981 48.087016 49.300781 48.041016 C 49.258581 47.994916 49.227031 47.940059 49.207031 47.880859 C 49.187031 47.821659 49.177894 47.759466 49.183594 47.697266 L 49.183594 45.455078 C 49.188794 45.328878 49.242784 45.208494 49.333984 45.121094 C 49.425084 45.033794 49.547528 44.986228 49.673828 44.986328 z M 68.732422 46.921875 C 68.794622 46.916275 68.856816 46.923359 68.916016 46.943359 C 68.975216 46.963359 69.030072 46.996862 69.076172 47.039062 C 69.122172 47.081263 69.158594 47.132153 69.183594 47.189453 C 69.208594 47.246653 69.220903 47.308594 69.220703 47.371094 C 69.226403 47.433294 69.219219 47.495488 69.199219 47.554688 C 69.179219 47.613886 69.147669 47.668744 69.105469 47.714844 C 69.063269 47.760844 69.012378 47.797266 68.955078 47.822266 C 68.897878 47.847366 68.835938 47.859575 68.773438 47.859375 C 61.186337 48.501975 53.770228 50.469422 46.861328 53.669922 C 48.369628 54.179522 49.918997 54.749175 51.529297 55.421875 C 57.014597 53.077275 62.784706 51.467613 68.691406 50.632812 C 68.814006 50.625413 68.935803 50.661428 69.033203 50.736328 C 69.130503 50.811228 69.196303 50.918664 69.220703 51.039062 C 69.238303 51.165963 69.207059 51.295538 69.130859 51.398438 C 69.054559 51.501337 68.940953 51.569744 68.814453 51.589844 C 63.291753 52.362644 57.886769 53.827472 52.730469 55.951172 C 54.035069 56.562672 55.422494 57.236034 56.808594 57.990234 C 60.618094 56.502734 64.553259 55.363138 68.568359 54.585938 C 68.695359 54.562036 68.826594 54.589609 68.933594 54.662109 C 69.040494 54.734709 69.115925 54.845856 69.140625 54.972656 C 69.158725 55.096556 69.128641 55.223772 69.056641 55.326172 C 68.984641 55.428572 68.874653 55.498638 68.751953 55.523438 C 65.055353 56.235038 61.427403 57.265062 57.908203 58.601562 C 59.110903 59.294563 60.334509 60.04875 61.537109 60.84375 C 63.820009 60.13035 66.164028 59.397741 68.548828 58.806641 C 68.611728 58.791541 68.676334 58.788528 68.740234 58.798828 C 68.804134 58.809128 68.866975 58.831134 68.921875 58.865234 C 68.976875 58.899334 69.022947 58.945447 69.060547 58.998047 C 69.098147 59.050747 69.126225 59.108775 69.140625 59.171875 C 69.165925 59.293175 69.144378 59.419491 69.080078 59.525391 C 69.015778 59.631391 68.912269 59.710641 68.792969 59.744141 C 66.591569 60.274141 64.553925 60.905741 62.515625 61.619141 C 64.828625 63.259341 67.003078 65.086531 69.017578 67.082031 C 69.103578 67.172831 69.152344 67.292869 69.152344 67.417969 C 69.152344 67.543069 69.103578 67.663106 69.017578 67.753906 C 68.972678 67.800206 68.919075 67.836828 68.859375 67.861328 C 68.799775 67.885928 68.736375 67.897784 68.671875 67.896484 C 68.567575 67.873884 68.47345 67.817275 68.40625 67.734375 C 53.28195 52.528475 31.614825 51.427734 31.390625 51.427734 C 31.328125 51.428034 31.266284 51.413672 31.208984 51.388672 C 31.151784 51.363572 31.100794 51.32735 31.058594 51.28125 C 31.016294 51.23525 30.982791 51.180294 30.962891 51.121094 C 30.942891 51.061894 30.935706 50.9997 30.941406 50.9375 C 30.946706 50.8113 31.000597 50.692869 31.091797 50.605469 C 31.182997 50.518169 31.305341 50.46865 31.431641 50.46875 C 36.216441 50.85585 40.940925 51.785134 45.515625 53.240234 C 52.798625 49.720434 60.670222 47.578675 68.732422 46.921875 z M 13.738281 52.324219 C 14.830281 52.324219 15.714844 53.208781 15.714844 54.300781 C 15.714844 55.392781 14.830281 56.277344 13.738281 56.277344 C 12.646281 56.277344 11.761719 55.392781 11.761719 54.300781 C 11.761719 53.208781 12.646281 52.324219 13.738281 52.324219 z M 85.650391 52.324219 C 86.742391 52.324219 87.626953 53.208781 87.626953 54.300781 C 87.626953 55.392781 86.742391 56.277344 85.650391 56.277344 C 84.558491 56.277344 83.673828 55.392781 83.673828 54.300781 C 83.673828 53.208781 84.558491 52.324219 85.650391 52.324219 z M 31.378906 54.296875 C 31.409844 54.29505 31.441806 54.296531 31.472656 54.300781 C 42.581156 55.756981 53.095328 60.162947 61.923828 67.060547 C 62.009828 67.151447 62.058594 67.271384 62.058594 67.396484 C 62.058594 67.521584 62.009828 67.643575 61.923828 67.734375 C 61.821428 67.837775 61.682709 67.895484 61.537109 67.896484 C 61.460409 67.883684 61.388231 67.848622 61.332031 67.794922 C 52.631831 61.021522 42.282009 56.694366 31.349609 55.259766 C 31.223209 55.239666 31.109403 55.169206 31.033203 55.066406 C 30.957003 54.963506 30.923806 54.835784 30.941406 54.708984 C 30.948906 54.647184 30.9692 54.587303 31 54.533203 C 31.0309 54.479103 31.071694 54.430478 31.121094 54.392578 C 31.170394 54.354678 31.227009 54.3284 31.287109 54.3125 C 31.317209 54.30455 31.347969 54.2987 31.378906 54.296875 z M 31.255859 58.246094 C 31.287053 58.246173 31.318559 58.249734 31.349609 58.255859 C 39.305909 59.748959 46.911784 62.720931 53.771484 67.019531 C 53.878984 67.090331 53.953769 67.200272 53.980469 67.326172 C 54.007169 67.452072 53.983562 67.585059 53.914062 67.693359 C 53.869062 67.759259 53.807728 67.811956 53.736328 67.847656 C 53.665028 67.883356 53.585559 67.899984 53.505859 67.896484 C 53.386859 67.909384 53.267556 67.888638 53.160156 67.835938 C 46.437656 63.597637 38.975416 60.665459 31.166016 59.193359 C 31.041616 59.164059 30.933028 59.088122 30.861328 58.982422 C 30.789628 58.876722 30.760497 58.749447 30.779297 58.623047 C 30.808497 58.499947 30.883734 58.392619 30.990234 58.324219 C 31.070034 58.272919 31.162278 58.245855 31.255859 58.246094 z M 31.357422 62.361328 C 31.388689 62.362016 31.420172 62.366547 31.451172 62.373047 C 35.915872 63.457247 40.254331 65.008 44.394531 67 C 44.505331 67.0569 44.591113 67.154084 44.632812 67.271484 C 44.674513 67.388984 44.669241 67.516859 44.619141 67.630859 C 44.573541 67.709959 44.508187 67.775866 44.429688 67.822266 C 44.351087 67.868666 44.261222 67.894684 44.169922 67.896484 L 43.966797 67.896484 C 39.895997 65.917784 35.624462 64.380547 31.226562 63.310547 C 31.163462 63.296147 31.103481 63.270022 31.050781 63.232422 C 30.998181 63.194822 30.954022 63.146797 30.919922 63.091797 C 30.885822 63.036897 30.863816 62.976009 30.853516 62.912109 C 30.843216 62.848309 30.844275 62.78175 30.859375 62.71875 C 30.897175 62.59785 30.978591 62.495741 31.087891 62.431641 C 31.169866 62.383641 31.26362 62.359266 31.357422 62.361328 z M 27.130859 71.177734 L 29.167969 73.216797 L 24.357422 83.408203 L 22.808594 81.859375 L 23.886719 79.675781 L 20.732422 76.539062 L 18.548828 77.619141 L 16.939453 76.009766 L 27.130859 71.177734 z M 72.21875 71.972656 L 82.164062 77.130859 L 80.554688 78.617188 L 78.455078 77.490234 L 75.160156 80.546875 L 76.152344 82.775391 L 74.623047 84.203125 L 70.179688 74.011719 L 72.21875 71.972656 z M 26.539062 73.664062 L 22.433594 75.695312 L 24.720703 77.982422 L 26.742188 73.888672 L 26.539062 73.664062 z M 72.728516 74.419922 L 72.523438 74.623047 L 74.392578 78.820312 L 76.789062 76.597656 L 72.728516 74.419922 z M 35.837891 78.169922 C 36.515338 78.175317 37.187522 78.319406 37.810547 78.597656 C 38.523747 78.887256 39.1495 79.357591 39.625 79.962891 C 40.0824 80.507291 40.409031 81.148191 40.582031 81.837891 C 40.751531 82.503391 40.793778 83.195953 40.705078 83.876953 L 38.808594 83.041016 C 38.783694 82.497116 38.615713 81.969019 38.320312 81.511719 C 38.003012 81.037419 37.558709 80.663041 37.037109 80.431641 C 36.524909 80.207241 35.96005 80.129231 35.40625 80.207031 C 34.85125 80.288631 34.328084 80.522559 33.896484 80.880859 C 33.409984 81.292659 33.033175 81.816203 32.796875 82.408203 C 32.523275 82.979503 32.396787 83.611541 32.429688 84.244141 C 32.462587 84.805341 32.644984 85.3462 32.958984 85.8125 C 33.273284 86.2798 33.721741 86.643316 34.244141 86.853516 C 34.691341 87.054516 35.181322 87.138256 35.669922 87.097656 C 36.109122 87.068356 36.535863 86.936138 36.914062 86.710938 C 37.234462 86.523538 37.5001 86.256047 37.6875 85.935547 L 37.728516 85.873047 L 35.40625 84.855469 L 35.976562 83.509766 L 40.052734 85.324219 L 37.832031 90.398438 L 36.445312 89.787109 L 36.791016 88.626953 C 36.482116 88.759053 36.162284 88.860341 35.833984 88.931641 C 35.448484 88.983941 35.057375 88.983941 34.671875 88.931641 C 34.233475 88.878541 33.806803 88.754353 33.408203 88.564453 C 32.591903 88.199053 31.887341 87.623431 31.369141 86.894531 C 30.838741 86.159031 30.522625 85.290819 30.453125 84.386719 C 30.367225 83.409219 30.534806 82.426303 30.941406 81.533203 C 31.312806 80.630203 31.918813 79.842 32.695312 79.25 C 33.402513 78.6771 34.256256 78.317138 35.160156 78.210938 C 35.385681 78.181512 35.612075 78.168123 35.837891 78.169922 z M 63.578125 78.558594 C 63.726873 78.561558 63.875436 78.574306 64.023438 78.597656 C 64.600938 78.683856 65.139766 78.939731 65.572266 79.332031 C 66.046466 79.746231 66.411214 80.270075 66.632812 80.859375 C 66.862014 81.420575 66.945653 82.030513 66.876953 82.632812 C 66.830153 83.178713 66.633041 83.702478 66.306641 84.142578 C 66.003841 84.576978 65.578184 84.909609 65.083984 85.099609 L 64.869141 85.189453 L 69.445312 87.322266 L 67.123047 88.238281 L 62.658203 86.201172 L 62.167969 86.404297 L 63.472656 89.767578 L 61.597656 90.400391 L 57.746094 80.574219 L 62.271484 78.800781 C 62.687509 78.630756 63.13188 78.549702 63.578125 78.558594 z M 63.421875 80.535156 C 63.235075 80.535156 63.051713 80.57645 62.882812 80.65625 L 60.314453 81.654297 L 61.496094 84.652344 L 64.064453 83.570312 C 64.284353 83.482112 64.475534 83.334078 64.615234 83.142578 C 64.773634 82.937078 64.864706 82.688788 64.878906 82.429688 C 64.918006 82.138486 64.876812 81.842819 64.757812 81.574219 C 64.622613 81.176519 64.337391 80.84665 63.962891 80.65625 C 63.793991 80.57645 63.608675 80.535156 63.421875 80.535156 z M 49.876953 81.064453 C 50.782753 81.058853 51.672213 81.305344 52.445312 81.777344 C 53.214512 82.290244 53.839466 82.992906 54.259766 83.816406 C 54.702566 84.686306 54.918825 85.653106 54.890625 86.628906 C 54.881925 87.610206 54.637734 88.574606 54.177734 89.441406 C 53.732734 90.229106 53.085534 90.884391 52.302734 91.337891 C 51.515734 91.788091 50.621144 92.013834 49.714844 91.990234 C 48.805844 91.998634 47.913784 91.743259 47.146484 91.255859 C 46.362784 90.759659 45.734031 90.052697 45.332031 89.216797 C 44.885031 88.348397 44.666519 87.380497 44.699219 86.404297 C 44.696019 85.427997 44.942963 84.466428 45.414062 83.611328 C 45.859063 82.823628 46.506263 82.170297 47.289062 81.716797 C 48.076062 81.266597 48.970653 81.040853 49.876953 81.064453 z M 49.816406 83.060547 C 49.263606 83.054747 48.719394 83.204534 48.246094 83.490234 C 47.757994 83.782134 47.362969 84.205791 47.105469 84.712891 C 46.808969 85.270691 46.661834 85.895844 46.677734 86.527344 C 46.656234 87.161144 46.788553 87.790228 47.064453 88.361328 C 47.297453 88.871028 47.672431 89.301616 48.144531 89.603516 C 48.621311 89.905796 49.174053 90.068109 49.738281 90.072266 C 50.276122 90.071125 50.8035 89.923551 51.263672 89.644531 C 51.747172 89.346931 52.140697 88.924675 52.404297 88.421875 C 52.692297 87.860075 52.846516 87.238622 52.853516 86.607422 C 52.868616 85.974122 52.734744 85.346536 52.464844 84.773438 C 52.223444 84.262938 51.842634 83.83285 51.365234 83.53125 C 50.901634 83.23585 50.366006 83.071747 49.816406 83.060547 z "
     style="fill:#000000" />
  <defs
     id="defs71">
    <clipPath
       id="clip0">
      <rect
         width="100"
         height="100"
         fill="white"
         id="rect68" />
    </clipPath>
  </defs>
</svg>
