<svg width="100" height="100" viewBox="0 0 100 100" fill="none" xmlns="http://www.w3.org/2000/svg">
<g clip-path="url(#clip0)">
<path d="M50.0001 99.9999C36.7442 99.9837 24.0359 94.7108 14.6626 85.3375C5.28931 75.9642 0.0161821 63.2559 0 50.0001C0.010796 36.7426 5.28217 24.0312 14.6566 14.6567C24.0311 5.2822 36.7425 0.0108265 50.0001 3.05176e-05C63.2576 0.0108265 75.969 5.2822 85.3435 14.6567C94.718 24.0312 99.9893 36.7426 100 50.0001C99.9839 63.2559 94.7108 75.9642 85.3375 85.3375C75.9642 94.7108 63.2559 99.9837 50.0001 99.9999Z" fill="#EDDFD0"/>
<path d="M22.0342 41.9691C21.8093 42.8531 21.3435 43.6575 20.6889 44.2928C20.0427 44.9271 19.2299 45.3653 18.3448 45.5565C17.4022 45.7999 16.4132 45.7999 15.4707 45.5565C14.5201 45.3117 13.6448 44.8354 12.9228 44.1704C12.2629 43.5487 11.784 42.7598 11.5368 41.8875C11.2924 41.0142 11.2924 40.0907 11.5368 39.2174C11.7392 38.4525 12.1318 37.7513 12.6782 37.1791C13.188 36.6507 13.8072 36.2403 14.4923 35.9765C15.1437 35.7363 15.8374 35.6322 16.5306 35.6707L16.0006 37.7091C15.6337 37.7293 15.274 37.8192 14.9407 37.9741C14.5738 38.1304 14.2517 38.3756 14.0031 38.6874C13.7194 39.0163 13.5168 39.4072 13.4119 39.8287C13.2485 40.36 13.2485 40.9282 13.4119 41.4595C13.5686 42.0052 13.8803 42.4939 14.3089 42.8661C14.7891 43.2701 15.3529 43.5624 15.9598 43.722C16.5758 43.8732 17.2192 43.8732 17.8352 43.722C18.3933 43.6187 18.9098 43.3569 19.3231 42.9678C19.7161 42.5887 19.9981 42.1096 20.1385 41.5819C20.3648 40.9703 20.3648 40.2978 20.1385 39.6862C19.8935 39.1534 19.4871 38.7112 18.9768 38.4224L19.5065 36.3841C20.1407 36.6918 20.7033 37.1293 21.1577 37.6683C21.6518 38.2561 21.9947 38.9559 22.1564 39.7066C22.3082 40.4589 22.2662 41.2375 22.0342 41.9691Z" fill="#225439"/>
<path d="M27.8636 30.9415C27.2831 31.6378 26.521 32.1598 25.6621 32.4498C24.8112 32.7495 23.8937 32.8062 23.0124 32.6131C22.0529 32.4048 21.162 31.9559 20.4237 31.3085C19.6674 30.6942 19.0844 29.8932 18.732 28.9848C18.387 28.1466 18.288 27.2273 18.4466 26.3349C18.5928 25.4355 18.9881 24.5953 19.5879 23.9094C20.157 23.2097 20.9136 22.6866 21.7691 22.4011C22.6271 22.1018 23.5511 22.0454 24.4392 22.2381C25.3894 22.4553 26.2716 22.9031 27.0075 23.5424C27.7633 24.1618 28.3519 24.9607 28.7196 25.8661C29.046 26.716 29.1444 27.6367 29.005 28.5364C28.8462 29.4258 28.4522 30.2562 27.8636 30.9415ZM26.3959 29.6778C26.7567 29.2635 26.9904 28.754 27.0687 28.2102C27.144 27.6497 27.0666 27.0794 26.8445 26.5593C26.5967 25.9799 26.2119 25.4691 25.7233 25.0711C25.2424 24.6523 24.67 24.3522 24.052 24.1948C23.511 24.0513 22.9418 24.0513 22.4008 24.1948C21.8792 24.3658 21.4139 24.6757 21.0555 25.0915C20.6978 25.5157 20.4651 26.0308 20.3829 26.5795C20.2954 27.1399 20.3733 27.7138 20.6071 28.2306C20.8609 28.8065 21.2447 29.3158 21.7283 29.7186C22.2085 30.1271 22.7717 30.4263 23.3792 30.5952C23.9271 30.7385 24.5028 30.7385 25.0508 30.5952C25.5814 30.4321 26.0502 30.1122 26.3959 29.6778Z" fill="#225439"/>
<path d="M33.7745 24.7657L29.8203 14.9612L32.7758 13.7791L37.8716 19.7308H38.1366L37.6474 11.9037L40.6235 10.7012L44.5777 20.5054L42.7024 21.2596L39.9507 14.472H39.6857L40.1545 22.177L38.1162 22.9719L33.102 17.1016L32.8166 17.2237L35.5683 24.0115L33.7745 24.7657Z" fill="#225439"/>
<path d="M48.6143 20.2404L49.45 9.70242L54.2196 10.0896C54.8202 10.1306 55.3984 10.3351 55.8912 10.6808C56.3723 11.0081 56.7475 11.4686 56.9713 12.0057C57.2256 12.596 57.3238 13.2416 57.2567 13.8808C57.2122 14.5221 57.0168 15.1437 56.6862 15.695C56.373 16.1929 55.9287 16.595 55.402 16.8569C54.8604 17.1062 54.2635 17.2113 53.6693 17.1625L50.8972 16.9383L50.6322 20.4036L48.6143 20.2404ZM53.7305 15.2262C53.9772 15.2508 54.2256 15.2012 54.4438 15.0836C54.674 14.9629 54.8649 14.7791 54.9942 14.5536C55.1423 14.3064 55.2263 14.0261 55.2388 13.7383C55.2971 13.3129 55.1874 12.8816 54.933 12.5357C54.8222 12.3822 54.6791 12.2551 54.5135 12.1635C54.3479 12.0719 54.1639 12.018 53.9751 12.0057L51.305 11.8017L51.0604 15.0224L53.7305 15.2262Z" fill="#225439"/>
<path d="M59.9268 21.8712L64.7168 12.4541L69.0584 14.6554C69.5911 14.9259 70.0415 15.3343 70.3629 15.8378C70.6731 16.3248 70.8358 16.891 70.8317 17.4683C70.8485 18.0999 70.7011 18.725 70.4037 19.2825C70.1354 19.8268 69.736 20.2961 69.2418 20.6482C68.795 20.9798 68.2667 21.1839 67.713 21.2392C67.185 21.28 66.656 21.1744 66.1843 20.9336L65.6339 20.6482L65.8379 20.2608L67.448 25.6828L65.2059 24.5616L63.8606 19.792L63.3714 19.5474L61.7205 22.7883L59.9268 21.8712ZM66.6531 19.1603C66.8713 19.2779 67.12 19.3275 67.3667 19.3029C67.6261 19.2748 67.8728 19.176 68.08 19.0175C68.3127 18.8523 68.4959 18.6269 68.61 18.3653C68.8225 17.9947 68.8809 17.5557 68.773 17.1424C68.7326 16.9636 68.6531 16.7959 68.5403 16.6514C68.4276 16.507 68.2844 16.3892 68.1208 16.3066L65.6543 15.0428L64.2072 17.9167L66.6531 19.1603Z" fill="#225439"/>
<path d="M69.5679 27.2932L80.1265 23.5629L81.9608 25.8254L76.1108 35.3852L74.7249 33.6935L79.4741 26.172L79.2907 25.9274L70.954 29.0053L69.5679 27.2932ZM72.9516 27.8231L74.3579 26.6816L77.7007 30.7582L76.3148 31.8794L72.9516 27.8231Z" fill="#225439"/>
<path d="M77.293 38.1573L87.4846 35.324L88.7891 39.9919C88.9512 40.5649 88.9512 41.1717 88.7891 41.7448C88.6364 42.3048 88.3332 42.8123 87.9125 43.2123C87.4451 43.6437 86.8776 43.952 86.2614 44.1093C85.68 44.2613 85.0694 44.2613 84.488 44.1093C83.9424 43.9992 83.436 43.7459 83.0205 43.3755C82.6223 43.0254 82.3382 42.5639 82.2051 42.0506L82.0422 41.4594L82.4497 41.3372L79.5555 46.1884L78.8827 43.7831L81.451 39.5639L81.3084 39.0339L77.823 40.0123L77.293 38.1573ZM83.8563 41.276C83.9127 41.5128 84.0407 41.7262 84.2231 41.8874C84.422 42.0583 84.6602 42.1774 84.9163 42.234C85.1918 42.2917 85.4762 42.2917 85.7518 42.234C86.1681 42.1305 86.5313 41.8764 86.771 41.5206C86.8717 41.3656 86.9384 41.1908 86.9665 41.008C86.9946 40.8253 86.9837 40.6388 86.9342 40.4606L86.2004 37.8107L83.1021 38.6669L83.8563 41.276Z" fill="#225439"/>
<path d="M16.9385 76.0088L27.1301 71.178L29.1684 73.2163L24.3577 83.4079L22.8088 81.859L26.7427 73.8891L26.5389 73.6649L18.5486 77.6192L16.9385 76.0088ZM20.3627 76.172L21.6265 74.8879L25.3973 78.6587L24.1336 79.9225L20.3627 76.172Z" fill="#225439"/>
<path d="M33.4079 88.5649C32.5916 88.1995 31.8878 87.6225 31.3696 86.8936C30.8392 86.1581 30.522 85.2906 30.4525 84.3865C30.3666 83.409 30.5351 82.4259 30.9417 81.5328C31.3131 80.6298 31.9181 79.8419 32.6946 79.2499C33.4018 78.677 34.257 78.3165 35.1609 78.2103C36.063 78.0926 36.9801 78.2265 37.8108 78.5975C38.524 78.8871 39.1494 79.3579 39.6249 79.9632C40.0823 80.5076 40.4099 81.1489 40.5829 81.8386C40.7524 82.5041 40.7937 83.1959 40.705 83.8769L38.8095 83.0411C38.7846 82.4972 38.6158 81.9697 38.3204 81.5124C38.0031 81.0381 37.5578 80.6634 37.0362 80.432C36.524 80.2076 35.9593 80.13 35.4055 80.2078C34.8505 80.2894 34.3287 80.5221 33.8971 80.8804C33.4106 81.2922 33.0326 81.8171 32.7963 82.4091C32.5227 82.9804 32.3967 83.6111 32.4296 84.2437C32.4625 84.8049 32.6456 85.3469 32.9596 85.8132C33.2739 86.2805 33.7213 86.6426 34.2437 86.8528C34.6909 87.0538 35.1818 87.138 35.6704 87.0974C36.1096 87.0681 36.5356 86.9352 36.9138 86.71C37.2342 86.5226 37.501 86.2561 37.6884 85.9356L38.0146 85.426L38.1979 86.0782L35.4055 84.8553L35.9762 83.5099L40.0529 85.324L37.8312 90.3994L36.445 89.7878L36.7916 88.6261C36.4827 88.7582 36.1617 88.8606 35.8334 88.9319C35.4479 88.9842 35.0572 88.9842 34.6717 88.9319C34.2333 88.8788 33.8065 88.7548 33.4079 88.5649Z" fill="#225439"/>
<path d="M49.7142 91.9894C48.8052 91.9978 47.9132 91.743 47.1459 91.2556C46.3622 90.7594 45.7337 90.0532 45.3317 89.2173C44.8847 88.3489 44.6673 87.3806 44.7 86.4044C44.6968 85.4281 44.9422 84.467 45.4133 83.6119C45.8583 82.8242 46.5056 82.1696 47.2884 81.7161C48.0754 81.2659 48.9708 81.0404 49.8771 81.064C50.7829 81.0584 51.6723 81.3054 52.4454 81.7774C53.2146 82.2903 53.8393 82.9922 54.2596 83.8157C54.7024 84.6856 54.9198 85.6528 54.8916 86.6286C54.8829 87.6099 54.638 88.5747 54.178 89.4415C53.733 90.2292 53.0857 90.8835 52.3029 91.337C51.5159 91.7872 50.6205 92.013 49.7142 91.9894ZM49.7142 90.0732C50.2602 90.0764 50.7964 89.9283 51.2633 89.6452C51.7468 89.3476 52.141 88.9251 52.4046 88.4223C52.6926 87.8605 52.8463 87.2394 52.8533 86.6082C52.8684 85.9749 52.7357 85.3467 52.4658 84.7736C52.2244 84.2631 51.8425 83.8319 51.3651 83.5303C50.9015 83.2349 50.3658 83.0727 49.8162 83.0615C49.2634 83.0557 48.7199 83.2038 48.2466 83.4895C47.7585 83.7814 47.3626 84.2053 47.1051 84.7124C46.8086 85.2702 46.6612 85.8951 46.6771 86.5266C46.6556 87.1604 46.7884 87.79 47.0643 88.3611C47.2973 88.8708 47.6725 89.3025 48.1446 89.6044C48.6263 89.9098 49.1847 90.0723 49.755 90.0732H49.7142Z" fill="#225439"/>
<path d="M61.5981 90.3995L57.7456 80.5749L62.2709 78.8015C62.8256 78.5748 63.4318 78.5041 64.0238 78.5975C64.6013 78.6837 65.1404 78.939 65.5729 79.3313C66.0471 79.7455 66.4113 80.2707 66.6329 80.86C66.8621 81.4212 66.9462 82.0311 66.8775 82.6334C66.8307 83.1793 66.6331 83.7018 66.3067 84.1419C66.0039 84.5763 65.578 84.9099 65.0838 85.0999L64.4926 85.3445L64.3296 84.9367L69.4455 87.3216L67.1221 88.2387L62.658 86.2004L62.1688 86.4044L63.4734 89.7675L61.5981 90.3995ZM64.0646 83.5711C64.2845 83.4829 64.475 83.3344 64.6147 83.1429C64.7731 82.9374 64.8655 82.6887 64.8797 82.4296C64.9188 82.1384 64.8766 81.8422 64.7576 81.5736C64.6224 81.1759 64.3371 80.8466 63.9626 80.6562C63.7937 80.5764 63.6092 80.5351 63.4224 80.5351C63.2356 80.5351 63.0511 80.5764 62.8822 80.6562L60.3139 81.655L61.4963 84.6515L64.0646 83.5711Z" fill="#225439"/>
<path d="M74.6231 84.2029L70.1797 74.0113L72.218 71.973L82.165 77.13L80.5547 78.6179L72.7276 74.4191L72.5236 74.6229L76.1518 82.7762L74.6231 84.2029ZM74.9085 80.7786L73.6855 79.4741L77.599 75.8458L78.8221 77.1504L74.9085 80.7786Z" fill="#225439"/>
<path d="M45.8008 38.9727C45.8008 40.0539 46.2303 41.0907 46.9949 41.8553C47.7594 42.6198 48.7962 43.0493 49.8774 43.0493C50.9586 43.0493 51.9957 42.6198 52.7602 41.8553C53.5248 41.0907 53.9541 40.0539 53.9541 38.9727C53.9541 37.8915 53.5248 36.8547 52.7602 36.0901C51.9957 35.3256 50.9586 34.8961 49.8774 34.8961C48.7962 34.8961 47.7594 35.3256 46.9949 36.0901C46.2303 36.8547 45.8008 37.8915 45.8008 38.9727ZM49.8774 35.7928C50.7208 35.7928 51.5297 36.1278 52.126 36.7241C52.7223 37.3205 53.0573 38.1294 53.0573 38.9727C53.0573 39.816 52.7223 40.6247 52.126 41.221C51.5297 41.8173 50.7208 42.1523 49.8774 42.1523C49.0341 42.1523 48.2254 41.8173 47.6291 41.221C47.0328 40.6247 46.6978 39.816 46.6978 38.9727C46.6977 38.5499 46.782 38.1314 46.9456 37.7415C47.1092 37.3517 47.3487 36.9983 47.6505 36.7022C47.9523 36.4061 48.3101 36.1734 48.703 36.0172C49.0959 35.8611 49.5159 35.7847 49.9386 35.7928H49.8774Z" fill="#225439"/>
<path d="M50.4276 32.4907V30.2486C50.4276 30.1189 50.3761 29.9945 50.2843 29.9027C50.1926 29.811 50.0682 29.7594 49.9385 29.7594C49.8751 29.7594 49.8126 29.7722 49.7543 29.797C49.6961 29.8218 49.6434 29.858 49.5996 29.9037C49.5558 29.9495 49.5216 30.0037 49.4993 30.063C49.477 30.1222 49.4669 30.1853 49.4697 30.2486V32.4907C49.4669 32.554 49.477 32.6171 49.4993 32.6763C49.5216 32.7356 49.5558 32.7899 49.5996 32.8356C49.6434 32.8813 49.6961 32.9177 49.7543 32.9426C49.8126 32.9674 49.8751 32.9799 49.9385 32.9799C50.0682 32.9799 50.1926 32.9286 50.2843 32.8368C50.3761 32.7451 50.4276 32.6205 50.4276 32.4907Z" fill="#225439"/>
<path d="M46.0453 31.1457C46.0138 31.0915 45.9717 31.044 45.9216 31.0064C45.8715 30.9687 45.8145 30.9414 45.7536 30.9262C45.6928 30.911 45.6297 30.9081 45.5678 30.9178C45.5058 30.9275 45.4464 30.9495 45.3931 30.9825C45.335 31.0099 45.2833 31.0494 45.2418 31.0984C45.2003 31.1475 45.1699 31.205 45.1525 31.2669C45.1351 31.3287 45.1312 31.3935 45.141 31.457C45.1509 31.5205 45.1744 31.5812 45.2097 31.6349L46.3102 33.6732C46.3577 33.7445 46.4211 33.8037 46.4954 33.8461C46.5697 33.8886 46.653 33.9131 46.7385 33.9178C46.8105 33.9462 46.8906 33.9462 46.9627 33.9178C47.0208 33.8904 47.0722 33.8509 47.1137 33.8018C47.1552 33.7528 47.1859 33.6952 47.2033 33.6334C47.2207 33.5715 47.2246 33.5068 47.2147 33.4433C47.2048 33.3798 47.1814 33.3191 47.146 33.2654L46.0453 31.1457Z" fill="#225439"/>
<path d="M44.6183 35.2628L42.58 34.1215C42.5252 34.088 42.4641 34.0657 42.4006 34.0558C42.3371 34.0458 42.2722 34.0483 42.2098 34.0635C42.1473 34.0786 42.0885 34.1059 42.0366 34.1439C41.9847 34.1818 41.9409 34.2295 41.9075 34.2844C41.8753 34.339 41.8544 34.3996 41.8463 34.4623C41.8381 34.5251 41.8425 34.5887 41.8597 34.6497C41.8768 34.7107 41.9061 34.7676 41.9458 34.8169C41.9855 34.8662 42.0349 34.9071 42.0908 34.9368L44.1292 36.0986C44.2097 36.1169 44.2933 36.1169 44.3738 36.0986C44.4578 36.1001 44.5405 36.0781 44.6126 36.0349C44.6847 35.9916 44.7431 35.9289 44.7813 35.854C44.8297 35.7523 44.8399 35.6366 44.8099 35.528C44.78 35.4195 44.712 35.3253 44.6183 35.2628Z" fill="#225439"/>
<path d="M41.2142 38.4223C41.0879 38.4222 40.9665 38.471 40.8753 38.5584C40.7842 38.6458 40.7303 38.7649 40.7251 38.8911C40.7223 38.9543 40.7323 39.0174 40.7547 39.0767C40.777 39.136 40.8111 39.1902 40.8549 39.2359C40.8987 39.2817 40.9515 39.3179 41.0097 39.3427C41.068 39.3675 41.1305 39.3803 41.1938 39.3803H43.4563C43.5861 39.3803 43.7107 39.3287 43.8024 39.2369C43.8942 39.1452 43.9458 39.0208 43.9458 38.8911C43.9458 38.8295 43.9335 38.7686 43.9099 38.7117C43.8864 38.6548 43.8519 38.6032 43.8084 38.5597C43.7649 38.5161 43.713 38.4814 43.6561 38.4579C43.5993 38.4343 43.5383 38.4223 43.4767 38.4223H41.2142Z" fill="#225439"/>
<path d="M44.0276 41.6836L41.9892 42.764C41.8804 42.828 41.8005 42.9316 41.7663 43.0531C41.7321 43.1747 41.7463 43.3048 41.8059 43.4162C41.8455 43.4943 41.9072 43.5593 41.9833 43.6028C42.0593 43.6463 42.1464 43.6663 42.2338 43.6608H42.458L44.4963 42.5806C44.6052 42.5166 44.6851 42.4128 44.7193 42.2913C44.7535 42.1697 44.7395 42.0396 44.68 41.9282C44.6559 41.8671 44.6193 41.8118 44.5725 41.7658C44.5257 41.7197 44.4697 41.6838 44.4083 41.6608C44.3468 41.6377 44.281 41.628 44.2154 41.6319C44.1499 41.6358 44.0859 41.6534 44.0276 41.6836Z" fill="#225439"/>
<path d="M45.1082 46.8405C45.1885 46.8612 45.2726 46.8612 45.3528 46.8405C45.4341 46.8399 45.5138 46.8192 45.585 46.78C45.6562 46.7409 45.7164 46.6846 45.7604 46.6163L46.9428 44.7002C46.9763 44.6453 46.9985 44.5845 47.0085 44.521C47.0184 44.4575 47.0157 44.3926 47.0005 44.3302C46.9854 44.2677 46.9581 44.2089 46.9201 44.157C46.8822 44.1051 46.8345 44.061 46.7796 44.0276C46.6706 43.9663 46.5423 43.949 46.421 43.9793C46.2997 44.0097 46.1947 44.0852 46.1274 44.1906L44.9453 46.1067C44.9014 46.1635 44.8706 46.2291 44.855 46.2991C44.8393 46.3691 44.8394 46.4418 44.855 46.5118C44.8705 46.5818 44.9012 46.6476 44.945 46.7044C44.9888 46.7612 45.0445 46.8076 45.1082 46.8405Z" fill="#225439"/>
<path d="M49.1845 45.4544V47.6968C49.1788 47.759 49.1861 47.8217 49.2061 47.8809C49.2261 47.9401 49.2582 47.9943 49.3004 48.0404C49.3426 48.0864 49.394 48.1233 49.4512 48.1484C49.5085 48.1734 49.5704 48.1862 49.6328 48.1859C49.7558 48.1864 49.8746 48.1404 49.9653 48.0573C50.0559 47.9742 50.1118 47.8599 50.122 47.7373V45.4748C50.1277 45.4126 50.1204 45.3499 50.1004 45.2907C50.0804 45.2315 50.0483 45.1772 50.0061 45.1312C49.9639 45.0851 49.9125 45.0482 49.8553 45.0232C49.798 44.9982 49.7361 44.9854 49.6737 44.9856C49.5474 44.9855 49.4259 45.0344 49.3348 45.1217C49.2436 45.2091 49.1897 45.3282 49.1845 45.4544Z" fill="#225439"/>
<path d="M52.7512 44.2927C52.6936 44.3207 52.6422 44.3602 52.6004 44.4087C52.5586 44.4572 52.5272 44.5135 52.5081 44.5746C52.489 44.6358 52.4827 44.7003 52.4894 44.764C52.4962 44.8277 52.5159 44.8891 52.5474 44.9449L53.587 46.9832C53.6318 47.0569 53.6945 47.1181 53.7694 47.1609C53.8442 47.2036 53.9287 47.2266 54.0149 47.2278C54.0882 47.2488 54.1659 47.2488 54.2391 47.2278C54.2961 47.202 54.347 47.1647 54.3887 47.1181C54.4303 47.0714 54.4618 47.0166 54.481 46.9571C54.5002 46.8976 54.5067 46.8346 54.5001 46.7725C54.4936 46.7103 54.474 46.6503 54.4429 46.5961L53.3832 44.5577C53.3636 44.4955 53.3306 44.4382 53.2866 44.39C53.2427 44.3418 53.1888 44.3038 53.1286 44.2786C53.0685 44.2533 53.0035 44.2415 52.9383 44.244C52.8731 44.2464 52.8093 44.2631 52.7512 44.2927Z" fill="#225439"/>
<path d="M55.0139 42.2134C54.98 42.2655 54.9569 42.3238 54.9457 42.3849C54.9345 42.446 54.9354 42.5088 54.9487 42.5695C54.962 42.6302 54.9872 42.6876 55.0229 42.7384C55.0585 42.7893 55.1042 42.8327 55.1567 42.8658L57.0522 44.0888C57.1393 44.1096 57.2301 44.1096 57.3172 44.0888C57.3938 44.0907 57.4696 44.073 57.5374 44.0373C57.6052 44.0016 57.6629 43.9492 57.7046 43.885C57.7741 43.7767 57.798 43.6452 57.7713 43.5192C57.7446 43.3933 57.6693 43.283 57.5618 43.2122L55.6663 42.0097C55.6105 41.9782 55.5488 41.9584 55.4852 41.9517C55.4215 41.9449 55.3572 41.9512 55.2961 41.9703C55.2349 41.9894 55.1784 42.0209 55.1298 42.0627C55.0813 42.1044 55.0418 42.1558 55.0139 42.2134Z" fill="#225439"/>
<path d="M55.9517 39.2785C55.946 39.405 55.9897 39.5286 56.0733 39.6236C56.157 39.7187 56.2741 39.7777 56.4003 39.7881H58.6424C58.7633 39.7882 58.8795 39.7415 58.9668 39.658C59.0542 39.5744 59.1059 39.4602 59.1112 39.3395C59.1169 39.213 59.0734 39.0894 58.9897 38.9944C58.9061 38.8993 58.7889 38.8403 58.6628 38.8299H56.4003C56.283 38.8349 56.1718 38.884 56.0888 38.967C56.0057 39.05 55.9567 39.1612 55.9517 39.2785Z" fill="#225439"/>
<path d="M57.5212 34.6106L55.4829 35.6297C55.4262 35.6559 55.3755 35.6933 55.3334 35.7395C55.2913 35.7856 55.2587 35.8396 55.2378 35.8985C55.217 35.9573 55.2081 36.0197 55.2117 36.0821C55.2153 36.1444 55.2312 36.2054 55.2587 36.2615C55.2975 36.3418 55.3583 36.4094 55.4342 36.4563C55.51 36.5032 55.5975 36.5276 55.6867 36.5265C55.76 36.5474 55.8379 36.5474 55.9111 36.5265L57.9495 35.5073C58.0618 35.4467 58.146 35.3445 58.1841 35.2227C58.2222 35.1008 58.2111 34.969 58.1532 34.8552C58.0999 34.7407 58.0043 34.6514 57.8865 34.6058C57.7687 34.5603 57.6378 34.5619 57.5212 34.6106Z" fill="#225439"/>
<path d="M55.0345 31.2882C54.9261 31.2187 54.7949 31.1948 54.669 31.2215C54.543 31.2482 54.4327 31.3232 54.3619 31.4307L53.1186 33.3061C53.0491 33.4144 53.0249 33.5459 53.0516 33.6718C53.0783 33.7978 53.1537 33.9078 53.2611 33.9786C53.3482 33.9994 53.439 33.9994 53.5261 33.9786C53.6074 33.978 53.6871 33.9573 53.7583 33.9182C53.8295 33.879 53.8897 33.8227 53.9337 33.7545L55.177 31.8794C55.2235 31.7792 55.2348 31.6662 55.2089 31.5589C55.183 31.4516 55.1215 31.3561 55.0345 31.2882Z" fill="#225439"/>
<path d="M68.6711 67.8965C68.7356 67.8978 68.7996 67.886 68.8592 67.8614C68.9189 67.8369 68.9726 67.8002 69.0175 67.7539C69.1035 67.6631 69.1516 67.5426 69.1516 67.4175C69.1516 67.2924 69.1035 67.1722 69.0175 67.0814C67.003 65.0859 64.8284 63.2587 62.5154 61.6185C64.5537 60.9051 66.5919 60.2732 68.7933 59.7432C68.9126 59.7097 69.0149 59.6322 69.0792 59.5262C69.1435 59.4203 69.1652 59.294 69.1399 59.1727C69.1255 59.1096 69.0986 59.0499 69.061 58.9972C69.0234 58.9446 68.9759 58.8997 68.9209 58.8656C68.866 58.8315 68.8047 58.8087 68.7408 58.7984C68.6769 58.7881 68.6116 58.7906 68.5487 58.8057C66.1639 59.3968 63.8199 60.1306 61.537 60.844C60.3344 60.049 59.1114 59.2949 57.9087 58.6019C61.4279 57.2654 65.0559 56.2356 68.7525 55.524C68.8752 55.4992 68.9838 55.4283 69.0558 55.3259C69.1278 55.2235 69.158 55.0975 69.1399 54.9736C69.1152 54.8468 69.0413 54.7349 68.9344 54.6623C68.8274 54.5898 68.6961 54.5625 68.5691 54.5864C64.554 55.3636 60.6175 56.5028 56.808 57.9903C55.4219 57.2361 54.0359 56.5635 52.7313 55.952C57.8876 53.8283 63.291 52.3627 68.8137 51.5899C68.9402 51.5698 69.0537 51.501 69.13 51.3981C69.2062 51.2952 69.2389 51.1664 69.2213 51.0395C69.1969 50.9191 69.13 50.8116 69.0327 50.7367C68.9353 50.6618 68.8139 50.6246 68.6913 50.632C62.7846 51.4668 57.0141 53.0774 51.5288 55.422C49.9185 54.7493 48.3693 54.1786 46.861 53.669C53.7699 50.4685 61.1858 48.5025 68.7729 47.8599C68.8354 47.8601 68.8973 47.8474 68.9545 47.8223C69.0118 47.7973 69.0631 47.7606 69.1053 47.7146C69.1475 47.6685 69.1796 47.614 69.1996 47.5548C69.2196 47.4956 69.227 47.4329 69.2213 47.3707C69.2215 47.3082 69.2087 47.2463 69.1837 47.1891C69.1587 47.1318 69.122 47.0805 69.076 47.0383C69.0299 46.9961 68.9754 46.964 68.9162 46.944C68.857 46.924 68.7943 46.9167 68.7321 46.9223C60.6699 47.5791 52.7986 49.7213 45.5156 53.2411C40.9409 51.786 36.2158 50.8561 31.431 50.469C31.3047 50.4689 31.1833 50.5175 31.0921 50.6048C31.0009 50.6922 30.9471 50.8116 30.9418 50.9378C30.9361 51 30.9435 51.0627 30.9635 51.1219C30.9834 51.1811 31.0155 51.2356 31.0578 51.2816C31.1 51.3277 31.1513 51.3643 31.2085 51.3894C31.2658 51.4144 31.3277 51.4272 31.3902 51.4269C31.6144 51.4269 53.2818 52.5276 68.4061 67.7335C68.4733 67.8164 68.5668 67.8739 68.6711 67.8965Z" fill="#225439"/>
<path d="M61.5369 67.8964C61.6825 67.8954 61.8216 67.8368 61.924 67.7334C62.01 67.6426 62.0579 67.5221 62.0579 67.397C62.0579 67.2719 62.01 67.1517 61.924 67.0608C53.0955 60.1632 42.5802 55.7571 31.4717 54.3009C31.41 54.2924 31.3472 54.296 31.287 54.3119C31.2269 54.3278 31.1704 54.3556 31.1211 54.3935C31.0717 54.4314 31.0305 54.479 30.9996 54.5331C30.9688 54.5872 30.9492 54.6467 30.9417 54.7085C30.9241 54.8353 30.9568 54.9642 31.033 55.0671C31.1092 55.1699 31.2228 55.2388 31.3492 55.2589C42.2816 56.6935 52.6326 61.0212 61.3328 67.7946C61.389 67.8483 61.4602 67.8836 61.5369 67.8964Z" fill="#225439"/>
<path d="M53.5058 67.8964C53.5855 67.8999 53.6646 67.8831 53.7359 67.8474C53.8073 67.8117 53.8683 67.7585 53.9133 67.6926C53.9828 67.5843 54.007 67.453 53.9803 67.3271C53.9536 67.2012 53.8783 67.0909 53.7708 67.0201C46.9111 62.7215 39.3056 59.7483 31.3493 58.2552C31.2251 58.2307 31.0964 58.2552 30.99 58.3236C30.8835 58.392 30.8077 58.4991 30.7785 58.6222C30.7597 58.7486 30.7891 58.8773 30.8608 58.983C30.9325 59.0887 31.0415 59.1635 31.1659 59.1928C38.9753 60.6649 46.4367 63.5972 53.1592 67.8355C53.2666 67.8882 53.3868 67.9093 53.5058 67.8964Z" fill="#225439"/>
<path d="M31.4514 62.3725C31.3274 62.3465 31.1981 62.3675 31.0888 62.4315C30.9795 62.4956 30.898 62.5982 30.8602 62.7191C30.8451 62.7821 30.8426 62.8474 30.8529 62.9112C30.8632 62.9751 30.886 63.0362 30.9201 63.0911C30.9542 63.1461 30.9991 63.1939 31.0517 63.2315C31.1044 63.2691 31.1638 63.2957 31.2269 63.3101C35.6248 64.3801 39.8956 65.9176 43.9664 67.8963H44.1704C44.2617 67.8945 44.3509 67.8693 44.4295 67.8229C44.508 67.7765 44.5732 67.7104 44.6188 67.6313C44.6689 67.5173 44.6737 67.3885 44.632 67.271C44.5903 67.1536 44.5054 67.0565 44.3946 66.9996C40.2544 65.0076 35.9161 63.4567 31.4514 62.3725Z" fill="#225439"/>
<path d="M85.65 56.2781C86.742 56.2781 87.6272 55.3929 87.6272 54.3009C87.6272 53.2089 86.742 52.3237 85.65 52.3237C84.5581 52.3237 83.6729 53.2089 83.6729 54.3009C83.6729 55.3929 84.5581 56.2781 85.65 56.2781Z" fill="#225439"/>
<path d="M13.7384 56.2781C14.8304 56.2781 15.7156 55.3929 15.7156 54.3009C15.7156 53.2089 14.8304 52.3237 13.7384 52.3237C12.6464 52.3237 11.7612 53.2089 11.7612 54.3009C11.7612 55.3929 12.6464 56.2781 13.7384 56.2781Z" fill="#225439"/>
</g>
<defs>
<clipPath id="clip0">
<rect width="100" height="100" fill="white"/>
</clipPath>
</defs>
</svg>
