<svg width="100" height="100" viewBox="0 0 100 100" fill="none" xmlns="http://www.w3.org/2000/svg">
<g clip-path="url(#clip0)">
<path d="M50.0001 99.9999C36.7442 99.9837 24.0359 94.7108 14.6626 85.3375C5.28931 75.9642 0.0161821 63.2559 0 50.0001C0.010796 36.7426 5.28217 24.0312 14.6566 14.6567C24.0311 5.2822 36.7425 0.0108265 50.0001 3.05176e-05C63.2576 0.0108265 75.969 5.2822 85.3435 14.6567C94.718 24.0312 99.9893 36.7426 100 50.0001C99.9839 63.2559 94.7108 75.9642 85.3375 85.3375C75.9642 94.7108 63.2559 99.9837 50.0001 99.9999Z" fill="#225439"/>
<path d="M22.0342 41.9691C21.8093 42.8532 21.3435 43.6576 20.6889 44.2929C20.0427 44.9272 19.2299 45.3654 18.3448 45.5566C17.3953 45.7999 16.4 45.7999 15.4505 45.5566C14.5059 45.3118 13.6372 44.8353 12.923 44.1704C12.2631 43.5488 11.784 42.7598 11.5368 41.8875C11.2924 41.0142 11.2924 40.0907 11.5368 39.2175C11.7392 38.4526 12.132 37.7514 12.6784 37.1791C13.1882 36.6508 13.8072 36.2404 14.4923 35.9766C15.1437 35.7363 15.8374 35.6322 16.5306 35.6708L16.0009 37.7091C15.634 37.7294 15.2742 37.8193 14.9409 37.9741C14.5709 38.1249 14.2472 38.371 14.0031 38.6875C13.7118 39.0112 13.5084 39.4041 13.4122 39.8288C13.2487 40.3601 13.2487 40.9283 13.4122 41.4596C13.5836 42.0034 13.9008 42.49 14.3293 42.8661C14.8095 43.2702 15.3736 43.5624 15.9805 43.7221C16.5964 43.8732 17.2396 43.8732 17.8556 43.7221C18.4076 43.6184 18.9175 43.3564 19.3231 42.9679C19.7287 42.5955 20.0189 42.1145 20.1589 41.582C20.3749 40.9686 20.3749 40.2997 20.1589 39.6862C19.9139 39.1534 19.5075 38.7113 18.9972 38.4225L19.5272 36.3842C20.1613 36.6919 20.7237 37.1294 21.1781 37.6683C21.6722 38.2561 22.0151 38.9559 22.1768 39.7066C22.322 40.4607 22.273 41.2393 22.0342 41.9691Z" fill="#EDDFD0"/>
<path d="M27.8639 30.9415C27.2833 31.6378 26.5215 32.1599 25.6626 32.4499C24.8045 32.7492 23.8804 32.8057 22.9923 32.6131C22.0387 32.405 21.1544 31.9558 20.424 31.3085C19.6677 30.6942 19.0846 29.8933 18.7323 28.9848C18.3873 28.1466 18.2883 27.2274 18.4469 26.3349C18.593 25.4355 18.9884 24.5953 19.5882 23.9094C20.1572 23.2098 20.9139 22.6866 21.7693 22.4011C22.6274 22.1018 23.5513 22.0455 24.4394 22.2381C25.3897 22.4553 26.2718 22.9032 27.0077 23.5424C27.7636 24.1618 28.3524 24.9607 28.7201 25.8661C29.0465 26.7161 29.1447 27.6367 29.0052 28.5365C28.8465 29.4258 28.4525 30.2562 27.8639 30.9415ZM26.3964 29.6778C26.7572 29.2635 26.9906 28.754 27.0689 28.2103C27.1443 27.6498 27.0668 27.0795 26.8447 26.5594C26.597 25.9799 26.2122 25.4691 25.7236 25.0712C25.2426 24.6523 24.6703 24.3522 24.0522 24.1948C23.5043 24.0515 22.9286 24.0515 22.3807 24.1948C21.865 24.3663 21.4068 24.6765 21.056 25.0916C20.7003 25.5194 20.4614 26.032 20.3628 26.5795C20.2928 27.1419 20.3773 27.7128 20.6074 28.2307C20.853 28.8113 21.2381 29.3224 21.7285 29.7186C22.2087 30.1272 22.7722 30.4264 23.3797 30.5952C23.9276 30.7385 24.5031 30.7385 25.051 30.5952C25.5817 30.4321 26.0507 30.1122 26.3964 29.6778Z" fill="#EDDFD0"/>
<path d="M33.775 24.7657L29.8206 14.9613L32.7763 13.7791L37.8721 19.7309H38.1371L37.6479 11.9038L40.6034 10.7012L44.578 20.5054L42.7029 21.2596L39.9512 14.4721H39.6862L40.155 22.177L38.1167 22.972L33.1022 17.1016L32.8171 17.2238L35.5688 24.0115L33.775 24.7657Z" fill="#EDDFD0"/>
<path d="M48.614 20.2404L49.4495 9.70248L54.2194 10.0896C54.82 10.1306 55.3979 10.3351 55.8907 10.6808C56.3665 11.014 56.7405 11.4727 56.9711 12.0058C57.2253 12.5961 57.3236 13.2417 57.2565 13.8809C57.2119 14.5221 57.0163 15.1438 56.6857 15.695C56.3726 16.193 55.9282 16.5951 55.4015 16.857C54.8527 17.1062 54.2494 17.2113 53.6486 17.1626L50.8969 16.9384L50.6319 20.4037L48.614 20.2404ZM53.73 15.2263C53.9767 15.2509 54.2253 15.2013 54.4436 15.0837C54.6737 14.963 54.8644 14.7791 54.9937 14.5537C55.1418 14.3065 55.2261 14.0262 55.2386 13.7383C55.2969 13.3129 55.1872 12.8816 54.9328 12.5358C54.822 12.3823 54.6786 12.2552 54.513 12.1635C54.3474 12.0719 54.1634 12.0181 53.9746 12.0058L51.3045 11.8018L51.0599 15.0225L53.73 15.2263Z" fill="#EDDFD0"/>
<path d="M59.9265 21.8712L64.7165 12.4542L69.0377 14.6555C69.5746 14.9198 70.0265 15.3296 70.3423 15.8378C70.6675 16.319 70.8381 16.8877 70.8315 17.4684C70.8509 18.1027 70.6959 18.7303 70.3831 19.2825C70.1288 19.8298 69.7353 20.3009 69.2418 20.6482C68.795 20.9798 68.2667 21.184 67.713 21.2392C67.1848 21.2845 66.6545 21.1786 66.1843 20.9336L65.6339 20.6482L65.8173 20.2608L67.4276 25.6828L65.2057 24.5617L63.8402 19.7921L63.3714 19.5475L61.7202 22.7883L59.9265 21.8712ZM66.6531 19.1603C66.8713 19.2779 67.1197 19.3275 67.3664 19.3029C67.6204 19.2776 67.8613 19.1784 68.0594 19.0175C68.2989 18.8543 68.4892 18.6289 68.6098 18.3653C68.8222 17.9948 68.8807 17.5557 68.7728 17.1424C68.7315 16.9611 68.6497 16.7916 68.5331 16.6468C68.4166 16.5019 68.2685 16.3856 68.1002 16.3066L65.6543 15.0429L64.2069 17.9167L66.6531 19.1603Z" fill="#EDDFD0"/>
<path d="M69.6289 27.2932L80.1875 23.5629L82.0218 25.8254L76.1514 35.3853L74.7859 33.6935L79.5351 26.172L79.3517 25.9274L70.9947 29.0053L69.6289 27.2932ZM73.0126 27.8232L74.4189 26.6816L77.7618 30.7582L76.3555 31.8794L73.0126 27.8232Z" fill="#EDDFD0"/>
<path d="M77.293 38.1574L87.4846 35.3241L88.7891 39.9919C88.9512 40.565 88.9512 41.1717 88.7891 41.7448C88.6368 42.3098 88.3254 42.8191 87.8921 43.2124C87.4358 43.648 86.8739 43.9572 86.2616 44.1093C85.6802 44.2604 85.0698 44.2604 84.4883 44.1093C83.9427 43.9992 83.436 43.746 83.0205 43.3756C82.6223 43.0255 82.3385 42.5639 82.2054 42.0506L82.0218 41.4594L82.45 41.3373L79.5555 46.1885L78.8829 43.7831L81.4512 39.5639L81.3084 39.0339L77.823 40.0123L77.293 38.1574ZM83.8359 41.276C83.9076 41.511 84.0416 41.7221 84.2233 41.8874C84.4197 42.0621 84.6587 42.1817 84.9163 42.234C85.1919 42.2917 85.4765 42.2917 85.7521 42.234C86.166 42.1254 86.5275 41.8724 86.7712 41.5206C86.8719 41.3656 86.9384 41.1908 86.9665 41.0081C86.9946 40.8253 86.9837 40.6388 86.9342 40.4607L86.2004 37.8108L83.1021 38.6669L83.8359 41.276Z" fill="#EDDFD0"/>
<path d="M16.8977 76.0089L27.0893 71.178L29.1276 73.2164L24.3172 83.408L22.7681 81.8591L26.7021 73.8892L26.4777 73.665L18.5081 77.6192L16.8977 76.0089ZM20.3018 76.1721L21.5859 74.8879L25.3568 78.6588L24.0726 79.9225L20.3018 76.1721Z" fill="#EDDFD0"/>
<path d="M33.4082 88.5651C32.5919 88.1997 31.8881 87.6227 31.3699 86.8938C30.8413 86.1556 30.5178 85.2906 30.4323 84.3867C30.3538 83.4074 30.5293 82.4245 30.9419 81.533C31.3134 80.63 31.9184 79.8421 32.6949 79.2501C33.4003 78.6743 34.2564 78.3134 35.1611 78.2105C36.0566 78.0934 36.967 78.2274 37.7907 78.5977C38.5068 78.8922 39.1376 79.3619 39.6252 79.9634C40.0826 80.5078 40.4101 81.1491 40.5831 81.8388C40.7526 82.5043 40.7943 83.196 40.7056 83.8771L38.7894 83.0413C38.782 82.4975 38.6194 81.9671 38.3206 81.5126C38.0034 81.0383 37.5581 80.6636 37.0365 80.4322C36.5239 80.2088 35.9596 80.1312 35.4057 80.208C34.8508 80.2896 34.329 80.5222 33.8974 80.8806C33.4109 81.2924 33.0331 81.8173 32.7969 82.4093C32.5232 82.9806 32.397 83.6113 32.4299 84.2438C32.4628 84.805 32.6458 85.3471 32.9598 85.8134C33.2659 86.28 33.7067 86.6426 34.2236 86.853C34.6718 87.0507 35.1618 87.1347 35.6503 87.0975C36.0907 87.0748 36.5185 86.9414 36.8939 86.7101C37.2254 86.5305 37.5004 86.2626 37.6886 85.9358L38.0148 85.4262L38.1982 86.0784L35.4057 84.8554L35.9765 83.5101L40.1552 85.3242L37.9332 90.3996L36.5473 89.788L36.8939 88.6263C36.5932 88.7615 36.2787 88.864 35.9561 88.9321C35.5706 88.9844 35.1799 88.9844 34.7944 88.9321C34.3136 88.8971 33.8434 88.7726 33.4082 88.5651Z" fill="#EDDFD0"/>
<path d="M49.7148 91.9894C48.8059 91.9978 47.9139 91.743 47.1465 91.2556C46.3629 90.7594 45.7343 90.0532 45.3324 89.2173C44.8756 88.3525 44.6576 87.3815 44.7007 86.4044C44.6974 85.4281 44.9429 84.467 45.414 83.6119C45.859 82.8242 46.5065 82.1696 47.2894 81.7161C48.0751 81.2629 48.9714 81.0372 49.8781 81.064C50.7778 81.0556 51.6614 81.303 52.426 81.7774C53.2063 82.2833 53.839 82.9865 54.2603 83.8157C54.6921 84.6895 54.9088 85.654 54.8923 86.6286C54.8891 87.6131 54.6367 88.5808 54.1585 89.4415C53.7274 90.2327 53.0853 90.8888 52.3036 91.337C51.5166 91.7872 50.6212 92.013 49.7148 91.9894ZM49.7148 90.0732C50.2608 90.0764 50.7971 89.9283 51.264 89.6452C51.7475 89.3475 52.1419 88.9251 52.4056 88.4223C52.6995 87.8636 52.8467 87.2393 52.8335 86.6082C52.8693 85.9731 52.7356 85.34 52.4461 84.7736C52.2046 84.2631 51.823 83.8319 51.3456 83.5303C50.8906 83.2325 50.3605 83.07 49.8169 83.0615C49.2641 83.0556 48.7206 83.2038 48.2473 83.4895C47.7591 83.7814 47.3633 84.2053 47.1057 84.7124C46.8093 85.2702 46.6619 85.8951 46.6778 86.5266C46.6491 87.1588 46.7752 87.7885 47.0448 88.3611C47.2917 88.868 47.6721 89.2979 48.1453 89.6044C48.6255 89.9129 49.1849 90.0757 49.7557 90.0732H49.7148Z" fill="#EDDFD0"/>
<path d="M61.5983 90.3994L57.7458 80.5748L62.2709 78.8015C62.8253 78.5737 63.4318 78.503 64.0238 78.5974C64.5952 78.6839 65.1276 78.9395 65.5525 79.3312C66.0328 79.7442 66.404 80.2693 66.6329 80.8599C66.8518 81.4238 66.9356 82.0312 66.8775 82.6333C66.8307 83.1792 66.6331 83.7017 66.3067 84.1419C66.0004 84.5813 65.5663 84.9157 65.0633 85.0998L64.4926 85.3444L64.3296 84.9366L69.4458 87.3215L67.1221 88.2387L62.658 86.2003L62.1484 86.4044L63.4734 89.7674L61.5983 90.3994ZM64.0442 83.5711C64.2727 83.4883 64.4715 83.3391 64.615 83.1429C64.7734 82.9373 64.8658 82.6886 64.88 82.4295C64.9191 82.1383 64.8766 81.8421 64.7576 81.5736C64.6151 81.18 64.3319 80.8531 63.9626 80.6562C63.7937 80.5763 63.6092 80.535 63.4224 80.535C63.2356 80.535 63.0513 80.5763 62.8825 80.6562L60.3142 81.6549L61.4963 84.6514L64.0442 83.5711Z" fill="#EDDFD0"/>
<path d="M74.6226 84.2029L70.1792 74.0113L72.2175 71.973L82.1645 77.13L80.5542 78.618L72.7271 74.4192L72.5233 74.6229L76.1513 82.7762L74.6226 84.2029ZM74.908 80.7787L73.685 79.4741L77.5987 75.8459L78.8217 77.1504L74.908 80.7787Z" fill="#EDDFD0"/>
<path d="M45.801 38.9727C45.801 40.0539 46.2303 41.0908 46.9949 41.8553C47.7594 42.6198 48.7965 43.0494 49.8777 43.0494C50.9589 43.0494 51.9957 42.6198 52.7602 41.8553C53.5247 41.0908 53.9543 40.0539 53.9543 38.9727C53.9543 37.8915 53.5247 36.8547 52.7602 36.0902C51.9957 35.3256 50.9589 34.8961 49.8777 34.8961C48.7965 34.8961 47.7594 35.3256 46.9949 36.0902C46.2303 36.8547 45.801 37.8915 45.801 38.9727ZM49.8777 35.7928C50.721 35.7928 51.5297 36.1278 52.126 36.7242C52.7223 37.3205 53.0573 38.1294 53.0573 38.9727C53.0573 39.8161 52.7223 40.6247 52.126 41.2211C51.5297 41.8174 50.721 42.1524 49.8777 42.1524C49.0343 42.1524 48.2254 41.8174 47.6291 41.2211C47.0328 40.6247 46.6978 39.8161 46.6978 38.9727C46.6977 38.55 46.782 38.1314 46.9456 37.7416C47.1092 37.3517 47.349 36.9983 47.6507 36.7023C47.9525 36.4062 48.3101 36.1734 48.703 36.0173C49.0959 35.8611 49.5159 35.7847 49.9386 35.7928H49.8777Z" fill="#EDDFD0"/>
<path d="M50.4279 32.4908V30.2487C50.4279 30.1189 50.3766 29.9946 50.2848 29.9028C50.1931 29.8111 50.0684 29.7595 49.9387 29.7595C49.8754 29.7594 49.8128 29.7722 49.7546 29.7971C49.6963 29.8219 49.6436 29.8581 49.5998 29.9038C49.556 29.9495 49.5219 30.0038 49.4995 30.063C49.4772 30.1223 49.4672 30.1854 49.4699 30.2487V32.4908C49.4672 32.554 49.4772 32.6171 49.4995 32.6764C49.5219 32.7356 49.556 32.7899 49.5998 32.8356C49.6436 32.8813 49.6963 32.9178 49.7546 32.9426C49.8128 32.9674 49.8754 32.98 49.9387 32.9799C50.0684 32.9799 50.1931 32.9286 50.2848 32.8369C50.3766 32.7451 50.4279 32.6205 50.4279 32.4908Z" fill="#EDDFD0"/>
<path d="M46.0253 31.1458C45.9938 31.0916 45.9517 31.0441 45.9016 31.0064C45.8515 30.9688 45.7943 30.9415 45.7334 30.9263C45.6726 30.9111 45.6095 30.9082 45.5476 30.9178C45.4856 30.9275 45.4262 30.9495 45.3729 30.9825C45.3187 31.014 45.2715 31.0561 45.2338 31.1062C45.1961 31.1563 45.1689 31.2133 45.1537 31.2742C45.1385 31.335 45.1356 31.3983 45.1452 31.4603C45.1549 31.5222 45.1769 31.5817 45.2099 31.6349L46.3107 33.6733C46.3581 33.7445 46.4213 33.8037 46.4956 33.8462C46.5699 33.8887 46.6532 33.9132 46.7387 33.9179C46.8107 33.9462 46.8908 33.9462 46.9629 33.9179C47.021 33.8905 47.0726 33.8509 47.1141 33.8019C47.1556 33.7529 47.1861 33.6953 47.2035 33.6335C47.2209 33.5716 47.2248 33.5068 47.2149 33.4434C47.205 33.3799 47.1816 33.3191 47.1462 33.2654L46.0253 31.1458Z" fill="#EDDFD0"/>
<path d="M44.6189 35.263L42.5806 34.1216C42.5273 34.0886 42.4681 34.0666 42.4062 34.0569C42.3443 34.0473 42.2809 34.0502 42.2201 34.0654C42.1593 34.0806 42.1022 34.1079 42.0521 34.1455C42.002 34.1832 41.9599 34.2304 41.9285 34.2846C41.8963 34.3391 41.8754 34.3997 41.8672 34.4625C41.8591 34.5253 41.8635 34.5889 41.8807 34.6499C41.8978 34.7108 41.9273 34.7678 41.967 34.8171C42.0067 34.8664 42.0559 34.9073 42.1118 34.937L44.0481 36.0987C44.1279 36.1225 44.2129 36.1225 44.2927 36.0987C44.3763 36.098 44.4584 36.0751 44.5301 36.0321C44.6018 35.9891 44.6606 35.9276 44.7005 35.8542C44.7541 35.7604 44.775 35.6515 44.7603 35.5446C44.7455 35.4377 44.6958 35.3387 44.6189 35.263Z" fill="#EDDFD0"/>
<path d="M41.215 38.4223C41.1517 38.4195 41.0883 38.4296 41.0291 38.4519C40.9698 38.4742 40.9158 38.5084 40.8701 38.5522C40.8244 38.596 40.7879 38.6487 40.7631 38.7069C40.7383 38.7652 40.7255 38.8277 40.7255 38.8911C40.7228 38.9543 40.7331 39.0174 40.7554 39.0767C40.7777 39.1359 40.8119 39.1902 40.8557 39.2359C40.8995 39.2816 40.9519 39.3178 41.0102 39.3427C41.0684 39.3675 41.1312 39.3803 41.1946 39.3802H43.4571C43.5852 39.3752 43.7068 39.3221 43.7974 39.2314C43.8881 39.1408 43.9412 39.0192 43.9462 38.8911C43.9462 38.7667 43.8968 38.6476 43.8089 38.5596C43.721 38.4717 43.6018 38.4223 43.4775 38.4223H41.215Z" fill="#EDDFD0"/>
<path d="M44.0279 41.6837L41.9896 42.7641C41.8807 42.8281 41.8008 42.9316 41.7666 43.0532C41.7324 43.1748 41.7464 43.3049 41.8059 43.4162C41.8441 43.4911 41.9025 43.5539 41.9746 43.5971C42.0467 43.6404 42.1297 43.6624 42.2137 43.6608H42.4583L44.4966 42.5807C44.6055 42.5167 44.6854 42.4129 44.7196 42.2913C44.7538 42.1698 44.7396 42.0397 44.68 41.9283C44.656 41.8672 44.6193 41.8119 44.5725 41.7658C44.5257 41.7197 44.4698 41.6839 44.4083 41.6608C44.3468 41.6378 44.2813 41.628 44.2157 41.632C44.1502 41.6359 44.0862 41.6535 44.0279 41.6837Z" fill="#EDDFD0"/>
<path d="M45.1081 46.8406C45.1952 46.8613 45.286 46.8613 45.3731 46.8406C45.4543 46.84 45.534 46.8192 45.6052 46.7801C45.6764 46.7409 45.7369 46.6846 45.7809 46.6164L46.963 44.7002C47.0255 44.5882 47.0435 44.4567 47.0133 44.332C46.983 44.2073 46.9069 44.0987 46.8 44.0277C46.6911 43.9663 46.5625 43.9491 46.4412 43.9794C46.3199 44.0097 46.2149 44.0852 46.1476 44.1906L44.9655 46.1068C44.9209 46.1622 44.8888 46.2268 44.8717 46.2959C44.8546 46.365 44.8529 46.437 44.8665 46.5069C44.8801 46.5768 44.9086 46.6428 44.9503 46.7005C44.9921 46.7581 45.0459 46.8059 45.1081 46.8406Z" fill="#EDDFD0"/>
<path d="M49.246 45.4545V47.6968C49.2403 47.759 49.2477 47.8217 49.2676 47.8809C49.2876 47.9401 49.3197 47.9944 49.362 48.0404C49.4042 48.0865 49.4557 48.1234 49.513 48.1484C49.5702 48.1735 49.6319 48.1862 49.6944 48.186C49.755 48.1887 49.8155 48.1792 49.8723 48.1579C49.9291 48.1366 49.981 48.104 50.0248 48.0621C50.0686 48.0202 50.1035 47.9698 50.1273 47.914C50.1511 47.8583 50.1632 47.798 50.1631 47.7374V45.4749C50.1659 45.4116 50.1559 45.3485 50.1335 45.2892C50.1112 45.23 50.0771 45.176 50.0333 45.1303C49.9895 45.0845 49.937 45.0481 49.8787 45.0233C49.8205 44.9984 49.7577 44.9856 49.6944 44.9857C49.5753 44.9956 49.464 45.0489 49.3814 45.1352C49.2987 45.2216 49.2506 45.335 49.246 45.4545Z" fill="#EDDFD0"/>
<path d="M52.7516 44.2928C52.694 44.3207 52.6429 44.3602 52.6011 44.4087C52.5593 44.4573 52.5279 44.5136 52.5088 44.5747C52.4897 44.6358 52.4831 44.7004 52.4899 44.7641C52.4966 44.8277 52.5164 44.8892 52.5479 44.945L53.5874 46.9833C53.6307 47.0583 53.6931 47.1204 53.7683 47.1634C53.8435 47.2064 53.9288 47.2286 54.0154 47.2279C54.089 47.246 54.1659 47.246 54.2396 47.2279C54.2945 47.1998 54.3434 47.1614 54.3834 47.1144C54.4234 47.0674 54.4538 47.0131 54.4727 46.9544C54.4916 46.8957 54.4989 46.8338 54.4939 46.7723C54.4888 46.7108 54.4718 46.651 54.4436 46.5961L53.3836 44.5578C53.3641 44.4955 53.331 44.4383 53.2871 44.3901C53.2432 44.3419 53.1893 44.3038 53.1291 44.2786C53.0689 44.2534 53.0039 44.2416 52.9387 44.244C52.8736 44.2465 52.8097 44.2631 52.7516 44.2928Z" fill="#EDDFD0"/>
<path d="M55.014 42.2135C54.9801 42.2655 54.957 42.3238 54.9459 42.3849C54.9347 42.446 54.9358 42.5088 54.9491 42.5695C54.9624 42.6302 54.9876 42.6876 55.0232 42.7385C55.0589 42.7893 55.1043 42.8327 55.1569 42.8659L57.0524 44.0888C57.1395 44.1096 57.2302 44.1096 57.3173 44.0888C57.3939 44.0908 57.4698 44.073 57.5376 44.0373C57.6054 44.0016 57.663 43.9493 57.7048 43.885C57.7742 43.7767 57.7982 43.6452 57.7714 43.5193C57.7447 43.3934 57.6694 43.283 57.5619 43.2122L55.6664 42.0097C55.6107 41.9782 55.549 41.9584 55.4853 41.9517C55.4216 41.945 55.3573 41.9513 55.2962 41.9704C55.2351 41.9895 55.1785 42.0209 55.13 42.0627C55.0815 42.1045 55.042 42.1559 55.014 42.2135Z" fill="#EDDFD0"/>
<path d="M55.9519 39.2785C55.9462 39.405 55.9897 39.5286 56.0733 39.6236C56.157 39.7187 56.2741 39.7777 56.4003 39.7881H58.6424C58.704 39.7908 58.7656 39.7813 58.8235 39.7602C58.8815 39.7392 58.9346 39.7068 58.98 39.6652C59.0255 39.6235 59.0623 39.5733 59.0883 39.5174C59.1143 39.4615 59.1289 39.4011 59.1316 39.3395C59.1325 39.2143 59.0874 39.0933 59.0047 38.9993C58.922 38.9054 58.8075 38.8449 58.6832 38.8299H56.4207C56.2998 38.8298 56.1836 38.8765 56.0962 38.96C56.0089 39.0436 55.9572 39.1577 55.9519 39.2785Z" fill="#EDDFD0"/>
<path d="M57.5215 34.6108L55.4832 35.6299C55.4265 35.6562 55.3755 35.6935 55.3334 35.7397C55.2913 35.7858 55.259 35.8398 55.2381 35.8987C55.2172 35.9575 55.2081 36.0199 55.2117 36.0823C55.2153 36.1447 55.2312 36.2056 55.2587 36.2617C55.2975 36.342 55.3586 36.4096 55.4344 36.4565C55.5102 36.5035 55.5978 36.5278 55.6869 36.5267C55.7605 36.5457 55.8376 36.5457 55.9111 36.5267L57.9494 35.5075C58.0654 35.4505 58.154 35.3501 58.196 35.2278C58.238 35.1056 58.23 34.9717 58.1736 34.8554C58.1472 34.7962 58.1094 34.7428 58.0622 34.6984C58.015 34.6539 57.9594 34.6194 57.8987 34.5966C57.838 34.5738 57.7734 34.5633 57.7086 34.5657C57.6438 34.5682 57.5803 34.5835 57.5215 34.6108Z" fill="#EDDFD0"/>
<path d="M55.0345 31.2882C54.9261 31.2187 54.7949 31.1948 54.669 31.2215C54.543 31.2482 54.4327 31.3233 54.3619 31.4308L53.1186 33.3061C53.0491 33.4145 53.0249 33.546 53.0516 33.6719C53.0783 33.7978 53.1537 33.9079 53.2611 33.9787C53.3482 33.9995 53.439 33.9995 53.5261 33.9787C53.6043 33.9765 53.6807 33.9551 53.7483 33.916C53.816 33.8768 53.8728 33.8212 53.9135 33.7545L55.1569 31.8794C55.2094 31.7822 55.2258 31.6695 55.2034 31.5614C55.181 31.4533 55.1212 31.3565 55.0345 31.2882Z" fill="#EDDFD0"/>
<path d="M68.6711 67.8965C68.7327 67.8989 68.794 67.8874 68.8505 67.8627C68.907 67.8379 68.9573 67.8008 68.9973 67.7539C69.045 67.7118 69.0831 67.6601 69.1093 67.6022C69.1355 67.5442 69.1491 67.4811 69.1491 67.4175C69.1491 67.3539 69.1355 67.2911 69.1093 67.2332C69.0831 67.1752 69.045 67.1235 68.9973 67.0814C66.9942 65.0814 64.8258 63.2539 62.5154 61.6186C64.5537 60.9052 66.5919 60.2732 68.7729 59.7432C68.896 59.714 69.0031 59.6384 69.0715 59.532C69.1399 59.4256 69.1644 59.2968 69.1399 59.1727C69.1062 59.048 69.0264 58.9407 68.9167 58.8726C68.807 58.8045 68.6754 58.7805 68.5487 58.8057C66.1639 59.3968 63.8199 60.1306 61.537 60.844C60.3344 60.0491 59.1113 59.2949 57.9087 58.6019C61.4279 57.2654 65.0559 56.2356 68.7525 55.524C68.8752 55.4993 68.9838 55.4283 69.0558 55.326C69.1278 55.2236 69.158 55.0975 69.1399 54.9736C69.1152 54.8468 69.0413 54.7349 68.9344 54.6624C68.8274 54.5898 68.6961 54.5625 68.5691 54.5865C64.554 55.3636 60.6175 56.5028 56.808 57.9903C55.4219 57.2361 54.0155 56.5635 52.7313 55.952C57.8876 53.8283 63.291 52.3627 68.8137 51.5899C68.9402 51.5698 69.0537 51.501 69.1299 51.3981C69.2062 51.2952 69.2391 51.1664 69.2215 51.0396C69.1972 50.9191 69.13 50.8117 69.0327 50.7367C68.9353 50.6618 68.8142 50.6246 68.6915 50.632C62.7782 51.4663 57.0006 53.0768 51.5084 55.422C49.9185 54.7494 48.3489 54.1787 46.861 53.6691C53.7699 50.4686 61.1858 48.5025 68.7729 47.8599C68.8354 47.8602 68.8973 47.8474 68.9545 47.8223C69.0118 47.7973 69.0631 47.7607 69.1053 47.7146C69.1475 47.6685 69.1796 47.6141 69.1996 47.5549C69.2196 47.4957 69.2272 47.433 69.2215 47.3707C69.2218 47.3083 69.209 47.2463 69.1839 47.1891C69.1589 47.1319 69.122 47.0805 69.076 47.0383C69.0299 46.9961 68.9757 46.964 68.9165 46.944C68.8573 46.924 68.7946 46.9167 68.7323 46.9224C60.6701 47.5791 52.7988 49.7213 45.5158 53.2411C40.9412 51.7861 36.2158 50.8561 31.431 50.469C31.3677 50.4663 31.3046 50.4763 31.2454 50.4986C31.1861 50.521 31.1318 50.5551 31.0861 50.5989C31.0404 50.6427 31.0042 50.6952 30.9794 50.7534C30.9546 50.8117 30.9417 50.8745 30.9418 50.9378C30.9361 51 30.9435 51.0627 30.9635 51.1219C30.9834 51.1811 31.0155 51.2356 31.0578 51.2817C31.1 51.3277 31.1513 51.3644 31.2085 51.3894C31.2658 51.4144 31.3277 51.4272 31.3902 51.427C31.6144 51.427 53.2818 52.5277 68.4061 67.7335C68.4733 67.8165 68.5668 67.8739 68.6711 67.8965Z" fill="#EDDFD0"/>
<path d="M61.5369 67.8964C61.6825 67.8954 61.8216 67.8369 61.924 67.7334C62.01 67.6426 62.0581 67.5221 62.0581 67.397C62.0581 67.2719 62.01 67.1517 61.924 67.0609C53.0935 60.1667 42.5792 55.761 31.4717 54.301C31.41 54.2924 31.3472 54.296 31.287 54.3119C31.2269 54.3278 31.1704 54.3556 31.1211 54.3935C31.0717 54.4315 31.0305 54.4791 30.9996 54.5331C30.9688 54.5872 30.9492 54.6468 30.9417 54.7085C30.9241 54.8354 30.9568 54.9642 31.033 55.0671C31.1092 55.17 31.2228 55.2388 31.3492 55.2589C42.276 56.6913 52.6212 61.0194 61.3127 67.7946C61.377 67.848 61.4544 67.883 61.5369 67.8964Z" fill="#EDDFD0"/>
<path d="M53.5873 67.8965C53.667 67.9 53.7461 67.8831 53.8175 67.8474C53.8888 67.8118 53.9499 67.7585 53.9949 67.6927C54.0594 67.583 54.0805 67.4531 54.0541 67.3287C54.0277 67.2042 53.9558 67.0942 53.8523 67.0201C46.9927 62.7215 39.3872 59.7483 31.4308 58.2552C31.3067 58.2307 31.1779 58.2553 31.0715 58.3237C30.9651 58.3921 30.8892 58.4992 30.86 58.6222C30.8413 58.7486 30.8706 58.8773 30.9424 58.983C31.0141 59.0887 31.1231 59.1635 31.2474 59.1928C39.0568 60.665 46.5183 63.5973 53.2407 67.8355C53.3469 67.8919 53.4683 67.9131 53.5873 67.8965Z" fill="#EDDFD0"/>
<path d="M31.4513 62.3726C31.3271 62.3415 31.1956 62.3603 31.0851 62.4251C30.9745 62.4899 30.8937 62.5955 30.8601 62.7192C30.829 62.8435 30.8478 62.9749 30.9126 63.0855C30.9774 63.196 31.0831 63.2766 31.2067 63.3102C35.6112 64.3801 39.8888 65.9176 43.9666 67.8964H44.1704C44.2596 67.8975 44.3472 67.8731 44.423 67.8262C44.4988 67.7793 44.5596 67.7117 44.5984 67.6314C44.6266 67.5765 44.6436 67.5167 44.6487 67.4552C44.6537 67.3937 44.6467 67.332 44.6278 67.2733C44.6088 67.2146 44.5784 67.1601 44.5384 67.1131C44.4984 67.0661 44.4496 67.0277 44.3946 66.9996C40.253 65.0109 35.9151 63.4601 31.4513 62.3726Z" fill="#EDDFD0"/>
<path d="M85.6503 56.278C86.7422 56.278 87.6274 55.3928 87.6274 54.3008C87.6274 53.2089 86.7422 52.3237 85.6503 52.3237C84.5583 52.3237 83.6731 53.2089 83.6731 54.3008C83.6731 55.3928 84.5583 56.278 85.6503 56.278Z" fill="#EDDFD0"/>
<path d="M13.7384 56.278C14.8304 56.278 15.7156 55.3928 15.7156 54.3008C15.7156 53.2089 14.8304 52.3237 13.7384 52.3237C12.6464 52.3237 11.7612 53.2089 11.7612 54.3008C11.7612 55.3928 12.6464 56.278 13.7384 56.278Z" fill="#EDDFD0"/>
</g>
<defs>
<clipPath id="clip0">
<rect width="100" height="100" fill="white"/>
</clipPath>
</defs>
</svg>
