<svg width="100" height="100" viewBox="0 0 100 100" fill="none" xmlns="http://www.w3.org/2000/svg">
<g clip-path="url(#clip0)">
<path d="M50.0205 100.021C36.7627 100.004 24.0524 94.7321 14.6758 85.3594C5.29925 75.9866 0.0215738 63.2784 0 50.0207C0.0269625 36.7665 5.30705 24.0635 14.683 14.6952C24.059 5.32685 36.7662 0.0571716 50.0205 0.0410156C63.2782 0.0625894 75.9864 5.34027 85.3591 14.7168C94.7319 24.0934 100.004 36.8037 100.021 50.0615C99.9882 63.3086 94.7087 76.0032 85.3377 85.3666C75.9668 94.7299 63.2676 99.9991 50.0205 100.021Z" fill="#520091"/>
<path d="M22.0339 41.9894C21.8074 42.8624 21.3497 43.6581 20.7089 44.2927C20.0557 44.9217 19.2465 45.365 18.3648 45.5769C17.4166 45.8303 16.4187 45.8303 15.4705 45.5769C14.5226 45.3405 13.652 44.8631 12.943 44.191C12.2772 43.5823 11.7966 42.7981 11.5569 41.9285C11.3118 41.0483 11.3118 40.1178 11.5569 39.2377C11.7542 38.4752 12.1398 37.7744 12.6781 37.1994C13.1902 36.6643 13.8174 36.2531 14.5123 35.9969C15.1633 35.7549 15.8574 35.6507 16.5507 35.6911L16.0207 37.7294C15.6472 37.7327 15.279 37.8161 14.9406 37.974C14.5802 38.1505 14.2607 38.4004 14.0028 38.7078C13.7227 39.0391 13.5208 39.4293 13.4118 39.8493C13.2589 40.3821 13.2589 40.947 13.4118 41.4798C13.579 42.0149 13.889 42.4943 14.3086 42.866C14.7895 43.2849 15.3621 43.5849 15.9801 43.7423C16.5892 43.8934 17.2258 43.8934 17.8348 43.7423C18.3929 43.639 18.9095 43.3772 19.3228 42.9882C19.7223 42.6027 20.011 42.1171 20.1585 41.5819C20.3463 40.9626 20.303 40.2961 20.0364 39.7065C19.7935 39.1735 19.3957 38.726 18.8948 38.4224L19.4248 36.384C20.0589 36.6918 20.6215 37.1293 21.0759 37.6682C21.5701 38.256 21.913 38.9558 22.0747 39.7065C22.2469 40.4595 22.2329 41.2431 22.0339 41.9894Z" fill="#EDDFD0"/>
<path d="M27.8847 30.9419C27.3047 31.6433 26.5433 32.1721 25.6835 32.4707C24.8234 32.7599 23.902 32.8161 23.0131 32.6336C22.0628 32.4164 21.1807 31.9684 20.4448 31.3291C19.689 30.7097 19.1004 29.9108 18.7327 29.0054C18.4063 28.1554 18.3079 27.235 18.4473 26.3353C18.606 25.446 19.0001 24.6153 19.5886 23.93C20.1692 23.2337 20.9313 22.7117 21.7902 22.4216C22.6413 22.123 23.5585 22.0666 24.4399 22.2587C25.4025 22.4581 26.2955 22.9081 27.0286 23.5632C27.7849 24.1776 28.3681 24.9785 28.7205 25.8869C29.0666 26.7249 29.1654 27.6442 29.0057 28.5366C28.8587 29.4257 28.4711 30.2576 27.8847 30.9419ZM26.3968 29.6986C26.7576 29.2843 26.9911 28.7745 27.0694 28.2308C27.1532 27.6722 27.0828 27.1014 26.8656 26.5799C26.6099 25.9995 26.2183 25.4892 25.724 25.092C25.2544 24.668 24.6874 24.3668 24.0731 24.2154C23.5266 24.0612 22.948 24.0612 22.4015 24.2154C21.876 24.3784 21.409 24.69 21.0564 25.1124C20.6994 25.5291 20.4662 26.0374 20.3836 26.5799C20.3072 27.1404 20.3847 27.711 20.6078 28.2308C20.8635 28.8111 21.2551 29.3217 21.7494 29.719C22.2189 30.1429 22.786 30.4439 23.4003 30.5953C23.9399 30.7488 24.5118 30.7488 25.0515 30.5953C25.5722 30.4225 26.037 30.1128 26.3968 29.6986Z" fill="#EDDFD0"/>
<path d="M33.7134 24.7657L29.6367 14.9817L32.5922 13.7791L37.688 19.7515L37.9734 19.6495L37.4842 11.8224L40.4399 10.6196L44.3941 20.4037L42.5392 21.1578L39.7875 14.3907H39.5021L39.9709 22.0954L37.9326 22.8904L32.898 17.02L32.633 17.1424L35.3645 23.9095L33.7134 24.7657Z" fill="#EDDFD0"/>
<path d="M48.6338 20.2609L49.4696 9.72266L54.2392 10.1098C54.8374 10.1468 55.4148 10.344 55.9107 10.6806C56.3824 11.0268 56.7549 11.4907 56.9911 12.026C57.2337 12.6124 57.3316 13.2487 57.2765 13.8809C57.2289 14.5309 57.0261 15.1597 56.6853 15.7152C56.3746 16.2078 55.9384 16.6089 55.4216 16.8772C54.8727 17.1264 54.2694 17.2317 53.6686 17.183L50.9167 16.9588L50.6316 20.4238L48.6338 20.2609ZM53.7296 15.2464C53.9823 15.2621 54.2351 15.2131 54.4636 15.1039C54.689 14.9766 54.8781 14.7943 55.0137 14.5739C55.1643 14.3203 55.2484 14.0328 55.2583 13.7381C55.3134 13.3193 55.204 12.8956 54.9528 12.556C54.8441 12.4004 54.7013 12.2716 54.5353 12.1797C54.3692 12.0879 54.1841 12.0353 53.9946 12.026L51.3245 11.8222L51.0595 15.0222L53.7296 15.2464Z" fill="#EDDFD0"/>
<path d="M59.9473 21.8712L64.7373 12.4746L69.0585 14.6762C69.5939 14.9331 70.046 15.3357 70.3631 15.8379C70.6711 16.3345 70.84 16.9048 70.8522 17.489C70.8452 18.1203 70.6918 18.7411 70.4039 19.3029C70.1434 19.8463 69.7508 20.3159 69.2623 20.6687C68.8106 20.9878 68.2839 21.1845 67.7335 21.2395C67.2068 21.302 66.6735 21.2024 66.2048 20.9541L65.6343 20.6687L65.838 20.2815L67.4484 25.7033L65.2264 24.5824L63.8609 19.8125L63.3718 19.5679L61.741 22.7886L59.9473 21.8712ZM66.6738 19.1808C66.8916 19.2996 67.1404 19.3492 67.3872 19.3233C67.6378 19.2856 67.8756 19.1876 68.0801 19.0379C68.3145 18.8692 68.5036 18.6452 68.6305 18.3858C68.8313 18.0114 68.8892 17.5768 68.7935 17.1628C68.7523 16.9816 68.6704 16.812 68.5539 16.6672C68.4373 16.5224 68.2892 16.4061 68.1209 16.3271L65.6751 15.0633L64.2073 17.9374L66.6738 19.1808Z" fill="#EDDFD0"/>
<path d="M69.6494 27.3135L80.208 23.5835L82.0219 25.846L76.1719 35.4056L74.8064 33.6935L79.5556 26.1924L79.3518 25.9478L71.0152 29.0053L69.6494 27.3135ZM73.0331 27.8231L74.419 26.7019L77.7823 30.7786L76.376 31.8998L73.0331 27.8231Z" fill="#EDDFD0"/>
<path d="M77.3135 38.1573L87.5051 35.3242L88.8096 40.0122C88.9728 40.5851 88.9728 41.1922 88.8096 41.7651C88.6629 42.3277 88.3588 42.8367 87.933 43.2327C87.471 43.6604 86.9112 43.9684 86.3025 44.1296C85.7142 44.2807 85.0972 44.2807 84.5088 44.1296C83.9691 44.0199 83.4689 43.7664 83.0614 43.3959C82.6613 43.0438 82.3713 42.5837 82.2259 42.0709L82.0627 41.4593L82.4909 41.3372L79.576 46.2088L78.9034 43.8034L81.4919 39.5842L81.3493 39.0543L77.8639 40.0326L77.3135 38.1573ZM83.8564 41.2964C83.9208 41.5346 84.056 41.7479 84.2438 41.908C84.4314 42.08 84.6651 42.1931 84.9164 42.2339C85.1975 42.3038 85.4915 42.3038 85.7726 42.2339C86.1841 42.1443 86.5433 41.8951 86.7713 41.5409C86.8793 41.3893 86.9518 41.2153 86.9836 41.0319C87.0153 40.8484 87.0054 40.6601 86.9547 40.481L86.2005 37.8109L83.1226 38.6872L83.8564 41.2964Z" fill="#EDDFD0"/>
<path d="M16.9385 76.0294L27.1301 71.1782L29.1684 73.2165L24.358 83.4081L22.8088 81.859L26.7427 73.8687L26.5185 73.6649L18.5488 77.6193L16.9385 76.0294ZM20.3627 76.172L21.6265 74.9083L25.3976 78.6588L24.1338 79.943L20.3627 76.172Z" fill="#EDDFD0"/>
<path d="M33.4082 88.5648C32.5911 88.2103 31.8864 87.6394 31.3699 86.9138C30.8244 86.1847 30.4992 85.3148 30.4323 84.4067C30.3538 83.4275 30.5293 82.4445 30.9419 81.553C31.3129 80.6496 31.9094 79.8566 32.6744 79.2497C33.3957 78.6909 34.2552 78.3386 35.1611 78.2305C36.0566 78.1145 36.9667 78.2485 37.7907 78.6178C38.5017 78.9117 39.1312 79.3733 39.6252 79.9632C40.0724 80.5113 40.3925 81.1517 40.5627 81.8384C40.7486 82.501 40.7972 83.1946 40.7056 83.8767L38.7894 83.0613C38.7897 82.5132 38.6186 81.9787 38.3002 81.5326C37.9994 81.0438 37.5491 80.6651 37.0161 80.4523C36.5128 80.2216 35.9548 80.1369 35.4057 80.2077C34.8493 80.2973 34.3278 80.5368 33.8974 80.9007C33.4067 81.305 33.0221 81.8227 32.7765 82.409C32.5175 82.9917 32.3987 83.6271 32.4299 84.264C32.4533 84.827 32.6372 85.3716 32.9598 85.8335C33.2781 86.2891 33.7152 86.6486 34.2236 86.873C34.6718 87.0707 35.1618 87.1547 35.6503 87.1176C36.0883 87.0818 36.5131 86.9497 36.8939 86.7304C37.2157 86.5377 37.4877 86.2725 37.6886 85.9558L37.9944 85.4462L38.1982 86.0781L35.3853 84.8755L35.9765 83.5302L40.0532 85.3442L37.8519 90.4198L36.4657 89.8082L36.7919 88.6463C36.4959 88.7977 36.1804 88.9075 35.8543 88.9725C35.4688 89.0241 35.0779 89.0241 34.6924 88.9725C34.2451 88.907 33.8114 88.7693 33.4082 88.5648Z" fill="#EDDFD0"/>
<path d="M49.7352 92.0099C48.8289 91.999 47.9421 91.7457 47.1669 91.2761C46.3781 90.786 45.748 90.0781 45.3527 89.2378C44.9037 88.3694 44.6795 87.4023 44.7006 86.4249C44.7036 85.4468 44.9561 84.4857 45.4343 83.6324C45.8735 82.8404 46.5224 82.1845 47.3097 81.7368C48.0937 81.2775 48.9896 81.0446 49.8981 81.0641C50.7979 81.0757 51.678 81.3291 52.446 81.7979C53.2348 82.288 53.8649 82.9959 54.2602 83.8362C54.7124 84.7027 54.9304 85.6724 54.8922 86.6491C54.9057 87.6267 54.6595 88.5903 54.1788 89.4416C53.7401 90.2393 53.0915 90.9018 52.3035 91.3576C51.5249 91.8102 50.6353 92.0361 49.7352 92.0099ZM49.7352 89.9716C50.2869 89.9915 50.8324 89.8498 51.3047 89.5639C51.7882 89.2662 52.1824 88.8438 52.446 88.3409C52.7269 87.7774 52.8736 87.1565 52.8743 86.5268C52.9008 85.8925 52.7675 85.2618 52.4868 84.6924C52.2404 84.1797 51.8603 83.743 51.3863 83.4285C50.9224 83.1363 50.3855 82.981 49.8372 82.9802C49.2866 82.9702 48.7438 83.1113 48.2676 83.3878C47.7856 83.681 47.3967 84.1051 47.1465 84.6108C46.8555 85.1788 46.7019 85.8072 46.6981 86.4453C46.6861 87.0718 46.8187 87.6926 47.0855 88.2595C47.3266 88.7756 47.7079 89.2135 48.186 89.5232C48.6446 89.8552 49.1901 90.0463 49.7556 90.0735L49.7352 89.9716Z" fill="#EDDFD0"/>
<path d="M61.6178 90.4201L57.7656 80.5954L62.2906 78.822C62.8365 78.5891 63.436 78.5114 64.0232 78.5977C64.5951 78.7017 65.1295 78.9549 65.5723 79.3316C66.0533 79.748 66.4184 80.2815 66.6323 80.8806C66.8676 81.4331 66.9588 82.0363 66.8973 82.6337C66.8472 83.1885 66.6423 83.7182 66.3061 84.1624C65.9972 84.591 65.5732 84.9231 65.0831 85.1204L64.4919 85.3445L64.329 84.937L69.4656 87.3422L67.1419 88.239L62.6778 86.2007L62.1682 86.3841L63.4932 89.7678L61.6178 90.4201ZM64.064 83.5916C64.2952 83.5033 64.4943 83.347 64.6348 83.1433C64.7803 82.9308 64.8713 82.6857 64.8997 82.4298C64.9178 82.1457 64.876 81.8611 64.7773 81.5941C64.6325 81.1905 64.3415 80.8559 63.962 80.6564C63.6158 80.5148 63.228 80.5148 62.8818 80.6564L60.3339 81.6756L61.4957 84.6516L64.064 83.5916Z" fill="#EDDFD0"/>
<path d="M74.6436 84.2031L70.2002 74.0115L72.2385 71.9731L82.1651 77.1506L80.5752 78.6385L72.7481 74.4192L72.5239 74.6231L76.1519 82.7763L74.6436 84.2031ZM74.929 80.7991L73.706 79.4741L77.5993 75.846L78.8222 77.171L74.929 80.7991Z" fill="#EDDFD0"/>
<path d="M45.8213 38.9931C45.8213 40.0743 46.2508 41.1112 47.0154 41.8757C47.7799 42.6402 48.8167 43.0698 49.8979 43.0698C50.9791 43.0698 52.0162 42.6402 52.7807 41.8757C53.5453 41.1112 53.9746 40.0743 53.9746 38.9931C53.9746 37.912 53.5453 36.8751 52.7807 36.1106C52.0162 35.3461 50.9791 34.9165 49.8979 34.9165C48.8167 34.9165 47.7799 35.3461 47.0154 36.1106C46.2508 36.8751 45.8213 37.912 45.8213 38.9931ZM49.8979 35.8135C50.7413 35.8135 51.5502 36.1485 52.1465 36.7448C52.7428 37.3411 53.0778 38.1498 53.0778 38.9931C53.0778 39.8365 52.7428 40.6454 52.1465 41.2417C51.5502 41.838 50.7413 42.173 49.8979 42.173C49.0546 42.173 48.2459 41.838 47.6496 41.2417C47.0533 40.6454 46.7183 39.8365 46.7183 38.9931C46.718 38.5651 46.8042 38.1413 46.9716 37.7473C47.139 37.3533 47.3841 36.9972 47.6924 36.7003C48.0007 36.4034 48.3658 36.1719 48.7658 36.0195C49.1658 35.8671 49.5926 35.797 50.0203 35.8135H49.8979Z" fill="#EDDFD0"/>
<path d="M50.4277 32.5113V30.2486C50.4277 30.1242 50.3785 30.0051 50.2906 29.9171C50.2027 29.8292 50.0832 29.7798 49.9589 29.7798C49.8326 29.7797 49.7112 29.8285 49.62 29.9159C49.5288 30.0033 49.475 30.1224 49.4697 30.2486V32.5113C49.4697 32.5746 49.4825 32.6372 49.5073 32.6954C49.5321 32.7537 49.5686 32.8064 49.6143 32.8502C49.66 32.894 49.714 32.9282 49.7733 32.9505C49.8325 32.9728 49.8956 32.9828 49.9589 32.9801C50.0832 32.9801 50.2027 32.9307 50.2906 32.8427C50.3785 32.7548 50.4277 32.6357 50.4277 32.5113Z" fill="#EDDFD0"/>
<path d="M46.0459 31.166C45.9819 31.0571 45.8781 30.9772 45.7566 30.9431C45.635 30.9089 45.5049 30.9231 45.3935 30.9826C45.2847 31.0466 45.2048 31.1502 45.1706 31.2717C45.1364 31.3933 45.1506 31.5234 45.2102 31.6348L46.3311 33.6731C46.3693 33.748 46.4279 33.8107 46.5 33.854C46.5721 33.8972 46.6548 33.9192 46.7389 33.9177H46.9835C47.0923 33.8537 47.1722 33.7501 47.2064 33.6286C47.2406 33.507 47.2264 33.3769 47.1669 33.2655L46.0459 31.166Z" fill="#EDDFD0"/>
<path d="M44.6189 35.2831L42.6826 34.1211C42.5713 34.0616 42.4412 34.0476 42.3196 34.0818C42.198 34.116 42.0943 34.1959 42.0302 34.3047C41.9972 34.358 41.9752 34.4172 41.9655 34.4792C41.9559 34.5411 41.9588 34.6045 41.974 34.6653C41.9892 34.7261 42.0164 34.7831 42.0541 34.8332C42.0918 34.8833 42.1393 34.9254 42.1935 34.9569L44.1298 36.0982C44.2103 36.1159 44.2938 36.1159 44.3744 36.0982C44.4575 36.0955 44.5387 36.0716 44.61 36.0288C44.6813 35.986 44.7406 35.9257 44.7822 35.8536C44.825 35.7543 44.832 35.6434 44.8023 35.5394C44.7726 35.4354 44.7078 35.3448 44.6189 35.2831Z" fill="#EDDFD0"/>
<path d="M41.2151 38.3613C41.0889 38.3666 40.9696 38.4204 40.8822 38.5116C40.7948 38.6028 40.746 38.7242 40.7461 38.8505C40.7461 38.9748 40.7955 39.094 40.8834 39.1819C40.9714 39.2699 41.0908 39.3193 41.2151 39.3193H43.4572C43.5816 39.3193 43.7007 39.2699 43.7886 39.1819C43.8766 39.094 43.926 38.9748 43.926 38.8505C43.9287 38.7872 43.9187 38.7239 43.8964 38.6646C43.8741 38.6054 43.8399 38.5514 43.7961 38.5056C43.7523 38.4599 43.6996 38.4235 43.6413 38.3987C43.5831 38.3738 43.5205 38.3613 43.4572 38.3613H41.2151Z" fill="#EDDFD0"/>
<path d="M44.0476 41.6837L42.0093 42.7842C41.9524 42.81 41.9017 42.8476 41.86 42.8942C41.8184 42.9409 41.7869 42.9957 41.7677 43.0552C41.7485 43.1147 41.742 43.1774 41.7486 43.2396C41.7551 43.3018 41.7744 43.362 41.8055 43.4162C41.8493 43.4924 41.9115 43.5566 41.9862 43.6028C42.0609 43.6491 42.146 43.676 42.2338 43.6812C42.307 43.7022 42.3847 43.7022 42.4579 43.6812L44.4963 42.6009C44.6086 42.5402 44.6928 42.4381 44.7309 42.3162C44.769 42.1943 44.7579 42.0625 44.7 41.9487C44.6756 41.8877 44.6389 41.8323 44.5926 41.7857C44.5462 41.7392 44.491 41.7022 44.4301 41.6775C44.3692 41.6528 44.3039 41.6406 44.2382 41.6417C44.1725 41.6427 44.1077 41.6571 44.0476 41.6837Z" fill="#EDDFD0"/>
<path d="M45.1282 46.922C45.2076 46.9484 45.2934 46.9484 45.3728 46.922C45.4544 46.9233 45.5349 46.9033 45.6064 46.864C45.6779 46.8247 45.738 46.7674 45.7806 46.6978L46.9627 44.6595C46.9966 44.6074 47.0197 44.5492 47.0309 44.4881C47.0421 44.4269 47.0412 44.3641 47.0279 44.3034C47.0147 44.2427 46.9895 44.1853 46.9538 44.1345C46.9181 44.0836 46.8727 44.0402 46.8202 44.0071C46.7653 43.9736 46.7043 43.9513 46.6408 43.9414C46.5773 43.9315 46.5124 43.9342 46.4499 43.9494C46.3875 43.9645 46.3287 43.9918 46.2768 44.0297C46.2248 44.0676 46.1808 44.1154 46.1474 44.1703L44.9652 46.0862C44.8994 46.1425 44.8496 46.2152 44.8212 46.297C44.7927 46.3787 44.7864 46.4668 44.803 46.5518C44.8196 46.6367 44.8586 46.7156 44.9157 46.7807C44.9728 46.8457 45.0461 46.8946 45.1282 46.922Z" fill="#EDDFD0"/>
<path d="M49.2661 45.4547V47.7172C49.2633 47.7805 49.2734 47.8436 49.2957 47.9028C49.318 47.9621 49.3521 48.0161 49.396 48.0618C49.4398 48.1075 49.4925 48.144 49.5507 48.1688C49.609 48.1936 49.6715 48.2064 49.7348 48.2064C49.8592 48.2064 49.9784 48.157 50.0663 48.069C50.1542 47.9811 50.2036 47.8619 50.2036 47.7376V45.4955C50.2064 45.4322 50.1963 45.3689 50.174 45.3096C50.1517 45.2504 50.1175 45.1964 50.0737 45.1506C50.0299 45.1049 49.9775 45.0685 49.9192 45.0437C49.861 45.0188 49.7982 45.0063 49.7348 45.0063C49.6743 45.0036 49.6137 45.0129 49.5569 45.0342C49.5002 45.0555 49.4482 45.0883 49.4044 45.1302C49.3606 45.1722 49.3259 45.2225 49.3021 45.2783C49.2783 45.3341 49.266 45.3941 49.2661 45.4547Z" fill="#EDDFD0"/>
<path d="M52.751 44.313C52.6387 44.3737 52.5545 44.4758 52.5164 44.5977C52.4783 44.7196 52.4894 44.8516 52.5473 44.9654L53.6072 47.0038C53.646 47.0841 53.7068 47.1517 53.7826 47.1986C53.8585 47.2455 53.946 47.2699 54.0352 47.2688H54.2594C54.3682 47.2047 54.4481 47.101 54.4823 46.9794C54.5165 46.8578 54.5025 46.7277 54.443 46.6164L53.4034 44.578C53.3815 44.5151 53.3463 44.4576 53.3004 44.4093C53.2545 44.3611 53.1989 44.3232 53.1372 44.2981C53.0755 44.273 53.0092 44.2614 52.9426 44.264C52.8761 44.2666 52.8106 44.2833 52.751 44.313Z" fill="#EDDFD0"/>
<path d="M55.0138 42.234C54.9506 42.3406 54.9301 42.4673 54.9566 42.5884C54.9831 42.7094 55.0547 42.816 55.1567 42.8864L57.0726 44.089C57.152 44.1154 57.2378 44.1154 57.3172 44.089C57.3987 44.0903 57.4793 44.0703 57.5508 44.031C57.6223 43.9917 57.6824 43.9344 57.725 43.8648C57.7589 43.8127 57.782 43.7545 57.7932 43.6934C57.8043 43.6323 57.8032 43.5694 57.7899 43.5087C57.7766 43.4481 57.7514 43.3907 57.7158 43.3398C57.6801 43.2889 57.6347 43.2458 57.5822 43.2126L55.6867 41.9895C55.6268 41.9589 55.5613 41.9411 55.4943 41.937C55.4273 41.9328 55.3601 41.9426 55.297 41.9656C55.2339 41.9885 55.1763 42.0241 55.1276 42.0703C55.0788 42.1165 55.0401 42.1722 55.0138 42.234Z" fill="#EDDFD0"/>
<path d="M55.9516 39.2987C55.9489 39.3603 55.9582 39.4217 55.9793 39.4796C56.0003 39.5375 56.0327 39.5909 56.0743 39.6364C56.116 39.6818 56.1662 39.7186 56.2221 39.7446C56.278 39.7706 56.3384 39.7853 56.4 39.7879L58.6625 39.9103C58.7834 39.9104 58.8996 39.8637 58.987 39.7802C59.0743 39.6966 59.126 39.5825 59.1313 39.4617C59.137 39.3352 59.0935 39.2116 59.0099 39.1166C58.9262 39.0216 58.8091 38.9625 58.6829 38.9521H56.4408C56.3324 38.9474 56.2253 38.979 56.1368 39.0417C56.0482 39.1044 55.9832 39.1949 55.9516 39.2987Z" fill="#EDDFD0"/>
<path d="M57.542 34.6923L55.5036 35.7114C55.4487 35.7395 55.4001 35.7782 55.3601 35.8251C55.3201 35.8721 55.2897 35.9264 55.2707 35.9851C55.2518 36.0438 55.2446 36.1055 55.2496 36.167C55.2546 36.2285 55.2717 36.2886 55.2999 36.3434C55.3386 36.4237 55.3995 36.4913 55.4753 36.5383C55.5511 36.5852 55.6389 36.6093 55.7281 36.6082H55.9319L57.9702 35.589C58.0278 35.5611 58.0789 35.5218 58.1207 35.4733C58.1625 35.4248 58.1939 35.3682 58.213 35.3071C58.2321 35.246 58.2387 35.1817 58.2319 35.118C58.2252 35.0543 58.2054 34.9926 58.174 34.9369C58.1497 34.8784 58.1138 34.8256 58.0685 34.7813C58.0231 34.7371 57.9693 34.7024 57.9102 34.6796C57.8512 34.6567 57.7881 34.646 57.7248 34.6482C57.6616 34.6504 57.5993 34.6654 57.542 34.6923Z" fill="#EDDFD0"/>
<path d="M55.034 31.3082C54.982 31.2743 54.9237 31.2512 54.8626 31.24C54.8015 31.2289 54.7389 31.23 54.6782 31.2433C54.6175 31.2566 54.5599 31.2818 54.509 31.3174C54.4582 31.3531 54.4151 31.3985 54.3819 31.451L53.1386 33.3261C53.1047 33.3782 53.0813 33.4365 53.0701 33.4976C53.0589 33.5587 53.0601 33.6215 53.0734 33.6822C53.0866 33.7429 53.1118 33.8003 53.1475 33.8511C53.1832 33.902 53.2286 33.9454 53.2811 33.9785C53.3605 34.005 53.4463 34.005 53.5257 33.9785C53.6057 33.9841 53.6857 33.9681 53.7574 33.9323C53.8291 33.8964 53.89 33.8421 53.9335 33.7748L55.1769 31.8994C55.2233 31.7992 55.2344 31.6863 55.2085 31.5789C55.1826 31.4716 55.121 31.3762 55.034 31.3082Z" fill="#EDDFD0"/>
<path d="M68.6706 67.9165C68.7351 67.9179 68.7991 67.9059 68.8587 67.8813C68.9184 67.8568 68.9721 67.8202 69.017 67.7739C69.103 67.683 69.1511 67.5627 69.1511 67.4376C69.1511 67.3125 69.103 67.1922 69.017 67.1013C67.0094 65.1061 64.8417 63.279 62.5353 61.6385C64.5736 60.9251 66.6118 60.2934 68.7928 59.7634C68.9165 59.7299 69.0221 59.649 69.0869 59.5385C69.1517 59.4279 69.1706 59.2965 69.1394 59.1722C69.1059 59.0529 69.0284 58.9506 68.9224 58.8863C68.8165 58.822 68.6899 58.8003 68.5686 58.8256C66.1938 59.4095 63.853 60.1241 61.5569 60.9659C60.3543 60.1506 59.1312 59.3965 57.9082 58.7034C61.4389 57.3856 65.0727 56.3629 68.7724 55.6459C68.8347 55.6339 68.894 55.6093 68.9466 55.5738C68.9991 55.5382 69.0439 55.4925 69.0782 55.4392C69.1125 55.3858 69.1356 55.3261 69.1461 55.2635C69.1567 55.201 69.1543 55.1368 69.1394 55.0752C69.1299 55.0137 69.1077 54.9549 69.0742 54.9025C69.0407 54.85 68.9968 54.8051 68.9451 54.7706C68.8933 54.7361 68.8349 54.7127 68.7736 54.7019C68.7124 54.6912 68.6494 54.6933 68.589 54.7081C64.565 55.4759 60.6209 56.6155 56.8075 58.1122C55.4214 57.3581 54.0354 56.6854 52.7308 56.0739C57.8863 53.9478 63.29 52.4821 68.8132 51.7119C68.9374 51.6872 69.0479 51.6173 69.1232 51.5156C69.1986 51.4138 69.2336 51.2875 69.221 51.1615C69.2009 51.035 69.1318 50.9217 69.0289 50.8455C68.926 50.7693 68.7975 50.7363 68.6706 50.7539C62.7645 51.5914 56.9941 53.2018 51.5079 55.5439C49.918 54.8713 48.3484 54.3006 46.8401 53.791C53.7449 50.5793 61.1629 48.6127 68.752 47.9818C68.8153 47.9819 68.8781 47.9691 68.9364 47.9443C68.9946 47.9194 69.0473 47.883 69.0911 47.8373C69.1349 47.7916 69.1688 47.7375 69.1912 47.6783C69.2135 47.619 69.2238 47.5559 69.221 47.4927C69.2184 47.4284 69.203 47.3651 69.176 47.3068C69.1489 47.2484 69.1106 47.1961 69.0633 47.1525C69.0159 47.109 68.9607 47.0751 68.9003 47.053C68.8399 47.0309 68.7757 47.0212 68.7114 47.0239C60.6583 47.7091 52.7977 49.8573 45.5153 53.363C40.9433 51.8979 36.2167 50.9677 31.4305 50.5909C31.3662 50.5882 31.302 50.598 31.2416 50.6201C31.1812 50.6422 31.1257 50.676 31.0784 50.7196C31.0311 50.7631 30.993 50.8155 30.9659 50.8739C30.9389 50.9322 30.9235 50.9955 30.9209 51.0597C30.9208 51.186 30.9696 51.3074 31.057 51.3986C31.1444 51.4898 31.2635 51.5436 31.3897 51.5489C31.5935 51.5489 53.2813 52.6496 68.4056 67.8555C68.4844 67.9056 68.5779 67.9271 68.6706 67.9165Z" fill="#EDDFD0"/>
<path d="M61.5568 67.9167C61.6284 67.9193 61.6995 67.9038 61.7636 67.8718C61.8277 67.8397 61.8826 67.7922 61.9235 67.7333C62.0096 67.6425 62.0577 67.522 62.0577 67.3969C62.0577 67.2718 62.0096 67.1515 61.9235 67.0606C53.0878 60.1789 42.5751 55.781 31.4712 54.3211C31.4091 54.3095 31.3452 54.3112 31.2838 54.3259C31.2224 54.3406 31.1649 54.368 31.1149 54.4065C31.0648 54.445 31.0236 54.4935 30.9937 54.5491C30.9637 54.6046 30.9458 54.6658 30.9412 54.7287C30.9236 54.8555 30.9563 54.9844 31.0325 55.0872C31.1087 55.1901 31.2223 55.259 31.3487 55.2791C42.2755 56.7114 52.6207 61.0395 61.3122 67.8148C61.3842 67.8682 61.4682 67.9032 61.5568 67.9167Z" fill="#EDDFD0"/>
<path d="M53.5266 67.917C53.6048 67.9149 53.6812 67.8932 53.7488 67.854C53.8165 67.8149 53.8733 67.7595 53.914 67.6928C53.9479 67.6408 53.971 67.5825 53.9822 67.5214C53.9934 67.4603 53.9923 67.3976 53.979 67.3369C53.9657 67.2762 53.9405 67.2187 53.9048 67.1678C53.8692 67.1169 53.8238 67.0737 53.7712 67.0405C46.9193 62.7266 39.3108 59.7522 31.3497 58.2757C31.2893 58.2608 31.2266 58.2587 31.1653 58.2694C31.104 58.2802 31.0456 58.3036 30.9939 58.3381C30.9421 58.3726 30.898 58.4175 30.8645 58.47C30.831 58.5224 30.8088 58.5812 30.7993 58.6427C30.7748 58.7668 30.7993 58.8955 30.8677 59.002C30.9361 59.1084 31.0432 59.1842 31.1663 59.2135C38.9803 60.6807 46.4484 63.6056 53.1803 67.8355C53.2281 67.8744 53.284 67.902 53.344 67.9161C53.404 67.9303 53.4665 67.9305 53.5266 67.917Z" fill="#EDDFD0"/>
<path d="M31.4517 62.3931C31.3304 62.3678 31.2038 62.3895 31.0979 62.4538C30.9919 62.5181 30.9144 62.6204 30.8809 62.7397C30.8497 62.864 30.8686 62.9954 30.9334 63.106C30.9982 63.2165 31.1038 63.2974 31.2275 63.3309C35.6286 64.4031 39.9052 65.9333 43.9874 67.8966C44.0538 67.917 44.1248 67.917 44.1912 67.8966C44.2803 67.8977 44.3679 67.8734 44.4437 67.8264C44.5196 67.7795 44.5804 67.7119 44.6192 67.6316C44.6755 67.5153 44.6836 67.3815 44.6415 67.2593C44.5995 67.137 44.5109 67.0365 44.395 66.9795C40.2546 64.998 35.916 63.4606 31.4517 62.3931Z" fill="#EDDFD0"/>
<path d="M85.65 56.2781C86.742 56.2781 87.6272 55.3929 87.6272 54.3009C87.6272 53.2089 86.742 52.3237 85.65 52.3237C84.5581 52.3237 83.6729 53.2089 83.6729 54.3009C83.6729 55.3929 84.5581 56.2781 85.65 56.2781Z" fill="#EDDFD0"/>
<path d="M13.7379 56.2781C14.8299 56.2781 15.7151 55.3929 15.7151 54.3009C15.7151 53.2089 14.8299 52.3237 13.7379 52.3237C12.646 52.3237 11.7607 53.2089 11.7607 54.3009C11.7607 55.3929 12.646 56.2781 13.7379 56.2781Z" fill="#EDDFD0"/>
</g>
<defs>
<clipPath id="clip0">
<rect width="100" height="100" fill="white"/>
</clipPath>
</defs>
</svg>
