<svg width="100" height="100" viewBox="0 0 100 100" fill="none" xmlns="http://www.w3.org/2000/svg">
<g clip-path="url(#clip0)">
<path d="M49.9998 100.061C36.7421 100.04 24.0339 94.762 14.6611 85.3855C5.28839 76.0089 0.0161702 63.2986 0 50.0408C0.0215604 36.7866 5.29619 24.0815 14.6683 14.7094C24.0405 5.33721 36.7456 0.062576 49.9998 0.0410156C63.2575 0.0571858 75.9682 5.32941 85.3447 14.7021C94.7213 24.0749 99.9987 36.7831 100.02 50.0408C100.004 63.3021 94.7291 76.0156 85.3519 85.3927C75.9748 94.7698 63.2611 100.045 49.9998 100.061Z" fill="#EDDFD0"/>
<path d="M22.0337 41.9893C21.8033 42.8652 21.3384 43.6616 20.6886 44.2926C20.0409 44.9291 19.2295 45.3736 18.3444 45.5767C17.4032 45.8303 16.4116 45.8303 15.4703 45.5767C14.5207 45.3447 13.649 44.8666 12.9428 44.1906C12.2763 43.5743 11.796 42.7833 11.5567 41.9077C11.3223 41.033 11.3223 40.1122 11.5567 39.2376C11.7599 38.473 12.1526 37.772 12.6983 37.1993C13.2027 36.6645 13.8234 36.2528 14.5124 35.9965C15.1657 35.7621 15.8569 35.6516 16.5507 35.6705L16.0207 37.7088C15.6473 37.7121 15.2788 37.7955 14.9404 37.9534C14.5819 38.1239 14.2627 38.3668 14.0028 38.6668C13.7266 39.0085 13.5252 39.4042 13.4116 39.8285C13.2587 40.3613 13.2587 40.9265 13.4116 41.4593C13.5842 41.9918 13.8936 42.4698 14.3086 42.8455C14.7895 43.2643 15.3619 43.5644 15.9799 43.7218C16.59 43.8643 17.2248 43.8643 17.8349 43.7218C18.3898 43.6092 18.9039 43.3486 19.3228 42.9676C19.7224 42.5822 20.0111 42.0965 20.1586 41.5613C20.3464 40.9421 20.3028 40.2756 20.0362 39.686C19.805 39.1455 19.4045 38.6948 18.8948 38.4018L19.4246 36.3635C20.0522 36.6816 20.6129 37.1176 21.0757 37.6476C21.5699 38.2355 21.9128 38.9352 22.0745 39.686C22.2501 40.4454 22.2361 41.2365 22.0337 41.9893Z" fill="#520091"/>
<path d="M27.8839 30.942C27.2983 31.6374 26.5387 32.1649 25.6826 32.4707C24.8226 32.7632 23.8985 32.8127 23.0123 32.6135C22.0601 32.4131 21.1756 31.9708 20.444 31.3294C19.6814 30.708 19.0918 29.9007 18.7319 28.9853C18.4053 28.1425 18.3068 27.2283 18.4465 26.3353C18.592 25.4418 18.9879 24.608 19.588 23.9303C20.166 23.2356 20.9188 22.7079 21.7689 22.4015C22.6289 22.109 23.553 22.0595 24.4393 22.2587C25.3974 22.4593 26.2885 22.9014 27.028 23.5428C27.7804 24.1692 28.3623 24.9755 28.7197 25.887C29.0561 26.7273 29.1549 27.6442 29.0051 28.5369C28.8581 29.426 28.4703 30.2577 27.8839 30.942ZM26.396 29.6986C26.7568 29.2844 26.9902 28.7748 27.0685 28.2311C27.156 27.6706 27.0781 27.0967 26.8443 26.5799C26.5994 25.9931 26.2147 25.4753 25.7234 25.0716C25.2503 24.657 24.6837 24.3634 24.0722 24.2157C23.5272 24.0513 22.9459 24.0513 22.4009 24.2157C21.8754 24.3787 21.4082 24.69 21.0556 25.1124C20.6948 25.5267 20.4613 26.0362 20.383 26.5799C20.3066 27.1404 20.3841 27.7113 20.6072 28.2311C20.855 28.8105 21.2395 29.3211 21.7281 29.719C22.209 30.1379 22.7817 30.4382 23.3997 30.5956C23.9393 30.7491 24.511 30.7491 25.0506 30.5956C25.5714 30.4228 26.0361 30.1129 26.396 29.6986Z" fill="#520091"/>
<path d="M33.7954 24.7657L29.7188 14.9817L32.6742 13.7791L37.77 19.7513L38.0554 19.6291L37.5662 11.8018L40.5219 10.6196L44.4762 20.4037L42.6011 21.1578L39.8695 14.3701L39.5842 14.4925L40.0532 22.1974L38.0149 22.9921L33.0004 17.122H32.7354L35.467 23.9095L33.7954 24.7657Z" fill="#520091"/>
<path d="M48.6143 20.2402L49.45 9.72266L54.2196 10.1098C54.8247 10.1442 55.4091 10.3414 55.9114 10.6806C56.3818 11.0229 56.7486 11.4885 56.9713 12.026C57.2247 12.6093 57.3231 13.2481 57.2567 13.8807C57.229 14.5313 57.0322 15.1636 56.6859 15.7152C56.3804 16.207 55.9424 16.6027 55.4222 16.8568C54.8789 17.1234 54.2708 17.2293 53.6693 17.1623L50.8972 16.9585L50.6322 20.4034L48.6143 20.2402ZM53.7305 15.2464C53.9858 15.2652 54.2409 15.2086 54.4642 15.0834C54.6929 14.9701 54.8841 14.7932 55.0146 14.5739C55.1443 14.3117 55.227 14.0288 55.2592 13.7381C55.3018 13.3137 55.1935 12.888 54.9534 12.5355C54.8406 12.3858 54.6964 12.2625 54.5309 12.1745C54.3654 12.0865 54.1827 12.0358 53.9955 12.026L51.3251 11.8015L51.0601 15.0222L53.7305 15.2464Z" fill="#520091"/>
<path d="M59.9473 21.8712L64.7171 12.4746L69.0588 14.6759C69.5941 14.9329 70.0463 15.3357 70.3633 15.8379C70.6713 16.3345 70.8403 16.9046 70.8525 17.4888C70.8455 18.1201 70.6918 18.7411 70.4039 19.3029C70.1369 19.8482 69.7376 20.3178 69.2421 20.6687C68.7995 20.9905 68.2786 21.1874 67.7338 21.2392C67.2075 21.2908 66.6773 21.1918 66.2051 20.9538L65.6343 20.6687L65.838 20.2813L67.4484 25.7033L65.2267 24.5617L63.8609 19.8125L63.3718 19.5679L61.741 22.7884L59.9473 21.8712ZM66.6534 19.1805C66.8742 19.29 67.1221 19.3326 67.3668 19.3029C67.6254 19.2863 67.8736 19.1941 68.0804 19.0379C68.3106 18.8647 68.4985 18.6418 68.6305 18.3858C68.8313 18.0114 68.8894 17.5766 68.7938 17.1626C68.7499 16.9799 68.667 16.809 68.5509 16.6612C68.4348 16.5135 68.2881 16.3925 68.121 16.3067L65.6751 15.0633L64.2075 17.9168L66.6534 19.1805Z" fill="#520091"/>
<path d="M69.6494 27.3138L80.208 23.5835L82.0222 25.846L76.1722 35.3855L74.8064 33.6935L79.5556 26.1722L79.3518 25.948L71.0152 29.0055L69.6494 27.3138ZM73.0331 27.8234L74.4193 26.7022L77.7621 30.7788L76.376 31.9202L73.0331 27.8234Z" fill="#520091"/>
<path d="M77.3135 38.1575L87.5051 35.3242L88.8096 40.0125C88.9728 40.5854 88.9728 41.1925 88.8096 41.7654C88.655 42.3246 88.3523 42.8316 87.9333 43.2329C87.4664 43.665 86.8987 43.9734 86.2821 44.1299C85.7008 44.2819 85.0902 44.2819 84.5088 44.1299C83.9678 44.0241 83.4668 43.7698 83.0617 43.3959C82.6615 43.0438 82.3713 42.584 82.2259 42.0712L82.0629 41.4596L82.4705 41.3372L79.576 46.2088L78.9034 43.8037L81.4921 39.5638L81.3292 39.0543L77.8435 40.0329L77.3135 38.1575ZM83.8567 41.2966C83.9131 41.5383 84.0495 41.7536 84.2438 41.908C84.4366 42.0721 84.6681 42.1845 84.9164 42.2342C85.1975 42.3041 85.4915 42.3041 85.7726 42.2342C86.179 42.1331 86.5344 41.8866 86.7713 41.5412C86.8797 41.3858 86.9523 41.2082 86.9841 41.0214C87.0158 40.8346 87.0057 40.6433 86.9547 40.4608L86.2005 37.8109L83.1025 38.6875L83.8567 41.2966Z" fill="#520091"/>
<path d="M16.9385 76.0294L27.1301 71.1782L29.1684 73.2165L24.358 83.4081L22.8088 81.8794L26.7225 73.8893L26.5187 73.6856L18.5284 77.6398L16.9385 76.0294ZM20.363 76.1723L21.6267 74.9085L25.3976 78.6589L24.1338 79.9431L20.363 76.1723Z" fill="#520091"/>
<path d="M33.4078 88.5648C32.5865 88.2073 31.8808 87.6288 31.3694 86.8934C30.8391 86.1579 30.5215 85.2905 30.452 84.3863C30.3769 83.4159 30.545 82.4421 30.9412 81.5531C31.3264 80.6523 31.9286 79.861 32.6941 79.2497C33.4133 78.6873 34.2741 78.3346 35.1811 78.2306C36.0766 78.1045 36.9893 78.2388 37.8104 78.6177C38.5214 78.9117 39.1509 79.3733 39.6449 79.9631C40.0962 80.5086 40.4168 81.1501 40.5824 81.8384C40.751 82.5042 40.7926 83.1957 40.7049 83.8768L38.8091 83.0614C38.8069 82.5074 38.6363 81.9671 38.3199 81.5122C38.0116 81.0348 37.563 80.6645 37.0358 80.4523C36.5281 80.2121 35.9611 80.127 35.4053 80.2077C34.8485 80.2962 34.3268 80.5359 33.8969 80.9007C33.4183 81.3115 33.0414 81.8278 32.7962 82.409C32.5337 82.9911 32.4081 83.6257 32.4292 84.2639C32.4621 84.8251 32.6451 85.3672 32.9591 85.8335C33.2849 86.2852 33.7294 86.638 34.2433 86.8526C34.6866 87.067 35.1795 87.1586 35.6703 87.1176C36.1076 87.0787 36.5315 86.9465 36.9136 86.7302C37.2355 86.5357 37.5021 86.262 37.6882 85.9352L38.0144 85.4461L38.1978 86.0781L35.4053 84.8755L35.9962 83.5302L40.0729 85.3443L37.8716 90.4197L36.4652 89.8081L36.8116 88.6464C36.517 88.7967 36.2007 88.9 35.874 88.9522C35.4824 89.0143 35.0835 89.0143 34.6919 88.9522C34.243 88.9064 33.8071 88.7748 33.4078 88.5648Z" fill="#520091"/>
<path d="M49.7354 92.0098C48.8224 92.0016 47.9283 91.7479 47.1467 91.2758C46.3684 90.7793 45.7466 90.0726 45.353 89.2375C44.9039 88.3691 44.6795 87.4023 44.7006 86.4249C44.7036 85.4468 44.9561 84.4854 45.4343 83.6321C45.8708 82.8395 46.5113 82.1781 47.2893 81.7162C48.0826 81.2633 48.9853 81.0378 49.8984 81.0641C50.7977 81.0786 51.677 81.3318 52.4463 81.7978C53.2299 82.294 53.8585 83.0003 54.2604 83.8362C54.7127 84.7027 54.9304 85.6724 54.8922 86.6491C54.8954 87.6254 54.6499 88.5864 54.1788 89.4415C53.729 90.2309 53.083 90.8908 52.3035 91.3574C51.5202 91.7984 50.6342 92.0237 49.7354 92.0098ZM49.7354 89.9715C50.2799 89.9841 50.8166 89.8426 51.2843 89.5637C51.7725 89.2718 52.1683 88.8479 52.4259 88.3408C52.7269 87.7766 52.881 87.1457 52.8743 86.5062C52.8863 85.8798 52.7539 85.259 52.4871 84.6921C52.246 84.1759 51.8645 83.738 51.3863 83.4283C50.9224 83.1362 50.3855 82.9808 49.8372 82.98C49.2852 82.9576 48.739 83.0994 48.2676 83.3875C47.7842 83.6852 47.39 84.1079 47.1263 84.6107C46.8534 85.1771 46.7071 85.7962 46.6981 86.4249C46.6829 87.0581 46.8156 87.6861 47.0855 88.2592C47.3319 88.7718 47.7123 89.2084 48.1863 89.5229C48.6438 89.857 49.1896 90.0485 49.7556 90.0733L49.7354 89.9715Z" fill="#520091"/>
<path d="M61.6181 90.42L57.7656 80.5952L62.2906 78.8015C62.8409 78.5851 63.4377 78.5149 64.0232 78.5977C64.5951 78.7017 65.1295 78.9548 65.5723 79.3315C66.0576 79.7439 66.4236 80.2789 66.6323 80.8806C66.8676 81.4331 66.9587 82.0362 66.8973 82.6335C66.8391 83.1865 66.635 83.714 66.3061 84.1623C65.9972 84.5909 65.5732 84.9232 65.0831 85.1205L64.4922 85.3446L64.329 84.9368L69.4656 87.3218L67.1418 88.2389L62.678 86.2006L62.1685 86.3842L63.4934 89.7676L61.6181 90.42ZM64.064 83.5917C64.2912 83.4965 64.4884 83.3413 64.6348 83.1431C64.7768 82.9288 64.8674 82.6848 64.8997 82.4297C64.9205 82.1437 64.8716 81.8569 64.7572 81.594C64.6935 81.3927 64.5903 81.2063 64.4539 81.0453C64.3174 80.8843 64.1503 80.7521 63.9622 80.6564C63.7933 80.5766 63.6088 80.5352 63.422 80.5352C63.2352 80.5352 63.0507 80.5766 62.8818 80.6564L60.3135 81.6756L61.4957 84.6514L64.064 83.5917Z" fill="#520091"/>
<path d="M74.6437 84.2031L70.1797 74.0115L72.32 71.9731L82.2466 77.1506L80.6567 78.6385L72.8296 74.4193L72.6054 74.6231L76.2337 82.7763L74.6437 84.2031ZM74.9291 80.7992L73.7059 79.4743L77.5992 75.846L78.8221 77.171L74.9291 80.7992Z" fill="#520091"/>
<path d="M45.8213 38.9116C45.8213 39.9928 46.2508 41.0296 47.0154 41.7942C47.7799 42.5587 48.8167 42.9882 49.8979 42.9882C50.9791 42.9882 52.016 42.5587 52.7805 41.7942C53.545 41.0296 53.9746 39.9928 53.9746 38.9116C53.9746 37.8304 53.545 36.7936 52.7805 36.029C52.016 35.2645 50.9791 34.835 49.8979 34.835C48.8167 34.835 47.7799 35.2645 47.0154 36.029C46.2508 36.7936 45.8213 37.8304 45.8213 38.9116ZM49.8979 35.7317C50.324 35.718 50.7484 35.7903 51.146 35.9439C51.5436 36.0976 51.9063 36.3298 52.2124 36.6265C52.5186 36.9231 52.7622 37.2782 52.9283 37.6707C53.0944 38.0633 53.1798 38.4853 53.1796 38.9116C53.1796 39.7549 52.8446 40.5636 52.2483 41.1599C51.6519 41.7562 50.843 42.0915 49.9997 42.0915C49.1564 42.0915 48.3477 41.7562 47.7514 41.1599C47.155 40.5636 46.82 39.7549 46.82 38.9116C46.8411 38.0895 47.1798 37.3074 47.7651 36.7297C48.3504 36.152 49.1368 35.8236 49.9591 35.8133L49.8979 35.7317Z" fill="#520091"/>
<path d="M50.4277 32.511V30.2485C50.4277 30.1242 50.3782 30.005 50.2903 29.9171C50.2024 29.8292 50.0832 29.7797 49.9589 29.7797C49.8956 29.777 49.8323 29.787 49.773 29.8094C49.7138 29.8317 49.6598 29.8658 49.614 29.9096C49.5683 29.9534 49.5319 30.0061 49.507 30.0644C49.4822 30.1226 49.4697 30.1852 49.4697 30.2485V32.511C49.4697 32.5743 49.4822 32.6371 49.507 32.6954C49.5319 32.7536 49.5683 32.8061 49.614 32.8499C49.6598 32.8937 49.7138 32.9279 49.773 32.9502C49.8323 32.9725 49.8956 32.9825 49.9589 32.9798C50.0832 32.9798 50.2024 32.9304 50.2903 32.8424C50.3782 32.7545 50.4277 32.6354 50.4277 32.511Z" fill="#520091"/>
<path d="M46.0458 31.166C45.9817 31.0571 45.8782 30.9772 45.7566 30.9431C45.6351 30.9089 45.505 30.9231 45.3936 30.9826C45.2847 31.0466 45.2049 31.1504 45.1707 31.272C45.1365 31.3936 45.1505 31.5236 45.21 31.635L46.3312 33.6733C46.3694 33.7482 46.4278 33.8107 46.4999 33.854C46.5719 33.8972 46.6547 33.9195 46.7387 33.9179H46.9833C47.0922 33.8539 47.1721 33.7501 47.2063 33.6285C47.2404 33.507 47.2265 33.3769 47.1669 33.2655L46.0458 31.166Z" fill="#520091"/>
<path d="M44.6194 35.2831L42.5811 34.1213C42.5266 34.0891 42.466 34.0683 42.4032 34.0601C42.3404 34.0519 42.2765 34.0564 42.2156 34.0736C42.1546 34.0907 42.0979 34.1202 42.0486 34.1599C41.9993 34.1996 41.9584 34.2488 41.9287 34.3047C41.8957 34.358 41.8736 34.4174 41.864 34.4794C41.8543 34.5413 41.8572 34.6044 41.8724 34.6652C41.8876 34.7261 41.9149 34.7833 41.9526 34.8334C41.9902 34.8835 42.0377 34.9256 42.0919 34.9571L44.1302 36.0984C44.2107 36.1168 44.2943 36.1168 44.3748 36.0984C44.4564 36.0998 44.5367 36.0798 44.6082 36.0405C44.6797 36.0011 44.7398 35.9439 44.7824 35.8743C44.8307 35.7726 44.8409 35.6568 44.811 35.5483C44.781 35.4398 44.713 35.3456 44.6194 35.2831Z" fill="#520091"/>
<path d="M41.2143 38.3613C41.09 38.3613 40.9708 38.4108 40.8829 38.4987C40.795 38.5866 40.7456 38.7058 40.7456 38.8301C40.7428 38.8934 40.7528 38.9567 40.7752 39.016C40.7975 39.0752 40.8316 39.1292 40.8754 39.175C40.9193 39.2207 40.9717 39.2571 41.03 39.282C41.0882 39.3068 41.151 39.3193 41.2143 39.3193H43.4564C43.5808 39.3193 43.6999 39.2701 43.7879 39.1822C43.8758 39.0943 43.9252 38.9748 43.9252 38.8505C43.928 38.7872 43.9179 38.7241 43.8956 38.6649C43.8733 38.6056 43.8391 38.5516 43.7953 38.5059C43.7515 38.4602 43.6991 38.4237 43.6408 38.3989C43.5826 38.3741 43.5198 38.3613 43.4564 38.3613H41.2143Z" fill="#520091"/>
<path d="M44.0276 41.6835L41.9893 42.7638C41.8769 42.8245 41.7928 42.9266 41.7547 43.0485C41.7166 43.1704 41.7277 43.3022 41.7855 43.416C41.8304 43.4897 41.8931 43.5509 41.9679 43.5937C42.0428 43.6364 42.1273 43.6594 42.2135 43.6606C42.2868 43.6815 42.3644 43.6815 42.4377 43.6606L44.476 42.5601C44.5312 42.5324 44.5803 42.4936 44.6198 42.4461C44.6594 42.3986 44.6885 42.3435 44.7057 42.2841C44.7229 42.2248 44.7278 42.1625 44.7199 42.1012C44.7119 42.04 44.6912 41.981 44.6594 41.9281C44.6351 41.8696 44.5992 41.8168 44.5539 41.7726C44.5086 41.7283 44.4549 41.6936 44.3959 41.6708C44.3368 41.6479 44.2738 41.6373 44.2105 41.6394C44.1472 41.6416 44.085 41.6566 44.0276 41.6835Z" fill="#520091"/>
<path d="M45.1285 46.8407C45.209 46.8584 45.2925 46.8584 45.3731 46.8407C45.4571 46.8422 45.5398 46.82 45.6119 46.7767C45.684 46.7335 45.7424 46.671 45.7806 46.5961L46.9628 44.6799C46.9958 44.6267 47.0178 44.5675 47.0275 44.5055C47.0371 44.4436 47.0344 44.3802 47.0192 44.3194C47.004 44.2586 46.9768 44.2016 46.9391 44.1515C46.9014 44.1014 46.854 44.0593 46.7998 44.0278C46.7465 43.9948 46.687 43.9728 46.6251 43.9631C46.5632 43.9534 46.5001 43.9564 46.4392 43.9716C46.3784 43.9868 46.3211 44.014 46.271 44.0517C46.2209 44.0894 46.1791 44.1366 46.1476 44.1908L44.9652 46.1069C44.9176 46.1622 44.8835 46.2277 44.8657 46.2985C44.8479 46.3693 44.8469 46.4435 44.8627 46.5147C44.8786 46.586 44.9109 46.6525 44.957 46.7091C45.0032 46.7657 45.0619 46.8108 45.1285 46.8407Z" fill="#520091"/>
<path d="M49.2656 45.4546V47.7171C49.2702 47.8419 49.3205 47.9608 49.407 48.051C49.4934 48.1412 49.6101 48.1966 49.7346 48.2065C49.7979 48.2093 49.861 48.199 49.9203 48.1766C49.9795 48.1543 50.0335 48.1202 50.0793 48.0764C50.125 48.0326 50.1614 47.9801 50.1863 47.9219C50.2111 47.8636 50.2239 47.8008 50.2238 47.7375V45.4954C50.2242 45.367 50.1761 45.2432 50.0892 45.1488C50.0023 45.0543 49.8828 44.9961 49.7548 44.9858C49.6915 44.983 49.6284 44.9931 49.5692 45.0154C49.5099 45.0377 49.4559 45.0719 49.4102 45.1157C49.3645 45.1595 49.328 45.2122 49.3032 45.2704C49.2784 45.3287 49.2656 45.3913 49.2656 45.4546Z" fill="#520091"/>
<path d="M52.7519 44.3134C52.697 44.3415 52.6481 44.3799 52.6081 44.4269C52.5681 44.4739 52.5377 44.5284 52.5188 44.5871C52.4999 44.6458 52.4926 44.7076 52.4976 44.769C52.5027 44.8305 52.5197 44.8903 52.5479 44.9452L53.6079 46.9835C53.6451 47.0607 53.7029 47.1264 53.7748 47.1731C53.8467 47.2198 53.93 47.2458 54.0157 47.2485C54.0889 47.2695 54.1666 47.2695 54.2399 47.2485C54.2975 47.2206 54.3489 47.1813 54.3906 47.1328C54.4324 47.0843 54.4636 47.0277 54.4827 46.9666C54.5018 46.9055 54.5084 46.8412 54.5016 46.7775C54.4949 46.7138 54.4751 46.6521 54.4436 46.5964L53.4041 44.558C53.3777 44.4988 53.3398 44.4454 53.2926 44.401C53.2454 44.3566 53.1898 44.322 53.1291 44.2993C53.0685 44.2765 53.0038 44.266 52.939 44.2684C52.8743 44.2708 52.8107 44.2862 52.7519 44.3134Z" fill="#520091"/>
<path d="M55.0141 42.2135C54.9446 42.3219 54.9204 42.4531 54.9471 42.579C54.9739 42.7049 55.0492 42.8153 55.1567 42.8861L57.0524 44.0889C57.1387 44.1155 57.2311 44.1155 57.3174 44.0889C57.3986 44.0883 57.4784 44.0673 57.5495 44.0281C57.6207 43.989 57.681 43.9329 57.725 43.8647C57.7589 43.8126 57.7822 43.7541 57.7934 43.693C57.8046 43.6319 57.8034 43.5693 57.7901 43.5086C57.7769 43.4479 57.7517 43.3905 57.716 43.3397C57.6803 43.2888 57.6349 43.2454 57.5824 43.2123L55.6866 41.9893C55.6281 41.9582 55.5639 41.9394 55.4978 41.9338C55.4317 41.9283 55.3651 41.9363 55.3022 41.9572C55.2393 41.9782 55.1813 42.0117 55.1318 42.0558C55.0822 42.0998 55.0422 42.1535 55.0141 42.2135Z" fill="#520091"/>
<path d="M55.9521 39.2989C55.9464 39.3611 55.9537 39.424 55.9737 39.4832C55.9937 39.5424 56.0258 39.5967 56.068 39.6427C56.1102 39.6888 56.1618 39.7257 56.219 39.7507C56.2763 39.7757 56.3379 39.7885 56.4004 39.7883L58.6629 39.9104C58.7838 39.9106 58.9003 39.8639 58.9876 39.7803C59.075 39.6968 59.1267 39.5828 59.132 39.4621C59.1377 39.3356 59.0942 39.2117 59.0105 39.1167C58.9269 39.0217 58.8095 38.9629 58.6833 38.9525L56.4412 38.8301C56.3164 38.8347 56.1978 38.885 56.1076 38.9714C56.0174 39.0578 55.962 39.1743 55.9521 39.2989Z" fill="#520091"/>
<path d="M57.542 34.6311L55.5036 35.6299C55.446 35.6578 55.3946 35.6973 55.3528 35.7458C55.3111 35.7943 55.2796 35.8507 55.2605 35.9118C55.2414 35.9729 55.2351 36.0375 55.2419 36.1011C55.2486 36.1648 55.2684 36.2263 55.2998 36.282C55.3386 36.3623 55.3994 36.4299 55.4753 36.4769C55.5511 36.5238 55.6387 36.5481 55.7278 36.547C55.7945 36.5652 55.8649 36.5652 55.9316 36.547L57.9699 35.5483C58.0823 35.4876 58.1665 35.3855 58.2046 35.2636C58.2426 35.1417 58.2316 35.0099 58.1737 34.8961C58.1542 34.8339 58.1214 34.7766 58.0774 34.7284C58.0335 34.6802 57.9796 34.6422 57.9194 34.6169C57.8592 34.5917 57.7943 34.5799 57.7291 34.5823C57.6639 34.5848 57.6 34.6014 57.542 34.6311Z" fill="#520091"/>
<path d="M55.035 31.3085C54.9829 31.2746 54.9247 31.2512 54.8636 31.24C54.8025 31.2289 54.7396 31.23 54.6789 31.2433C54.6183 31.2566 54.5609 31.2818 54.51 31.3174C54.4591 31.3531 54.4158 31.3985 54.3826 31.451L53.1393 33.3264C53.0739 33.4306 53.0502 33.5556 53.0728 33.6765C53.0955 33.7974 53.163 33.9051 53.2617 33.9785C53.348 34.0052 53.4404 34.0052 53.5267 33.9785C53.6055 33.977 53.6828 33.9581 53.7533 33.9228C53.8239 33.8875 53.8857 33.8369 53.9342 33.7748L55.1776 31.8793C55.2225 31.7821 55.2329 31.6726 55.2069 31.5687C55.181 31.4649 55.1204 31.373 55.035 31.3085Z" fill="#520091"/>
<path d="M68.6706 67.9168C68.7351 67.9181 68.7991 67.9062 68.8587 67.8817C68.9184 67.8571 68.9724 67.8205 69.0172 67.7742C69.1033 67.6833 69.1511 67.5629 69.1511 67.4378C69.1511 67.3127 69.1033 67.1922 69.0172 67.1014C67.0079 65.1002 64.8326 63.2729 62.5149 61.6388C64.575 60.9094 66.6704 60.2834 68.7931 59.7635C68.914 59.7257 69.0164 59.6441 69.0804 59.5348C69.1445 59.4255 69.1655 59.2963 69.1394 59.1723C69.1059 59.053 69.0284 58.951 68.9224 58.8867C68.8165 58.8223 68.6902 58.8007 68.5689 58.8259C66.196 59.3764 63.8551 60.0569 61.5569 60.8643C60.3543 60.0489 59.1312 59.2948 57.9082 58.6018C61.4372 57.2787 65.0717 56.2559 68.7727 55.5443C68.8957 55.515 69.0026 55.4392 69.071 55.3328C69.1394 55.2264 69.1639 55.0976 69.1394 54.9735C69.1296 54.9115 69.1074 54.8521 69.0742 54.7988C69.041 54.7456 68.9977 54.6996 68.9463 54.6635C68.895 54.6273 68.837 54.6018 68.7756 54.5886C68.7143 54.5753 68.6509 54.5744 68.5893 54.5861C64.5698 55.3727 60.6274 56.5119 56.8077 57.9902C55.4217 57.2564 54.0356 56.5837 52.7311 55.9518C57.8803 53.8238 63.2766 52.3515 68.7931 51.5694C68.9193 51.554 69.0346 51.4902 69.1145 51.3912C69.1944 51.2923 69.2326 51.1661 69.221 51.0394C69.2009 50.913 69.1321 50.7996 69.0292 50.7234C68.9263 50.6472 68.7975 50.6143 68.6706 50.6319C62.7626 51.4604 56.9913 53.0711 51.5081 55.4219C49.9182 54.7492 48.3487 54.1785 46.8403 53.6689C53.7452 50.4572 61.1632 48.4906 68.7523 47.8598C68.8784 47.8545 68.9975 47.8007 69.0849 47.7095C69.1723 47.6183 69.2211 47.4969 69.221 47.3706C69.2184 47.3063 69.203 47.2431 69.176 47.1847C69.149 47.1264 69.1109 47.074 69.0635 47.0305C69.0162 46.9869 68.9607 46.953 68.9003 46.9309C68.8399 46.9088 68.7757 46.8991 68.7114 46.9018C60.6542 47.5637 52.7894 49.713 45.5153 53.241C40.9433 51.7758 36.2168 50.8456 31.4305 50.4689C31.304 50.4632 31.1804 50.5067 31.0854 50.5903C30.9903 50.6739 30.9313 50.7911 30.9209 50.9172C30.9205 51.0456 30.9686 51.1694 31.0555 51.2639C31.1424 51.3583 31.262 51.4166 31.3899 51.4268C31.5938 51.4268 53.2609 52.5275 68.4057 67.7334C68.435 67.7804 68.4738 67.8208 68.5194 67.8523C68.5649 67.8839 68.6163 67.9058 68.6706 67.9168Z" fill="#520091"/>
<path d="M61.5572 67.9165C61.6283 67.9157 61.6982 67.8988 61.7618 67.867C61.8253 67.8352 61.881 67.7895 61.9242 67.7331C62.0103 67.6423 62.0581 67.5218 62.0581 67.3967C62.0581 67.2716 62.0103 67.1514 61.9242 67.0606C53.0885 60.1788 42.5755 55.7809 31.4716 54.3211C31.3448 54.3035 31.2162 54.3362 31.1133 54.4124C31.0104 54.4886 30.9414 54.6022 30.9212 54.7286C30.9092 54.8522 30.9448 54.9756 31.0205 55.074C31.0962 55.1724 31.2065 55.2385 31.329 55.2586C42.2644 56.6953 52.6166 61.0305 61.3127 67.8147C61.3847 67.8681 61.4686 67.903 61.5572 67.9165Z" fill="#520091"/>
<path d="M53.506 67.9168C53.5876 67.9182 53.6682 67.8982 53.7397 67.8589C53.8112 67.8195 53.871 67.7623 53.9136 67.6927C53.9475 67.6406 53.9708 67.5823 53.982 67.5212C53.9932 67.4601 53.992 67.3973 53.9788 67.3366C53.9655 67.2759 53.9403 67.2185 53.9046 67.1677C53.869 67.1168 53.8235 67.0737 53.771 67.0405C46.915 62.7304 39.3086 59.7499 31.3495 58.2552C31.2878 58.2435 31.2245 58.2445 31.1631 58.2577C31.1018 58.271 31.0435 58.2962 30.9922 58.3324C30.9409 58.3685 30.8975 58.4147 30.8643 58.468C30.8311 58.5212 30.8089 58.5806 30.7991 58.6426C30.7842 58.703 30.7821 58.7657 30.7929 58.827C30.8036 58.8883 30.8268 58.9467 30.8613 58.9984C30.8958 59.0502 30.9407 59.0941 30.9932 59.1276C31.0456 59.1611 31.1044 59.1833 31.1659 59.1928C38.9779 60.6779 46.4439 63.6089 53.1798 67.8352C53.2246 67.8725 53.2771 67.8992 53.3336 67.9134C53.39 67.9275 53.449 67.9286 53.506 67.9168Z" fill="#520091"/>
<path d="M31.4513 62.3931C31.391 62.3779 31.3283 62.3749 31.2669 62.3841C31.2055 62.3934 31.1466 62.4146 31.0935 62.4468C31.0404 62.4791 30.9942 62.5218 30.9576 62.572C30.9211 62.6222 30.8951 62.679 30.8807 62.7395C30.8625 62.7997 30.8569 62.8633 30.8648 62.9258C30.8727 62.9883 30.8938 63.0484 30.9265 63.1022C30.9592 63.1561 31.0029 63.2025 31.0547 63.2383C31.1065 63.2742 31.1652 63.2986 31.2271 63.3102C35.6195 64.3986 39.8884 65.9354 43.9666 67.8965C44.0402 67.9146 44.1172 67.9146 44.1908 67.8965C44.2816 67.8933 44.3697 67.865 44.4453 67.8146C44.5209 67.7642 44.5812 67.6937 44.619 67.6111C44.6465 67.555 44.6625 67.494 44.666 67.4317C44.6696 67.3693 44.6605 67.3069 44.6397 67.248C44.6188 67.1892 44.5864 67.1349 44.5444 67.0888C44.5023 67.0426 44.4513 67.0055 44.3946 66.9793C40.2529 65.001 35.9146 63.4638 31.4513 62.3931Z" fill="#520091"/>
<path d="M85.65 56.2781C86.742 56.2781 87.6272 55.3929 87.6272 54.3009C87.6272 53.2089 86.742 52.3237 85.65 52.3237C84.5581 52.3237 83.6729 53.2089 83.6729 54.3009C83.6729 55.3929 84.5581 56.2781 85.65 56.2781Z" fill="#520091"/>
<path d="M13.7379 56.2781C14.8299 56.2781 15.7151 55.3929 15.7151 54.3009C15.7151 53.2089 14.8299 52.3237 13.7379 52.3237C12.646 52.3237 11.7607 53.2089 11.7607 54.3009C11.7607 55.3929 12.646 56.2781 13.7379 56.2781Z" fill="#520091"/>
</g>
<defs>
<clipPath id="clip0">
<rect width="100" height="100" fill="white"/>
</clipPath>
</defs>
</svg>
