<?xml version="1.0" encoding="UTF-8" standalone="no"?>
<svg
   width="166"
   height="70"
   viewBox="0 0 166 70"
   fill="none"
   version="1.1"
   id="svg32"
   sodipodi:docname="terro.svg"
   inkscape:version="1.1 (c68e22c387, 2021-05-23)"
   xmlns:inkscape="http://www.inkscape.org/namespaces/inkscape"
   xmlns:sodipodi="http://sodipodi.sourceforge.net/DTD/sodipodi-0.dtd"
   xmlns="http://www.w3.org/2000/svg"
   xmlns:svg="http://www.w3.org/2000/svg">
  <defs
     id="defs36" />
  <sodipodi:namedview
     id="namedview34"
     pagecolor="#ffffff"
     bordercolor="#666666"
     borderopacity="1.0"
     inkscape:pageshadow="2"
     inkscape:pageopacity="0.0"
     inkscape:pagecheckerboard="0"
     showgrid="false"
     inkscape:zoom="0.91114458"
     inkscape:cx="-94.935537"
     inkscape:cy="79.570248"
     inkscape:window-width="1366"
     inkscape:window-height="705"
     inkscape:window-x="-8"
     inkscape:window-y="-8"
     inkscape:window-maximized="1"
     inkscape:current-layer="svg32" />
  <path
     id="path2"
     d="M 137.2207 0 C 137.1387 4.6259293e-18 137.05647 0.014285325 136.98047 0.041015625 L 128.6582 2.859375 C 128.3002 2.979665 128.05469 3.3622031 128.05469 3.7832031 L 128.05469 7.0703125 C 128.05469 7.5982325 128.43544 8.0332031 128.89844 8.0332031 C 128.98144 8.0332031 129.06448 8.0189175 129.14648 7.9921875 L 136.82227 5.3925781 C 136.95727 5.3457981 137.08556 5.3261719 137.22656 5.3261719 C 137.36756 5.3261719 137.50186 5.3457981 137.63086 5.3925781 L 145.30859 7.9921875 C 145.38459 8.0189175 145.46683 8.0332031 145.54883 8.0332031 C 146.01283 8.0332031 146.39272 7.6049125 146.38672 7.0703125 L 146.38672 3.7832031 C 146.38672 3.3622031 146.1412 2.979665 145.7832 2.859375 L 137.46094 0.041015625 C 137.38494 0.014285325 137.3027 1.4837909e-18 137.2207 0 z M 159.99219 5.9082031 C 157.99819 5.9082031 156.50286 6.3425094 155.50586 7.2246094 C 154.50886 8.1000194 154.00977 9.3697719 154.00977 11.013672 C 154.00977 12.604172 154.50886 13.832744 155.50586 14.714844 C 156.50286 15.596944 157.99819 16.037109 159.99219 16.037109 C 161.98019 16.037109 163.4645 15.596944 164.4375 14.714844 C 165.4055 13.832744 165.89062 12.604172 165.89062 11.013672 C 165.89062 9.3630919 165.4055 8.1000194 164.4375 7.2246094 C 163.4695 6.3491894 161.98619 5.9082031 159.99219 5.9082031 z M 159.98633 6.9238281 C 161.32933 6.9238281 162.47883 7.2112769 163.42383 7.7792969 C 164.36783 8.3473169 164.8418 9.4232319 164.8418 11.013672 C 164.8418 12.604172 164.36783 13.665731 163.42383 14.207031 C 162.47883 14.748331 161.32933 15.015625 159.98633 15.015625 C 158.59033 15.015625 157.41666 14.748331 156.47266 14.207031 C 155.52866 13.665731 155.05469 12.604172 155.05469 11.013672 C 155.05469 9.4232319 155.52266 8.3473169 156.47266 7.7792969 C 157.41666 7.2112769 158.59033 6.9238281 159.98633 6.9238281 z M 0 8.0332031 L 0 28.701172 L 2.1816406 28.701172 L 2.1816406 25.513672 C 2.1816406 23.896472 2.6281406 22.714456 3.5253906 21.972656 C 4.4226406 21.230856 6.0819156 20.857422 8.5097656 20.857422 L 9.6816406 20.857422 L 9.6816406 31.576172 C 9.6816406 32.471572 9.65239 33.171788 9.59375 33.679688 C 9.54097 34.187587 9.3537894 34.562975 9.0371094 34.796875 C 8.7204294 35.030775 8.2271344 35.184041 7.5527344 35.244141 C 6.8841944 35.304241 5.9112413 35.337891 4.6445312 35.337891 L 4.6445312 48.222656 L 29.164062 48.222656 L 29.164062 35.337891 C 27.897363 35.337891 26.918563 35.304241 26.226562 35.244141 C 25.540363 35.177341 25.023753 35.030775 24.689453 34.796875 C 24.355153 34.562975 24.156216 34.194187 24.103516 33.679688 C 24.050716 33.171787 24.021484 32.471572 24.021484 31.576172 L 24.021484 20.857422 L 25.251953 20.857422 C 27.673953 20.857422 29.333269 21.230856 30.230469 21.972656 C 31.127769 22.721156 31.574219 23.896472 31.574219 25.513672 L 31.574219 28.701172 L 33.755859 28.701172 L 33.755859 8.0332031 L 0 8.0332031 z M 158.68359 8.2792969 C 158.10859 8.2792969 157.62361 8.3137275 157.22461 8.3671875 C 157.27761 9.2225575 157.30078 10.084697 157.30078 10.966797 C 157.30078 11.848897 157.27161 12.711006 157.22461 13.566406 L 158.34375 13.566406 C 158.34375 13.339206 158.32573 13.085016 158.30273 12.791016 C 158.27973 12.503616 158.26758 12.222947 158.26758 11.935547 L 160.0625 11.935547 L 160.36133 11.935547 C 160.70733 12.222947 161.00677 12.515978 161.25977 12.830078 C 161.51177 13.144178 161.73459 13.384794 161.93359 13.558594 L 163.42773 13.558594 L 163.42773 13.384766 C 163.02373 13.043966 162.64358 12.736519 162.26758 12.449219 C 161.89858 12.168519 161.60916 11.941378 161.41016 11.767578 C 161.80916 11.653978 162.10959 11.461228 162.30859 11.173828 C 162.50859 10.893128 162.60742 10.544591 162.60742 10.150391 C 162.60742 9.5288706 162.40877 9.0621269 162.00977 8.7480469 C 161.60577 8.4406469 160.98267 8.2792969 160.13867 8.2792969 L 158.68359 8.2792969 z M 159.05469 9.140625 L 160.0625 9.140625 C 160.5085 9.140625 160.87148 9.2092794 161.14648 9.3496094 C 161.41648 9.4899494 161.55859 9.7639831 161.55859 10.158203 C 161.55859 10.559203 161.43464 10.812181 161.18164 10.925781 C 160.93564 11.039381 160.58967 11.09375 160.13867 11.09375 C 159.79267 11.09375 159.45286 11.079434 159.13086 11.052734 C 158.80186 11.026034 158.51358 11.013672 158.26758 11.013672 L 158.26758 10.158203 C 158.26758 9.8241231 158.29075 9.5100062 158.34375 9.2226562 C 158.54275 9.1691962 158.77869 9.140625 159.05469 9.140625 z M 93.359375 11.914062 C 91.682175 11.914063 90.262663 12.096131 89.101562 12.457031 C 87.946263 12.817931 87.002591 13.551697 86.275391 14.654297 C 85.548291 15.756897 84.996394 17.34805 84.621094 19.40625 C 84.251594 21.47115 83.988397 24.157216 83.841797 27.478516 L 82.609375 27.478516 L 82.609375 12.490234 L 69.849609 12.490234 L 69.849609 24.798828 C 70.928609 24.798828 71.620822 25.072253 71.919922 25.626953 C 72.219022 26.181553 72.365234 27.185406 72.365234 28.628906 L 72.365234 31.054688 C 72.365234 32.371188 72.219022 33.338325 71.919922 33.953125 C 71.620822 34.567925 70.928609 34.876953 69.849609 34.876953 L 69.849609 47.246094 L 90.056641 47.246094 L 90.056641 34.869141 C 87.593541 34.869141 86.016219 34.669319 85.324219 34.261719 C 84.632219 33.860719 84.287109 33.211906 84.287109 32.316406 L 84.287109 31.421875 C 84.287109 30.486275 84.392456 29.710503 84.597656 29.095703 C 84.802956 28.480903 85.225975 27.980509 85.859375 27.599609 C 86.492675 27.218709 87.407216 26.949734 88.603516 26.802734 C 89.794016 26.655734 91.383075 26.583984 93.359375 26.583984 L 93.359375 11.914062 z M 52.333984 12.816406 C 46.698284 12.816406 42.521859 14.207541 39.818359 16.994141 C 37.114959 19.780741 35.761719 24.298675 35.761719 30.546875 C 35.761719 37.269475 37.30985 41.993634 40.40625 44.740234 C 43.50845 47.486734 47.794103 48.855469 53.283203 48.855469 C 58.508403 48.855469 62.168159 47.546394 64.255859 44.933594 C 66.349459 42.320694 67.392578 38.671941 67.392578 33.994141 L 61.394531 33.994141 C 61.429631 34.976441 61.030106 35.751472 60.191406 36.326172 C 59.352806 36.900872 57.734456 37.1875 55.347656 37.1875 C 53.218856 37.1875 51.571278 36.820666 50.392578 36.072266 C 49.219678 35.323766 48.498234 33.913125 48.240234 31.828125 L 53.21875 31.828125 L 59.072266 31.828125 L 64.308594 31.828125 L 67.388672 31.828125 C 67.429672 31.019525 67.447266 30.210944 67.447266 29.402344 L 67.447266 27.044922 C 67.447266 25.046822 67.20555 23.175841 66.71875 21.431641 C 66.23205 19.687541 65.411159 18.176791 64.255859 16.900391 C 63.100559 15.624091 61.552428 14.622091 59.611328 13.900391 C 57.670228 13.178591 55.242684 12.816406 52.333984 12.816406 z M 137.25586 12.816406 C 131.35586 12.816406 127.13317 14.24695 124.57617 17.09375 C 122.01917 19.94055 120.74219 24.431534 120.74219 30.552734 C 120.74219 36.760934 122.01917 41.364834 124.57617 44.365234 C 127.13317 47.365734 131.36186 48.863281 137.25586 48.863281 C 143.11386 48.863281 147.31995 47.365734 149.87695 44.365234 C 152.43395 41.364834 153.71094 36.760934 153.71094 30.552734 C 153.71094 24.518434 152.43395 20.047797 149.87695 17.154297 C 147.32595 14.260697 143.11386 12.816406 137.25586 12.816406 z M 118.89453 12.884766 C 117.21753 12.884766 115.79772 13.064981 114.63672 13.425781 C 113.48172 13.786681 112.53755 14.520447 111.81055 15.623047 C 111.08355 16.725647 110.53225 18.3168 110.15625 20.375 C 109.78725 22.4399 109.52395 25.125966 109.37695 28.447266 L 108.14453 28.447266 L 108.14453 13.458984 L 95.384766 13.458984 L 95.384766 25.767578 C 96.463866 25.767578 97.155978 26.042956 97.455078 26.597656 C 97.754178 27.152256 97.900391 28.154156 97.900391 29.597656 L 97.900391 32.023438 C 97.900391 33.339937 97.754178 34.309028 97.455078 34.923828 C 97.155978 35.538628 96.463866 35.845703 95.384766 35.845703 L 95.384766 48.214844 L 115.59375 48.214844 L 115.59375 35.837891 C 113.13075 35.837891 111.55138 35.638069 110.85938 35.230469 C 110.16737 34.829469 109.82227 34.180556 109.82227 33.285156 L 109.82227 32.390625 C 109.82227 31.455025 109.92781 30.679253 110.13281 30.064453 C 110.33781 29.449653 110.76053 28.949259 111.39453 28.568359 C 112.02753 28.187359 112.94267 27.920437 114.13867 27.773438 C 115.32967 27.626438 116.91853 27.552734 118.89453 27.552734 L 118.89453 12.884766 z M 52.222656 23.28125 C 53.383856 23.28125 54.304134 23.656637 54.990234 24.398438 C 55.682234 25.146838 56.046831 26.79105 56.082031 29.34375 L 48.134766 29.34375 C 48.134766 27.17195 48.499362 25.621147 49.226562 24.685547 C 49.953762 23.750047 50.955956 23.28125 52.222656 23.28125 z M 137.25586 23.849609 C 138.93286 23.849609 140.08227 24.351956 140.69727 25.347656 C 141.31327 26.350056 141.61914 28.060528 141.61914 30.486328 C 141.61914 32.958928 141.31327 34.783156 140.69727 35.972656 C 140.08227 37.162156 138.93886 37.755859 137.25586 37.755859 C 135.53786 37.755859 134.37186 37.162156 133.75586 35.972656 C 133.14586 34.783156 132.83398 32.952228 132.83398 30.486328 C 132.83398 28.060528 133.13986 26.350056 133.75586 25.347656 C 134.37786 24.351956 135.53786 23.849609 137.25586 23.849609 z M 42.400391 57.890625 C 40.113291 57.890625 38.712891 59.408544 38.712891 61.339844 C 38.712891 62.937044 39.527884 64.113166 41.146484 64.447266 L 43.140625 64.867188 C 44.319325 65.127787 44.910156 65.708781 44.910156 66.550781 C 44.910156 67.559881 44.247534 68.316406 42.552734 68.316406 C 40.998734 68.316406 40.042969 67.312697 40.042969 66.216797 L 40.042969 66.210938 L 38.496094 66.210938 C 38.496094 68.309337 39.966534 69.994141 42.552734 69.994141 C 45.133134 69.994141 46.458984 68.476122 46.458984 66.544922 C 46.458984 64.693822 45.497794 63.690531 43.433594 63.269531 L 41.808594 62.935547 C 40.706094 62.695047 40.259766 62.094944 40.259766 61.339844 C 40.259766 60.417644 40.998891 59.574219 42.400391 59.574219 C 43.872391 59.574219 44.757812 60.577928 44.757812 61.673828 L 46.306641 61.673828 C 46.306641 59.575528 44.980791 57.890625 42.400391 57.890625 z M 54.189453 57.898438 C 51.462453 57.898437 49.25 60.336713 49.25 63.945312 C 49.25 67.560513 51.468353 70 54.189453 70 C 56.916353 70 59.132812 67.560513 59.132812 63.945312 C 59.132813 60.336713 56.916353 57.898438 54.189453 57.898438 z M 75.716797 57.898438 C 72.989897 57.898437 70.779297 60.336713 70.779297 63.945312 C 70.779297 67.560513 72.995697 70 75.716797 70 C 78.443797 70 80.660156 67.560513 80.660156 63.945312 C 80.660156 60.336713 78.443797 57.898438 75.716797 57.898438 z M 120.24414 57.898438 C 117.51714 57.898437 115.30664 60.336713 115.30664 63.945312 C 115.30664 67.560513 117.51714 70 120.24414 70 C 122.97114 70 125.18945 67.560513 125.18945 63.945312 C 125.18945 60.336713 122.97114 57.898438 120.24414 57.898438 z M 62.375 58.064453 L 62.375 69.832031 L 68.9375 69.832031 L 68.9375 68.148438 L 63.923828 68.148438 L 63.923828 58.064453 L 62.375 58.064453 z M 87.363281 58.064453 L 90.976562 69.826172 L 93.333984 69.826172 L 96.945312 58.064453 L 95.251953 58.064453 L 92.300781 67.814453 L 92.007812 67.814453 L 89.058594 58.064453 L 87.363281 58.064453 z M 99.609375 58.064453 L 99.609375 69.826172 L 101.15625 69.826172 L 101.15625 58.064453 L 99.609375 58.064453 z M 103.80664 58.064453 L 107.41992 69.826172 L 109.77734 69.826172 L 113.39062 58.064453 L 111.69531 58.064453 L 108.74414 67.814453 L 108.45117 67.814453 L 105.50195 58.064453 L 103.80664 58.064453 z M 54.189453 59.582031 C 56.107053 59.582031 57.578125 61.258913 57.578125 63.945312 C 57.578125 66.631712 56.107053 68.316406 54.189453 68.316406 C 52.277653 68.316406 50.798828 66.631713 50.798828 63.945312 C 50.798828 61.258913 52.277653 59.582031 54.189453 59.582031 z M 75.716797 59.582031 C 77.634497 59.582031 79.105469 61.258913 79.105469 63.945312 C 79.105469 66.631712 77.634497 68.316406 75.716797 68.316406 C 73.804997 68.316406 72.326172 66.631713 72.326172 63.945312 C 72.326172 61.258913 73.804997 59.582031 75.716797 59.582031 z M 120.24414 59.582031 C 122.16114 59.582031 123.63477 61.258913 123.63477 63.945312 C 123.63477 66.631712 122.16114 68.316406 120.24414 68.316406 C 118.33214 68.316406 116.85547 66.631713 116.85547 63.945312 C 116.85547 61.258913 118.33214 59.582031 120.24414 59.582031 z "
     style="fill:#eddfd0;fill-opacity:1" />
</svg>
