<svg width="166" height="70" viewBox="0 0 166 70" fill="none" xmlns="http://www.w3.org/2000/svg">
<path d="M40.0436 66.2175C40.0436 67.3134 40.9995 68.3158 42.5535 68.3158C44.2483 68.3158 44.911 67.5607 44.911 66.5516C44.911 65.7096 44.3187 65.1282 43.14 64.8676L41.1461 64.4466C39.5275 64.1125 38.7123 62.9364 38.7123 61.3392C38.7123 59.4079 40.1139 57.891 42.401 57.891C44.9814 57.891 46.3067 59.575 46.3067 61.6733H44.7585C44.7585 60.5774 43.873 59.575 42.401 59.575C40.9995 59.575 40.2605 60.417 40.2605 61.3392C40.2605 62.0943 40.7062 62.6958 41.8087 62.9363L43.4332 63.2705C45.4974 63.6915 46.4592 64.6939 46.4592 66.545C46.4592 68.4762 45.1339 69.9932 42.5535 69.9932C39.9673 69.9932 38.4954 68.3092 38.4954 66.2108H40.0436V66.2175Z" fill="#EDDFD0"/>
<path d="M49.2507 63.9456C49.2507 60.337 51.4616 57.8978 54.1886 57.8978C56.9155 57.8978 59.1322 60.337 59.1322 63.9456C59.1322 67.5608 56.9155 70 54.1886 70C51.4675 70 49.2507 67.5608 49.2507 63.9456ZM50.7989 63.9456C50.7989 66.632 52.2768 68.316 54.1886 68.316C56.1062 68.316 57.5782 66.632 57.5782 63.9456C57.5782 61.2592 56.1062 59.5818 54.1886 59.5818C52.2768 59.5818 50.7989 61.2592 50.7989 63.9456Z" fill="#EDDFD0"/>
<path d="M62.3752 58.0648H63.9234V68.1488H68.9374V69.8328H62.3752V58.0648Z" fill="#EDDFD0"/>
<path d="M70.7788 63.9456C70.7788 60.337 72.9897 57.8978 75.7166 57.8978C78.4436 57.8978 80.6603 60.337 80.6603 63.9456C80.6603 67.5608 78.4436 70 75.7166 70C72.9955 70 70.7788 67.5608 70.7788 63.9456ZM72.327 63.9456C72.327 66.632 73.8048 68.316 75.7166 68.316C77.6343 68.316 79.1062 66.632 79.1062 63.9456C79.1062 61.2592 77.6343 59.5818 75.7166 59.5818C73.8048 59.5818 72.327 61.2592 72.327 63.9456Z" fill="#EDDFD0"/>
<path d="M87.3634 58.0648H89.0582L92.008 67.8147H92.3013L95.2511 58.0648H96.9459L93.3334 69.8261H90.9759L87.3634 58.0648Z" fill="#EDDFD0"/>
<path d="M99.6085 58.0648H101.157V69.8261H99.6085V58.0648Z" fill="#EDDFD0"/>
<path d="M103.807 58.0648H105.502L108.452 67.8147H108.745L111.695 58.0648H113.39L109.777 69.8261H107.42L103.807 58.0648Z" fill="#EDDFD0"/>
<path d="M115.307 63.9456C115.307 60.337 117.518 57.8978 120.245 57.8978C122.972 57.8978 125.189 60.337 125.189 63.9456C125.189 67.5608 122.972 70 120.245 70C117.518 70 115.307 67.5608 115.307 63.9456ZM116.855 63.9456C116.855 66.632 118.333 68.316 120.245 68.316C122.162 68.316 123.634 66.632 123.634 63.9456C123.634 61.2592 122.162 59.5818 120.245 59.5818C118.333 59.5818 116.855 61.2592 116.855 63.9456Z" fill="#EDDFD0"/>
<path d="M165.891 11.0127C165.891 12.6032 165.405 13.8328 164.437 14.7149C163.464 15.597 161.98 16.038 159.992 16.038C157.998 16.038 156.503 15.597 155.506 14.7149C154.509 13.8328 154.01 12.6032 154.01 11.0127C154.01 9.3688 154.509 8.09911 155.506 7.2237C156.503 6.3416 157.998 5.90723 159.992 5.90723C161.986 5.90723 163.469 6.34828 164.437 7.2237C165.405 8.09911 165.891 9.36212 165.891 11.0127ZM155.054 11.0127C155.054 12.6032 155.529 13.6657 156.473 14.207C157.417 14.7483 158.59 15.0156 159.986 15.0156C161.329 15.0156 162.478 14.7483 163.423 14.207C164.367 13.6657 164.842 12.6032 164.842 11.0127C164.842 9.42226 164.367 8.34637 163.423 7.77835C162.478 7.21033 161.329 6.92298 159.986 6.92298C158.59 6.92298 157.417 7.21033 156.473 7.77835C155.523 8.34637 155.054 9.42226 155.054 11.0127ZM158.344 13.5655H157.224C157.271 12.7101 157.3 11.848 157.3 10.9659C157.3 10.0838 157.277 9.22179 157.224 8.36642C157.623 8.31296 158.109 8.27954 158.684 8.27954C159.253 8.27954 159.74 8.27954 160.139 8.27954C160.983 8.27954 161.605 8.43992 162.009 8.74732C162.408 9.0614 162.607 9.52918 162.607 10.1507C162.607 10.5449 162.508 10.8924 162.308 11.1731C162.109 11.4605 161.81 11.6542 161.411 11.7678C161.61 11.9416 161.898 12.1688 162.267 12.4495C162.643 12.7368 163.024 13.0442 163.428 13.385V13.5588H161.933C161.734 13.385 161.511 13.1445 161.259 12.8304C161.006 12.5163 160.707 12.2223 160.361 11.9349H160.062H158.268C158.268 12.2223 158.28 12.5029 158.303 12.7903C158.326 13.0843 158.344 13.3383 158.344 13.5655ZM160.062 9.1416C159.664 9.1416 159.329 9.1416 159.054 9.1416C158.778 9.1416 158.543 9.16833 158.344 9.22179C158.291 9.50914 158.268 9.82322 158.268 10.1573C158.268 10.4982 158.268 10.7855 158.268 11.0127C158.514 11.0127 158.801 11.0261 159.13 11.0528C159.452 11.0795 159.793 11.0929 160.139 11.0929C160.59 11.0929 160.936 11.0394 161.182 10.9258C161.435 10.8122 161.558 10.5583 161.558 10.1573C161.558 9.76308 161.417 9.48909 161.147 9.34875C160.872 9.20842 160.508 9.1416 160.062 9.1416Z" fill="#EDDFD0"/>
<path d="M33.7554 8.03265V28.7019H31.5739V25.5143C31.5739 23.8971 31.1282 22.721 30.2309 21.9725C29.3337 21.2307 27.6741 20.8565 25.2521 20.8565H24.0206V31.5754C24.0206 32.4708 24.0499 33.1725 24.1027 33.6804C24.1554 34.1949 24.3548 34.5625 24.6891 34.7964C25.0234 35.0303 25.5394 35.1773 26.2256 35.2441C26.9176 35.3042 27.8969 35.3377 29.1636 35.3377V48.2217H4.6446V35.3377C5.91131 35.3377 6.8848 35.3042 7.55334 35.2441C8.22774 35.184 8.72035 35.0303 9.03703 34.7964C9.35371 34.5625 9.54137 34.1883 9.59415 33.6804C9.65279 33.1725 9.68211 32.4708 9.68211 31.5754V20.8565H8.50923C6.08138 20.8565 4.42175 21.2307 3.5245 21.9725C2.62725 22.7143 2.18155 23.8971 2.18155 25.5143V28.7019H0V8.03265H33.7554Z" fill="#EDDFD0"/>
<path d="M67.3935 33.9942C67.3935 38.672 66.3497 42.3207 64.2561 44.9336C62.1684 47.5464 58.509 48.8562 53.2838 48.8562C47.7947 48.8562 43.5078 47.4863 40.4056 44.7398C37.3092 41.9932 35.761 37.2686 35.761 30.546C35.761 24.2978 37.1157 19.7803 39.8191 16.9937C42.5226 14.2071 46.6981 12.8171 52.3338 12.8171C55.2425 12.8171 57.6704 13.1779 59.6115 13.8997C61.5526 14.6214 63.1008 15.6238 64.2561 16.9001C65.4114 18.1765 66.2324 19.6868 66.7191 21.4309C67.2059 23.1751 67.4463 25.0462 67.4463 27.0443C67.4463 27.8128 67.4463 28.5947 67.4463 29.4032C67.4463 30.2118 67.4287 31.0204 67.3877 31.829C66.9009 31.829 65.8746 31.829 64.3089 31.829C62.7431 31.829 60.9955 31.829 59.0719 31.829C57.1484 31.829 55.2015 31.829 53.2193 31.829C51.2371 31.829 49.5834 31.829 48.2404 31.829C48.4984 33.914 49.2198 35.324 50.3927 36.0725C51.5714 36.8209 53.2193 37.1884 55.3481 37.1884C57.7349 37.1884 59.3534 36.9011 60.192 36.3264C61.0307 35.7517 61.4294 34.9765 61.3943 33.9942H67.3935ZM52.2223 23.282C50.9556 23.282 49.9528 23.7498 49.2256 24.6853C48.4984 25.6209 48.1349 27.1713 48.1349 29.3431H56.0811C56.0459 26.7904 55.6823 25.1464 54.9903 24.398C54.3042 23.6562 53.3835 23.282 52.2223 23.282Z" fill="#EDDFD0"/>
<path d="M93.3592 11.9149V26.5832C91.3829 26.5832 89.7937 26.6567 88.6032 26.8037C87.4069 26.9507 86.492 27.218 85.8587 27.5989C85.2253 27.9798 84.8031 28.481 84.5978 29.0958C84.3926 29.7106 84.287 30.4858 84.287 31.4214V32.3168C84.287 33.2123 84.633 33.8605 85.325 34.2615C86.017 34.6691 87.5945 34.8696 90.0576 34.8696V47.2457H69.8489V34.8763C70.9279 34.8763 71.6199 34.5689 71.919 33.9541C72.2181 33.3393 72.3647 32.3703 72.3647 31.0538V28.6281C72.3647 27.1846 72.2181 26.1822 71.919 25.6276C71.6199 25.0729 70.9279 24.7989 69.8489 24.7989V12.4896H82.6098V27.4787H83.8413C83.9879 24.1574 84.2518 21.471 84.6213 19.4061C84.9966 17.3479 85.5479 15.7574 86.275 14.6548C87.0022 13.5522 87.9464 12.8171 89.1017 12.4562C90.2628 12.0953 91.682 11.9149 93.3592 11.9149Z" fill="#EDDFD0"/>
<path d="M118.894 12.884V27.5523C116.918 27.5523 115.329 27.6258 114.138 27.7728C112.942 27.9198 112.027 28.1871 111.394 28.5681C110.76 28.949 110.338 29.4502 110.133 30.065C109.928 30.6798 109.822 31.4549 109.822 32.3905V33.286C109.822 34.1814 110.168 34.8296 110.86 35.2306C111.552 35.6382 113.13 35.8387 115.593 35.8387V48.2148H95.384V35.8454C96.4631 35.8454 97.1551 35.538 97.4542 34.9232C97.7533 34.3084 97.8999 33.3394 97.8999 32.0229V29.5972C97.8999 28.1537 97.7533 27.1513 97.4542 26.5967C97.1551 26.042 96.4631 25.7681 95.384 25.7681V13.4587H108.145V28.4478H109.376C109.523 25.1265 109.787 22.4401 110.156 20.3752C110.532 18.317 111.083 16.7265 111.81 15.6239C112.537 14.5213 113.482 13.7862 114.637 13.4253C115.798 13.0645 117.217 12.884 118.894 12.884Z" fill="#EDDFD0"/>
<path d="M153.711 30.5526C153.711 36.7608 152.433 41.3651 149.876 44.3655C147.319 47.366 143.114 48.8629 137.256 48.8629C131.362 48.8629 127.134 47.366 124.577 44.3655C122.02 41.3651 120.742 36.7608 120.742 30.5526C120.742 24.4314 122.02 19.9407 124.577 17.0939C127.134 14.2471 131.356 12.8171 137.256 12.8171C143.114 12.8171 147.325 14.2605 149.876 17.1541C152.433 20.0476 153.711 24.5183 153.711 30.5526ZM141.619 30.4858C141.619 28.06 141.314 26.3493 140.698 25.3469C140.083 24.3512 138.933 23.85 137.256 23.85C135.538 23.85 134.377 24.3512 133.755 25.3469C133.139 26.3493 132.834 28.06 132.834 30.4858C132.834 32.9517 133.145 34.7827 133.755 35.9722C134.371 37.1617 135.538 37.7565 137.256 37.7565C138.939 37.7565 140.083 37.1617 140.698 35.9722C141.314 34.7827 141.619 32.9584 141.619 30.4858Z" fill="#EDDFD0"/>
<path d="M145.548 8.03246C145.466 8.03246 145.384 8.01909 145.308 7.99236L137.631 5.39284C137.502 5.34606 137.368 5.32601 137.227 5.32601C137.086 5.32601 136.957 5.34606 136.822 5.39284L129.146 7.99236C129.064 8.01909 128.982 8.03246 128.899 8.03246C128.436 8.03246 128.055 7.59809 128.055 7.07017V3.78234C128.055 3.36134 128.301 2.98043 128.659 2.86014L136.981 0.0400951C137.057 0.0133648 137.139 0 137.221 0C137.303 0 137.385 0.0133648 137.461 0.0400951L145.783 2.86014C146.141 2.98043 146.387 3.36134 146.387 3.78234V7.07017C146.393 7.60477 146.012 8.03246 145.548 8.03246Z" fill="#EDDFD0"/>
</svg>
